<?xml version="1.0" encoding="utf-8"?>
<!-- Generator: Adobe Illustrator 26.1.0, SVG Export Plug-In . SVG Version: 6.00 Build 0)  -->
<svg version="1.1" id="Calque_1" xmlns="http://www.w3.org/2000/svg" xmlns:xlink="http://www.w3.org/1999/xlink" x="0px" y="0px"
	 viewBox="0 0 356.7 239.9" style="enable-background:new 0 0 356.7 239.9;" xml:space="preserve">
<style type="text/css">
	.st0{fill:#FFFFFF;}
</style>
<g id="a">
</g>
<g id="b">
	<g>
		<path class="st0" d="M336.6,121.1L336.6,121.1c0-55.5-45-100.5-100.5-100.5h-0.2v100.5H336.6z"/>
		<path class="st0" d="M336.6,0L336.6,0c11.1,0,20.1,9,20.1,20.1l0,0c0,11.1-9,20.1-20.1,20.1l0,0c-11.1,0-20.1-9-20.1-20.1l0,0
			C316.5,9,325.5,0,336.6,0z"/>
		<path class="st0" d="M115.4,139.2h100.8c0,55.6-45.1,100.7-100.7,100.7h-9.8c-30.5,0-53.3-12.4-73.2-32.4
			c-20-19.9-32.4-47.5-32.4-78v-0.1c0.1-30.5,12.4-58.1,32.4-78c20-20,42.7-32.4,73.2-32.4h110.5c0,55.6-45.1,100.7-100.7,100.7
			h-0.1c-5.4,0-9.8,4.4-9.8,9.8l0,0C105.6,134.8,110,139.1,115.4,139.2L115.4,139.2z"/>
		<path class="st0" d="M336.6,239.4c-26.6-1.9-50.5-11.4-68.3-27c-20-17.6-32.4-42.7-32.4-73.2h100.7V239.4L336.6,239.4z"/>
	</g>
</g>
</svg>
