<?xml version="1.0" encoding="utf-8"?>
<!-- Generator: Adobe Illustrator 26.3.1, SVG Export Plug-In . SVG Version: 6.00 Build 0)  -->
<svg version="1.1" id="Layer_1" xmlns="http://www.w3.org/2000/svg" xmlns:xlink="http://www.w3.org/1999/xlink" x="0px" y="0px"
	 viewBox="0 0 240 234" style="enable-background:new 0 0 240 234;" xml:space="preserve">
<style type="text/css">
	.st0{fill:#264DE3;}
	.st1{fill:#2966F2;}
	.st2{fill:#EBEBEB;}
	.st3{fill:#FFFFFF;}
</style>
<g>
	<polygon class="st0" points="16.8,0 35.6,210.6 119.9,234 204.4,210.6 223.2,0 	"/>
	<polygon class="st1" points="120,17.2 120,216.1 188.3,197.2 204.3,17.2 	"/>
	<polygon class="st2" points="59.9,95.3 62.2,121.2 120,121.2 120,95.3 	"/>
	<polygon class="st2" points="119.9,43 55.2,43 57.6,68.9 120,68.9 120,43 	"/>
	<polygon class="st2" points="120,189.3 120,162.4 119.9,162.5 91.1,154.7 89.3,134.1 75.3,134.1 63.3,134.1 67,174.6 119.9,189.3 	
		"/>
	<polygon class="st3" points="151.7,121.2 148.7,154.7 119.9,162.4 119.9,189.3 172.9,174.7 173.2,170.3 179.3,102.3 180,95.3 
		184.6,43 119.9,43 119.9,68.9 156.3,68.9 154,95.3 119.9,95.3 119.9,121.2 	"/>
</g>
</svg>
