<?xml version="1.0" encoding="utf-8"?>
<!-- Generator: Adobe Illustrator 26.3.1, SVG Export Plug-In . SVG Version: 6.00 Build 0)  -->
<svg version="1.1" id="Layer_1" xmlns="http://www.w3.org/2000/svg" xmlns:xlink="http://www.w3.org/1999/xlink" x="0px" y="0px"
	 viewBox="0 0 240 234" style="enable-background:new 0 0 240 234;" xml:space="preserve">
<style type="text/css">
	.st0{fill:#363636;}
	.st1{fill:#0ACF82;}
	.st2{fill:#A359FF;}
	.st3{fill:#F24F1F;}
	.st4{fill:#FF7361;}
	.st5{fill:#1ABDFF;}
</style>
<path class="st0" d="M42.5,0h155C220.9,0,240,19,240,42.4c0,0,0,0.1,0,0.1v149c0,23.4-19,42.5-42.4,42.5c0,0-0.1,0-0.1,0h-155
	C19,234,0,215,0,191.6c0,0,0-0.1,0-0.1v-149C0,19,19,0,42.5,0C42.4,0,42.5,0,42.5,0z"/>
<g>
	<path class="st1" d="M92.4,199.7c15.2,0,27.6-12.3,27.6-27.6v-27.6H92.4c-15.2,0-27.6,12.3-27.6,27.6S77.2,199.7,92.4,199.7"/>
	<path class="st2" d="M64.9,117c0-15.2,12.3-27.6,27.6-27.6H120v55.1H92.4C77.2,144.6,64.9,132.2,64.9,117"/>
	<path class="st3" d="M64.9,61.9c0-15.2,12.3-27.6,27.6-27.6H120v55.1H92.4C77.2,89.4,64.9,77.1,64.9,61.9"/>
	<path class="st4" d="M120,34.3h27.6c15.2,0,27.6,12.3,27.6,27.6s-12.3,27.6-27.6,27.6H120V34.3z"/>
	<path class="st5" d="M175.1,117c0,15.2-12.3,27.6-27.6,27.6S120,132.2,120,117s12.3-27.6,27.6-27.6S175.1,101.8,175.1,117"/>
</g>
</svg>
