<svg width="1920" height="1080" viewBox="0 0 1920 1080" fill="none" xmlns="http://www.w3.org/2000/svg">
<mask id="mask0_398_6713" style="mask-type:alpha" maskUnits="userSpaceOnUse" x="0" y="0" width="1920" height="1080">
<rect width="1920" height="1080" fill="#C4C4C4"/>
</mask>
<g mask="url(#mask0_398_6713)">
<rect x="-3" y="-2" width="1920" height="1080" fill="white"/>
<path d="M1011.16 1086.51C1002.7 1080.66 994.69 1073.96 985.356 1069.25C979.095 1066.09 973.371 1060.65 964.629 1061.62C963.304 1061.77 961.809 1059 960.005 1057.91C948.104 1050.43 934.089 1045.77 923.769 1036.06C920.272 1032.7 915.929 1030.81 914.237 1025.74C913.137 1022.48 906.792 1023.91 903.211 1020.05C896.754 1013.04 887.589 1007.79 879.27 1002.06C868.47 994.629 856.711 988.316 849.153 977.631C844.641 971.294 836.859 966.729 831.247 960.877C827.327 956.773 825.381 951.163 821.151 947.375C815.681 942.519 818.867 933.85 809.195 930.378C805.867 929.163 805.952 921.053 804.232 915.322H801.243C797.972 908.475 794.785 901.821 791.627 895.168L789.258 895.872C789.641 893.832 789.857 891.771 789.907 889.704C789.907 887.567 791.683 883.196 785.536 885.94C784.775 885.088 784.175 884.137 783.759 883.124C782.095 877.126 780.601 870.982 778.824 864.28L774.594 865.3L732.013 826.327C729.281 827.167 726.286 827.123 723.588 826.203C720.89 825.283 718.673 823.549 717.35 821.324C714.53 817.536 708.89 815.327 703.645 811.611L698.372 813.36C697.723 805.298 692.027 802.166 683.99 800.806C682.036 800.255 680.246 799.344 678.745 798.135C673.444 794.614 668.396 790.85 662.869 787.548C660.52 786.682 658.006 786.196 655.452 786.115C652.209 782.327 649.813 776.596 644.934 774.459C638.984 771.764 631.229 772.031 623.503 770.89L598.575 753.188L591.863 759.477L589.043 754.038C584.221 757.923 580.583 760.108 573.731 755.616C566.568 750.759 557.601 747.918 549.226 744.616C545.939 743.812 542.546 743.371 539.13 743.305C534.393 735.243 524.58 730.799 515.189 726.064C511.099 723.708 506.262 722.504 501.343 722.616C495.844 722.786 490.374 718.294 484.565 717.177C472.354 714.748 462.654 708.751 452.277 703.336C443.577 699.024 435.169 694.289 427.095 689.155C425.685 688.208 422.131 689.616 419.227 690.004C415.871 683.278 409.442 681.384 401.32 682.72C401.067 679.709 400.813 676.916 400.39 672.448L394.75 679.563C391.93 675.556 389.11 671.04 385.867 666.79C381.412 661.157 374.87 663.439 368.722 663.536C367.279 663.436 365.881 663.053 364.635 662.418C363.389 661.783 362.328 660.911 361.531 659.87C356.625 651.322 349.998 645.956 337.985 646.879C336.039 647.024 333.276 644.766 331.809 643.018C328.284 638.817 319.515 638.161 320.784 630.561C320.501 628.241 319.212 626.099 317.174 624.563C314.638 622.31 311.695 620.423 308.46 618.978C305.378 618.063 302.177 617.476 298.929 617.23C299.408 611.28 294.897 608.488 286.211 605.695C277.526 602.903 272.309 593.336 263.849 589.62C256.038 586.197 252.992 575.051 239.654 579.907C242.841 573.254 240.669 569.879 235.65 565.556C227.697 558.709 222.171 549.797 215.318 541.954C212.019 538.117 208.043 534.669 203.305 530.055L205.533 522.94L200.26 525.223L189.939 512.208L186.132 513.203L185.511 508.711C172.822 506.283 174.232 496.084 168.958 489.892L161.683 494.044V479.232C154.154 477.896 152.18 474.618 152.97 465.366C149.755 461.773 147.16 459.296 145.158 456.528C142.937 453.445 141.049 450.194 139.518 446.815C137.911 443.318 136.952 439.53 135.57 435.62L129.169 437.611C129.169 431.444 129.451 425.276 129 419.132C128.831 417.093 125.644 415.126 125.757 413.183C125.757 410.755 127.928 408.327 129.592 405.146C118.82 405.316 118.313 398.444 115.944 392.713C114.103 389.505 111.883 386.47 109.317 383.656L107.541 384.578L110.811 375.351L102.606 376.541L103.846 368.673L95.5559 372.097L101.393 357.066L90.9311 361.218L92.6795 348.859L90.3108 347.985L79.764 354.322L87.6882 339.17L76.6057 341.914C77.6209 339.486 79.4258 337.324 78.9464 335.625C78.3261 333.051 76.324 328.68 74.773 328.631C66.7644 328.437 67.4692 324.503 68.2306 319.841C68.7237 316.661 68.8087 313.445 68.4843 310.249C68.4843 309.594 65.6643 309.132 63.8878 308.477L65.4389 300.269L56.4435 303.013C68.541 293.3 52.5518 287.011 56.2741 278.464H47.8143L49.3372 266.905L40.2007 267.439C41.8362 256.973 31.2895 250.636 28.6951 241.19C25.8752 231.477 17.4155 222.711 11.1835 213.095L3.09032 216.324L5.91025 205.421L-0.293457 206.199V-1.85449L14.7649 6.52317L13.4957 8.19853L27.5953 7.373V15.119L34.166 13.7836L33.1508 21.0684C35.5857 21.6427 37.9549 22.4066 40.2289 23.3508C42.368 24.788 44.3244 26.4159 46.066 28.2073L45.5583 33.6952L54.554 31.7768V40.1788L62.7036 42.4369L60.1656 52.8542L68.6254 49.2847L68.1177 56.1809L75.8446 55.1126L74.6319 62.8829L80.6948 63.3441V69.172H86.8138L85.545 79.1038C94.7379 76.6755 97.0787 82.066 100.181 87.0683C103.283 92.0705 107.964 96.1501 110.36 101.201C112.925 107.541 114.951 114.034 116.423 120.627C117.72 125.289 123.275 129.684 116.423 135.196L124.883 136.702L123.389 144.23L132.017 146.026L128.69 155.57L140.308 163.437L142.282 163.048C143.714 167.839 145.455 172.557 147.499 177.181C150.572 183.179 154.577 188.812 157.904 194.713C158.468 195.709 157.622 197.287 157.312 199.278C167.83 196.486 168.253 205.276 173.216 208.991C172.201 211.954 171.158 214.94 169.579 219.481L176.939 215.207L180.971 224.484C189.431 224.484 191.546 232.594 191.518 237.304C191.518 244.589 194.338 245.876 201.275 246.168C203.164 246.168 204.941 247.965 206.915 248.985L203.221 258.382L210.58 254.497C204.574 261.174 211.962 266.978 212.019 273.923L221.127 272.854V286.283L225.893 287.497L225.385 295.316L234.042 292.207L231.561 298.788L235.424 298.181C235.932 303.038 236.439 307.894 237.031 313.625H239.062C242.531 320.909 245.491 327.369 248.791 333.755C251.329 338.612 257.081 342.181 256.235 348.592C255.982 350.389 258.632 352.525 260.099 354.42C264.216 359.64 260.099 364.133 257.279 369.863L263.708 367.848L267.035 381.689L271.378 380.159L269.122 389.314L277.159 384.166L278.654 384.943L274.621 394.656L279.782 392.713C278.71 396.185 277.187 400.289 285.421 398.662C279.951 405.947 285.168 408.375 291.371 410.488C285.732 424.305 297.604 434.77 300.706 447.057C302.338 452.238 304.567 457.265 307.361 462.064C307.755 462.768 310.18 462.72 311.844 463.06C304.118 472.408 319.966 470.344 321.855 475.541C320.671 478.576 319.542 481.514 318.386 484.428L319.909 485.691L329.074 480.64C331.696 484.186 334.347 487.731 337.111 491.422L339.931 490.523L337.872 498.391L345.542 493.534C346.219 494.845 346.727 496.91 347.403 496.958C356.681 497.565 360.206 502.761 363.251 509.536C364.859 513.13 369.85 515.534 373.009 518.667C375.434 521.095 377.238 523.936 379.551 526.413C383.301 530.371 387.249 534.183 390.661 537.607L401.941 538.408L400.503 546.495L403.097 547.927L406.396 541.395L408.624 542.633L406.989 553.002L413.531 552.395L414.236 558.806L422.188 551.06V564.196C426.474 566.357 430.14 568.057 433.468 570C437.082 572.388 440.241 575.247 442.83 578.474C446.27 582.093 451.29 582.991 452.756 577.722L462.034 594.525L465.897 592.85L467.532 601.883C481.124 600.135 496.155 605.477 499.708 613.199L506.278 609.848C506.814 612.786 507.237 615.117 507.688 617.424C517.319 617.459 526.547 620.756 533.378 626.603C536.79 629.25 543.783 628.473 549.987 629.395L550.579 635.247L556.219 631.58C560.167 632.77 565.581 633.353 565.835 634.64C567.076 641.391 575.028 638.817 576.861 638.72C586.336 638.185 590.961 644.062 596.262 648.433C600.379 651.784 602.466 655.718 609.572 653.969C611.913 653.362 615.212 655.596 619.16 656.859L619.442 661.885C619.933 662.227 620.485 662.498 621.078 662.687C623.11 662.806 625.128 663.065 627.112 663.464C639.548 667.446 652.012 671.355 664.222 675.775C668.093 677.129 671.452 679.382 673.923 682.282C680.324 690.611 691.801 692.409 699.979 698.309C701.023 699.062 702.799 699.232 703.532 700.106C709.68 707.634 714.135 716.861 722.115 722.397C729.983 727.583 737.514 733.135 744.675 739.031C748.877 742.698 752.937 746.461 758.521 751.488H767.46C774.481 762.366 781.334 772.954 788.356 783.784L792.473 781.89L802.794 796.241L816.273 801.073C816.104 810.179 824.14 822.563 832.008 823.607C829.78 832.64 836.266 838.808 841.568 845.461C846.39 851.605 850.507 858.161 855.667 865.373L853.722 870.91L856.034 870.011L870.133 890.821L873.63 890.409C870.274 901.53 878.199 909.834 883.303 918.479C888.943 927.949 887.25 940.819 900.814 947.497C900.814 959.638 912.094 967.554 919.313 977.413C920.639 979.258 923.684 980.521 924.22 982.439C926.842 991.399 935.866 996.402 941.139 1003.66C944.467 1008.18 947.982 1012.57 951.686 1016.85C955.944 1021.7 960.146 1026.56 964.939 1031.22C974.584 1040.5 984.538 1049.53 994.436 1058.61C995.65 1059.43 996.922 1060.19 998.243 1060.87C1008.06 1068.16 1015.16 1077.53 1022.66 1086.39L1011.16 1086.51Z" fill="black"/>
<path d="M1280.26 1086.51L1274.85 1081.44L1271.75 1082.97C1276.63 1069.59 1265.68 1061.36 1257.65 1052.2L1259.42 1051.09L1252.29 1050.53C1250.2 1047.59 1248.43 1045.31 1246.93 1042.93C1245.66 1040.44 1244.24 1038 1242.67 1035.64C1239.85 1032.27 1235.51 1029.57 1233.85 1025.93C1230.66 1018.89 1221.04 1018.64 1216.93 1012.57C1213.26 1007.09 1207.06 1002.86 1202.83 997.689C1197.19 990.89 1191.92 983.702 1186.92 976.49C1185.85 974.103 1185.21 971.589 1185.01 969.035L1178.07 972.532L1178.58 965.879L1176.83 966.971C1175.62 965.951 1174.32 965.005 1173.19 963.912C1171.16 961.969 1169.16 960.002 1167.24 957.962C1164.65 954.851 1163.15 951.171 1162.9 947.351C1161.3 938.819 1157.74 930.646 1152.44 923.311C1147.08 916.026 1143.98 907.965 1139.63 900.291C1137.9 896.695 1136.38 893.023 1135.09 889.291C1125.56 893.128 1123.17 884.702 1120.99 880.987C1118.08 876.625 1113.58 873.211 1108.19 871.274C1103.34 869.21 1102.75 866.126 1100.83 862.993C1098.91 859.861 1095.87 856.534 1093.81 853.111C1091.75 849.687 1090.57 846.093 1088.51 842.766C1086.6 840.138 1084.48 837.63 1082.16 835.263L1078.98 836.258C1079.79 833.83 1080.53 831.572 1081.49 828.609L1076.89 828.974C1079.71 820.936 1069.56 818.823 1067.33 813.141C1066.66 811.588 1066.53 809.903 1066.94 808.285C1067.94 806.06 1069.17 803.915 1070.6 801.874C1063.02 799.713 1054.16 804.448 1049.4 797.018C1045.67 791.335 1042.6 785.338 1038.65 778.49C1034.45 777.737 1018.69 761.104 1017.22 754.038L1003.6 749.375C999.878 745.539 997.481 742.697 994.633 740.221C990.008 736.214 986.427 731.066 978.052 731.503C975.57 731.503 972.412 727.885 970.241 725.384C965.278 719.411 960.822 713.243 956.141 707.027L950.868 709.455L941.788 697.022H935.217L932.087 685.682C925.009 689.397 919.003 686.022 915.365 675.969L904.79 677.062L905.354 675.508C901.721 674.6 898.221 673.337 894.92 671.744C891.085 669.316 886.461 666.645 884.91 663.172C880.51 652.949 876.619 651.031 865.17 655.887C864.634 656.106 864.07 656.349 863.704 654.965L845.544 653.459L843.88 649.792L839.227 651.759L838.014 647.17C826.086 653.046 826.565 641.536 820.164 638.283L811.451 647.316L809.364 644.086L798.648 649.938L793.262 642.168L790.442 640.25C789.088 642.896 787.622 645.519 786.522 647.947L776.371 635.223L773.551 641.342L771.943 640.419C771.492 638.161 771.041 635.879 770.59 633.548L760.748 635.369C756.49 625.073 747.861 620.411 735.059 619.634C724.762 618.724 714.568 617.1 704.575 614.777C703.109 614.486 702.404 611.475 701.361 609.726C699.802 610.302 698.123 610.596 696.427 610.591C694.732 610.586 693.055 610.282 691.501 609.697C689.947 609.112 688.549 608.259 687.393 607.191C686.237 606.123 685.347 604.862 684.779 603.486C683.736 605.914 682.862 607.735 682.129 609.629C681.396 611.523 680.944 613.053 679.76 616.598C677.419 613.272 676.038 611.402 674.741 609.508C672.613 606.536 669.384 604.269 665.576 603.073C656.129 599.285 643.947 600.839 636.7 592.777C636.276 592.291 634.5 592.243 633.626 592.559C625.927 595.4 619.244 592.801 612.194 590.397C609.149 589.353 605.201 590.397 601.761 591.199C593.301 588.77 587.323 581.17 576.382 580.709C572.208 580.539 568.232 577.552 564.002 576.241C561.182 575.318 557.121 575.876 555.035 574.347C551.876 571.918 546.067 575.245 544.178 569.49C543.67 567.912 535.267 568.228 528.725 567.475C526.412 565.047 525.143 557.47 515.415 562.181L512.595 555.843C504.445 554.581 494.716 555.431 489.274 551.691C481.209 546.106 467.899 548.316 463.528 537.729C462.005 534.062 457.888 531.245 453.207 526.389C444.493 526.85 440.771 517.841 433.467 511.819L427.461 512.548L425.797 505.603L419.227 505.263C418.155 495.938 415.927 486.25 405.494 483.02C396.554 480.276 399.177 474.569 396.78 470.077C395.553 468.103 394.168 466.204 392.635 464.395L390.182 465.124L391.535 454.974L389.646 455.532C388.747 451.962 387.355 448.497 385.5 445.212C383.386 442.347 379.043 440.695 376.731 437.927C373.939 434.069 371.452 430.053 369.286 425.907L371.119 424.402L363.702 424.96V402.645L358.683 402.086V383.413C352.535 383.583 356.624 378.556 356.455 374.598L349.8 376.541C347.347 368.285 344.978 360.344 342.215 351.093L336.575 350.34L339.056 341.744L332.176 343.225L328.34 328.656C319.119 330.258 318.471 324.843 316.807 318.093C314.608 309.011 311.506 299.687 302.397 293.106C300.564 291.795 300.423 288.808 299.267 286.696C298.546 285.258 297.534 283.942 296.278 282.81C292.739 280.196 290.024 276.855 288.382 273.097C285.844 266.905 279.922 261.612 274.762 256.367C267.289 248.669 263.482 238.713 251.864 233.371C246.816 230.943 244.645 223.949 241.487 218.801C239.005 214.77 237.313 210.375 230.686 209.987C229.784 209.987 228.684 207.558 228.402 206.102C227.697 202.653 227.444 199.132 225.244 196.971C220.168 192.868 214.98 188.885 210.101 184.587C207.873 182.62 206.689 179.731 204.461 177.812C194.451 169.532 184.327 161.495 178.574 150.13C176.29 145.662 171.158 142.336 168.084 137.989C163.149 131.141 158.525 124.099 154.379 116.863C152.772 114.022 152.856 110.453 151.87 107.466C146.23 89.7395 131.904 76.3113 123.473 59.8234C124.4 59.6344 125.365 59.6344 126.293 59.8234C135.88 63.4172 144.199 68.1523 148.852 76.8212C150.065 79.0309 153.731 80.3422 156.466 81.6777C163.6 85.5387 171.327 88.7197 177.784 93.2606C180.915 95.446 181.817 99.5497 187.598 98.1171C188.923 97.7771 191.123 99.9625 193.012 101.055L198.652 98.0442C199.639 98.1898 200.4 98.0442 200.767 98.4085C203.587 100.642 206.209 103.095 209.227 105.159C214.021 108.51 223.524 106.907 223.637 115.552C223.637 116.45 228.882 117.543 231.814 117.98C235.931 118.66 240.274 118.854 244.25 119.267C244.645 127.766 270.955 142.384 285.449 143.331L296.955 159.867L298.308 158.168C304.57 160.649 310.586 163.565 316.299 166.885C321.432 170.382 325.267 175.263 330.399 180.168L338.859 179.561C337.421 188.424 343.596 193.548 349.264 199.303C351.267 201.342 350.111 205.665 350.449 209.55C356.963 209.55 357.612 213.872 356.399 218.801C366.212 218.583 372.219 223.075 373.149 230.117C373.318 231.477 375.8 232.545 376.589 233.881C384.231 247.819 399.149 256.925 407.609 270.693C414.038 281.232 419.368 291.916 424.726 302.795C429.097 311.634 436.767 319.21 442.858 327.417C444.155 329.165 444.691 331.327 446.016 333.027C448.498 336.159 446.298 342.011 453.432 342.497C453.968 342.497 454.843 343.881 454.73 344.512C453.292 353.885 462.71 358.645 466.94 365.517C469.337 369.353 474.413 371.903 477.91 375.23C480.398 377.772 482.643 380.484 484.621 383.34C487.441 387.031 489.725 390.916 492.489 394.558C494.061 396.35 495.786 398.038 497.649 399.609L499.679 398.347L514.061 404.344V408.23L523.762 414.567L526.356 411.678C527.202 413.888 527.822 415.442 529.176 418.963L533.265 412.358L534.703 412.989C535.041 415.782 535.351 418.574 535.69 421.415L549.113 414.883C549.508 418.501 549.733 420.735 550.015 423.139L558.475 424.523C560.759 432.634 560.759 432.634 568.316 429.38C572.49 432.051 576.353 434.236 579.596 436.835C581.862 438.891 583.945 441.09 585.828 443.415C591.468 449.388 596.093 458.64 603.199 460.413C610.377 462.245 617.046 465.319 622.797 469.446C629.96 474.303 640.422 474.521 645.723 482.389C646.795 483.943 653.647 482.607 658.385 482.607L658.047 488.168L665.97 485.74L668.114 491.47C675.022 486.614 677.983 498.148 685.231 494.457C687.006 495.825 688.536 497.413 689.771 499.168C696.877 508.42 699.64 509.488 712.584 507.132L715.742 514.417L725.471 505.287C726.599 510.143 727.417 513.883 728.46 518.448L732.549 516.19L747.664 521.775L748.566 520.099L750.653 525.66C752.909 524.64 755.334 522.698 756.293 523.232C764.753 526.753 772.874 530.711 782.208 535.057L789.117 533.188L792.642 542.026L810.323 534.742C815.004 539.113 818.783 542.755 822.787 546.373C823.435 546.956 824.338 547.927 825.014 547.854C837.196 546.64 842.159 549.336 844.754 558.369L873.743 561.307L874.786 564.294L893.962 571.433C893.962 573.545 894.3 576.289 894.582 579.932L898.699 576.993C904.339 579.203 909.133 580.854 913.701 582.918C916.473 583.978 918.924 585.573 920.864 587.581C924.868 592.631 932.849 595.011 932.708 603.121C932.708 606.521 937.558 612.228 941.167 612.98C949.627 614.656 951.968 620.265 955.634 625.122C959.299 629.978 968.21 634.689 972.807 634.835L982.846 651.832L995.31 644.839L1004.19 658.923C1008.64 658.218 1013.13 657.772 1017.64 657.587C1020.46 657.587 1022.35 664.872 1026.3 657.587C1028.87 660.598 1026.58 668.417 1035.18 661.084V674.512L1057.49 682.307C1057.88 683.691 1055.54 688.887 1063.81 687.163C1063.04 689.932 1062.34 692.433 1061.69 694.739C1064.93 698.285 1073.34 697.362 1071.79 704.452C1071.79 705.132 1075.99 707.318 1078.33 707.439C1087.41 707.925 1089.44 712.684 1089.61 719.362C1090.18 721.311 1091.61 722.987 1093.61 724.024C1100.45 727.762 1105.32 733.653 1107.18 740.439C1109.12 747.457 1112.65 754.815 1121.08 758.967C1122.8 759.817 1123.05 762.634 1124.6 764.042C1127.85 767.029 1131.74 769.505 1134.92 772.517C1138.14 775.576 1141.11 778.821 1143.81 782.23C1145.22 784.026 1145.33 786.916 1147.13 788.13C1154.02 792.793 1159.51 801.097 1158.95 808.018C1161.32 806.609 1163.15 804.812 1165.27 804.521C1166.76 804.303 1170.29 806.391 1170.15 806.949C1168.34 813.481 1175.5 816.468 1177.56 821.519C1179.97 826.973 1183.08 832.178 1186.84 837.035C1188.47 839.245 1191.89 840.532 1195.3 842.693C1194.88 843.426 1194.63 844.223 1194.57 845.038C1194.51 845.854 1194.64 846.672 1194.95 847.445C1195.25 848.218 1195.74 848.93 1196.37 849.54C1197 850.149 1197.77 850.645 1198.63 850.998C1203.34 853.086 1202.1 855.854 1200.49 860.492L1205.42 857.676C1208.64 860.881 1213.88 863.795 1214.78 867.389C1216.93 877.102 1232.55 880.185 1229.73 891.865C1229.87 892.754 1230.27 893.596 1230.9 894.311C1231.53 895.026 1232.36 895.588 1233.31 895.945C1242.73 896.746 1239.68 903.715 1241.97 908.086C1243.59 911.23 1245.83 914.106 1248.6 916.585C1252.94 927.512 1256.41 938.439 1268.34 946.574C1277.61 952.888 1284.04 962.309 1290.47 971.366C1295.8 978.894 1304.57 984.576 1311.93 991.084C1315.79 994.532 1319.35 998.369 1323.52 1001.38C1326.48 1003.31 1329.69 1004.94 1333.08 1006.24C1342.75 1010.58 1344.92 1019.59 1350.23 1026.63C1352.76 1030.01 1354.03 1034.06 1359.64 1035.13C1360.69 1035.35 1360.89 1038.8 1361.51 1040.91C1371.29 1040.91 1373.63 1048.63 1378.43 1053.54C1382.63 1058.15 1386.53 1062.96 1390.13 1067.94C1390.3 1068.16 1390.75 1068.28 1390.78 1068.5C1392.36 1076.7 1399.8 1081.2 1406.06 1086.44L1280.26 1086.51Z" fill="black"/>
<path d="M1720.6 1086.51C1720.77 1084.4 1724.6 1081.66 1718.88 1080.44C1717.78 1080.18 1717.72 1076.51 1717.02 1073.84C1715.49 1074.83 1714.2 1075.81 1712.79 1076.56C1710.56 1077.75 1707.82 1079.98 1706.05 1079.52C1704.27 1079.06 1702.75 1076.1 1702.04 1073.98C1701.34 1071.87 1702.41 1068.64 1697.62 1070.46V1064.03L1690.45 1066.46C1690.9 1063.88 1691.27 1061.6 1691.72 1059H1685.32C1685.63 1056.57 1685.91 1054.32 1686.28 1051.38L1677.4 1055.17C1678.07 1048.05 1673.05 1044.63 1668.15 1040.18C1660.42 1033.24 1650.89 1026.88 1648.92 1015.9C1647.79 1009.68 1641.81 1006.65 1637.13 1008.25C1636.43 1004.3 1635.49 1000.39 1634.31 996.523C1632.74 992.799 1630.93 989.151 1628.89 985.596C1619.11 986.13 1607.35 970.031 1605.91 951.94C1599.22 950.227 1593.31 946.775 1588.99 942.057C1583.34 936.48 1580.04 929.42 1579.63 922.024L1571.42 921.029C1572.05 919.245 1572.29 917.376 1572.13 915.517C1571.16 913.428 1569.8 911.491 1568.1 909.786C1567.36 908.936 1565.28 908.159 1565.28 907.673C1567.31 900.389 1560.2 902.064 1555.63 901.093C1555.1 895.289 1554.76 889.388 1545.57 888.951C1544.49 888.951 1543.96 885.697 1542.58 884.435C1540.85 882.45 1538.51 880.913 1535.84 879.991C1531.86 879.214 1518.44 871.541 1516.8 867.85L1513.81 868.87L1507.07 855.903H1498.61L1489.82 843.3L1483.95 844.636C1483.08 841.382 1482.31 838.541 1481.41 835.263L1474.02 834.243C1472.82 828.598 1471.14 823.038 1468.98 817.609C1467.07 814.809 1464.25 812.56 1460.85 811.15C1455.64 808.455 1450.76 806.731 1452.62 799.567C1453.55 795.901 1450.65 790.971 1448.14 787.426C1445.63 783.881 1441.65 780.141 1442.16 774.872C1442.16 773.682 1439.76 772.444 1439.34 771.035C1438.3 767.199 1437.76 763.241 1436.83 758.287L1431.5 757.68L1435.14 745.32H1422.56C1422.96 741.265 1423.29 737.671 1423.69 733.567L1415.65 732.742C1411.56 728.249 1421.66 720.042 1410.01 718.512V700.761L1393.35 694.302C1397.91 681.797 1385.76 674.124 1383.65 663.852C1373.55 664.896 1369.55 660.185 1366.73 643.479L1354.52 644.426L1353.08 635.709H1343.6L1344.87 634.009C1341.8 631.58 1338.67 628.958 1335.65 626.336C1335.03 625.725 1334.7 624.936 1334.72 624.126C1335.03 614.801 1326.26 611.378 1319.63 606.351C1317.18 604.457 1316.45 600.936 1313.8 599.188L1296.4 582.02L1297.72 580.344L1287.15 581.17C1286.61 577.115 1286.08 573.205 1285.57 569.32L1284.16 570.267L1273.98 560.166L1275.36 558.757L1266.9 558.126C1267.66 552.589 1268.34 547.587 1269.1 542.172L1260.78 539.744C1258.89 533.867 1257.14 528.452 1255.37 523.013L1244.51 512.499C1242.71 506.695 1240.36 499.338 1237.77 491.106H1229.73C1229.37 487.973 1229.06 485.4 1228.72 482.461L1218.57 480.567C1218.4 477.386 1218.23 474.472 1218.06 470.854L1206.44 472.408C1206.86 467.552 1207.23 463.035 1207.63 457.839L1199.67 457.305V448.976L1188.65 450.238C1188.96 445.989 1189.27 442.128 1189.58 437.757H1179.68L1178.3 430.812L1176.44 432.124L1164.31 419.982L1157.43 422.411C1157.45 418.288 1156.46 414.208 1154.51 410.441C1152.57 406.674 1149.72 403.305 1146.15 400.556C1143.73 398.444 1142.68 395.166 1140.51 392.665C1138.09 389.726 1135.01 387.201 1132.64 384.263C1130.7 381.522 1128.95 378.684 1127.4 375.764L1120.94 373.748C1120.77 368.6 1121.31 362.554 1111.38 363.622C1113.86 355.973 1098.3 352.574 1107.77 344.051L1096.27 339.801C1097.14 336.208 1098.04 332.517 1099.09 328.316L1092.63 327.563C1089.55 323.581 1097.42 315.883 1086.06 315.057L1086.82 308.185C1078.36 305.563 1072.24 291.722 1073.42 281.936C1069.36 276.278 1067.5 270.232 1063.61 269.042C1057.49 267.172 1064.03 256.439 1053.09 260.81V250.636L1038.68 251.583C1039.7 247.382 1040.57 243.642 1041.14 241.263L1025.26 231.55C1025.63 228.49 1026.08 224.896 1026.73 219.603L1017.87 225.625C1017.51 222.711 1017.2 220.331 1016.83 217.49L1007.02 219.554C1008.48 212.124 1008.31 205.325 998.556 201.974L1000.87 194.373C993.423 193.426 987.248 185.558 988.009 177.594L977.858 180.022V167.881L966.578 171.96C966.888 168.585 967.114 166.327 967.367 163.486L960.402 162.757C960.994 160.329 961.474 158.265 962.151 155.472L952.507 157.439L957.3 143.258C946.021 143.695 940.691 139.057 940.973 129.004L935.728 130.073C932.541 117.762 915.227 116.377 910.997 105.062L904.511 108.85L905.442 101.055L884.462 92.9934C884.687 89.7153 884.997 85.7087 885.336 81.2164L877.806 80.8764L880.091 70.1677L865.455 72.4502C866.611 69.5605 867.937 66.1127 869.629 61.7904L862.241 62.2759L865.061 53.1213L854.091 57.9778L857.39 49.0663L848.62 54.3355C848.818 50.8631 848.987 48.4104 849.213 45.1323L837.256 50.3774C837.953 47.625 838.313 44.8172 838.327 42C837.935 39.6753 836.974 37.4487 835.507 35.4679C833.646 32.8453 831.193 30.6115 827.809 26.7748L824.228 27.0176L825.666 25.3422L811.2 15.872L805.56 19.0528C810.072 10.1168 804.432 5.40608 797.1 0.282458H861.395C879.583 0.282458 897.772 0.112481 915.96 0.282458C923.32 0.282458 934.854 -0.834551 937.11 2.39503C942.467 10.0198 949.799 8.0043 956.567 9.6798C958.005 10.044 958.4 13.4678 960.318 15.3861C959.383 19.9671 960.47 24.6835 963.366 28.6099C966.261 32.5363 970.756 35.3896 975.968 36.6094C977.801 37.1436 978.788 39.7417 980.96 42.2185L988.235 38.6976C997.992 40.7859 996.102 51.7616 1005.75 53.777C1004.9 60.5761 1013.13 60.8918 1016.49 64.7528C1017.67 66.1369 1020.75 66.3069 1023.63 67.181C1023.23 68.2495 1022.47 70.3862 1021.26 73.6886L1026.42 71.916C1027.4 77.6224 1027.01 83.5716 1029.63 88.2581C1031.69 91.9005 1037.56 93.9645 1042.26 97.0727C1042.07 98.2383 1041.73 100.327 1041.25 103.241L1049.34 101.492C1049.34 102.172 1049.77 102.707 1049.62 103.095C1047.54 108.437 1047.79 108.34 1052.44 117.665C1054.1 121.856 1055.33 126.162 1056.14 130.534L1062.37 128.446L1060.62 137.26C1065.3 138.523 1070.13 139.689 1066.94 145.59C1066.75 146.058 1066.7 146.558 1066.78 147.048C1066.86 147.538 1067.08 148.004 1067.42 148.406C1078.53 154.307 1078.5 165.574 1084.34 173.976C1090.88 183.373 1098.04 192.455 1104.92 201.658C1106.08 203.236 1108 204.766 1108.17 206.514C1109.32 217.077 1119.45 221.351 1126.92 227.737C1131.09 231.283 1132.56 237.062 1135.38 241.894C1136.45 243.812 1137.16 245.852 1137.97 247.698L1151.71 245.682C1154.08 249.352 1156.71 252.895 1159.57 256.294C1164.71 261.806 1170.23 267.044 1176.1 271.98C1178.92 274.19 1183.09 274.967 1185.4 277.128C1188.59 280.504 1192.07 283.669 1195.81 286.598C1201.45 290.459 1207.77 293.543 1213.63 297.137C1216.85 299.104 1219.75 301.459 1224.07 304.422C1223.64 305.539 1222.68 308.185 1221.47 311.561C1228.63 312.022 1230.66 315.834 1228.75 321.492C1236.11 320.691 1239.58 323.92 1244.59 327.514C1250.43 331.861 1251.67 337.592 1256.13 341.914C1257.03 342.812 1259.68 342.424 1261.43 342.594L1265.57 354.541L1271.75 351.578C1269.89 359.762 1273.87 365.104 1278.77 371.004C1286.27 380.256 1298.17 387.468 1299.27 400.143C1299.27 400.945 1300.8 401.746 1301.73 402.402C1307.14 406.335 1312.58 410.221 1318.42 414.397C1317.02 422.588 1319.27 430.931 1324.71 437.757C1332.46 448.223 1337.82 460 1344.19 471.194C1338.22 480.13 1350.09 483.724 1352.17 490.378C1354.26 497.031 1359.7 502.519 1362.64 508.759C1365.14 514.615 1367.03 520.654 1368.28 526.801C1369.46 531.852 1372.9 533.528 1376.74 533.333C1381.33 546.567 1385.76 559.388 1390.22 572.185L1391.94 570.898C1394.39 573.497 1398.7 576.022 1398.9 578.766C1399.44 586.269 1405.36 591.66 1407.64 598.362C1409.11 602.684 1410.63 607.007 1412.58 612.64C1418.39 620.848 1425.63 630.318 1431.98 640.225C1436.04 646.539 1439.08 653.143 1443.65 659.384C1448.73 666.559 1454.76 673.201 1461.62 679.174C1463.31 680.607 1462.46 684.274 1462.8 686.896C1472.13 687.892 1471.01 695.177 1471.26 699.693C1471.22 701.652 1471.81 703.582 1472.97 705.27C1474.12 706.958 1475.79 708.339 1477.8 709.26C1481.21 711.3 1485.05 713.461 1481.81 718.075C1477.35 724.413 1488.24 726.744 1486.18 732.644L1498.08 731.406C1496.39 735.146 1495.06 738.06 1493.4 741.653C1500.84 742.77 1495.48 758.117 1509.84 751.585C1511.59 754.826 1513.54 757.987 1515.67 761.055C1518.3 763.943 1521.12 766.692 1524.13 769.287C1525.21 780.141 1527.6 781.428 1540.15 774.508V785.945H1548.22C1549.8 788.373 1551.6 790.607 1553.01 793.23C1554.42 795.852 1555.21 798.086 1556.51 800.976L1568.43 799.203C1566.04 804.837 1564.01 809.669 1561.13 816.468L1574.81 813.165C1575.26 820.256 1580.45 820.936 1585.35 819.795C1591.84 824.457 1597.31 828.415 1602.84 832.349C1603.26 832.664 1604.53 832.64 1604.56 832.81C1605.4 844.951 1616.77 838.929 1623.65 840.969C1622.83 844.49 1620.46 848.497 1621.79 851.143C1622.75 853.11 1628.53 853.28 1632.28 854.3C1635.1 860.371 1638.17 866.927 1641.22 873.483L1652.19 868.797L1654.08 881.181L1666.68 888.927C1670.52 888.49 1675.99 888.927 1676.3 896.212C1676.3 898.082 1679.37 899.781 1680.78 901.7C1682.53 904.128 1684.02 906.556 1686.22 909.98C1692.23 903.521 1699.14 908.207 1706.16 910.587C1713.18 912.967 1720.26 915.978 1724.24 922.607C1727.62 928.314 1731.96 933.631 1736.81 940.455L1742.45 938.196C1742.28 939.92 1742.06 941.815 1741.8 944.146L1761.29 941.256C1764.11 948.541 1766.93 956.457 1769.98 964.616L1776.35 962.188V968.622L1782.86 965.49C1782.72 967.627 1782.61 969.351 1782.44 971.755L1793.18 967.7C1792.28 973.528 1791.6 978.02 1790.87 982.974L1796.76 980.982L1793.58 988.631C1797.27 988.898 1801.39 990.355 1803.67 989.165C1808.21 986.737 1808.81 992.905 1812.13 991.23C1809.31 1000.94 1818.99 995.26 1822.2 997.082C1823.75 1001.28 1825.19 1005.19 1826.8 1009.51C1833.56 1011.68 1842.93 1011.26 1846.54 1019.79C1853.7 1017.77 1859.93 1017.6 1862.58 1025.59C1863.17 1027.43 1866.9 1028.33 1868.59 1030.11C1870.11 1032.02 1871.43 1034.05 1872.51 1036.18C1874.13 1039.32 1876.12 1042.31 1878.43 1045.11C1882.21 1048.51 1886.24 1051.68 1890.5 1054.63L1897.07 1052.79L1893.21 1060.8L1902.34 1059.54C1902.78 1060.37 1903.14 1061.23 1903.41 1062.11C1905.47 1071.99 1907.19 1073.23 1918.39 1073.09C1920.87 1073.09 1923.35 1073.33 1925.83 1073.47V1086.42L1720.6 1086.51Z" fill="black"/>
<path d="M346.897 1086.51L345.712 1081.42L326.424 1077.53L326.988 1075.51L321.884 1081.1L320.051 1074.83L316.441 1077.77L315.229 1072.36C313.198 1074.62 311.817 1076.19 311.591 1076.41L295.461 1070.25L292.641 1071.99L293.008 1069.57C289.877 1068.64 286.663 1067.87 283.617 1066.77C277.272 1064.56 268.643 1067.82 264.273 1060.46C263.568 1059.29 259.704 1059.49 256.461 1058.91C252.006 1055.07 246.394 1050.48 241.036 1045.65C233.62 1038.95 226.937 1031.66 218.872 1025.49C215.883 1023.06 209.51 1024.11 207.902 1019.49C204.039 1008.37 192.844 1000.07 192.28 987.49C192.026 982.488 188.304 977.583 187.035 974.669C183.341 971.124 179.957 969.278 179.026 966.753C174.007 953.179 166.139 940.844 158.695 928.241C153.732 919.839 150.235 910.83 144.905 900.025C155.085 906.727 163.629 911.607 171.13 917.484C182.41 926.347 192.9 936.06 204.124 945.069C209.425 949.318 210.44 957.574 220.338 957.938C221.353 957.938 222.115 962.989 224.004 964.543C227.952 967.967 232.182 971.197 235.791 974.888C240.529 979.744 244.787 984.892 249.299 989.894C249.482 990.081 249.711 990.23 249.97 990.33C250.228 990.431 250.51 990.481 250.793 990.477C262.073 988.777 267.713 997.227 276.173 1000.97C282.235 1003.71 288.157 1006.75 294.897 1010.02C296.138 1004.54 300.791 999.267 292.077 995.455C291.259 995.091 290.977 993.682 290.667 992.711C288.58 986.203 286.578 979.696 284.632 973.455C278.147 970.808 272.027 970.225 267.093 963.985C260.607 955.753 249.299 950.386 240.19 943.66C233.281 938.512 226.57 933.17 219.746 927.925L204.49 916.124C196.538 916.124 191.349 910.417 190.701 900.583C178.688 893.492 168.141 886.863 157.313 880.963C144.397 873.994 139.886 861.78 132.187 851.824C127.563 845.777 126.717 837.57 124.151 830.334C122.825 826.594 121.33 822.879 119.949 818.702L116.255 819.309C117.862 813.7 114.817 808.722 111.066 802.967C106.921 796.557 97.5304 792.186 99.4762 783.031C99.4762 782.4 96.2332 781.428 94.795 780.336C91.6367 777.907 86.5324 775.649 86.1376 772.881C85.4045 768.17 84.8971 765.014 78.6087 764.406C78.0657 762.507 77.791 760.559 77.7908 758.603L73.3072 758.919C73.3072 748.526 62.6758 743.426 58.2485 735.437C54.7518 729.148 54.329 721.572 52.4114 713.996L51.5935 714.166C50.099 711.276 48.7736 708.678 47.3919 705.982C45.7331 702.647 44.2929 699.234 43.0776 695.76C40.0603 686.047 35.7737 676.504 34.9841 666.621C34.4765 660.04 35.3791 654.018 30.9518 647.85C29.0625 645.179 31.685 640.274 31.685 636.413C31.4846 633.982 30.3541 631.676 28.4703 629.857L25.6503 615.53L21.7024 614.971L24.5223 606.23L16.0625 609.338L20.2924 596.614L14.9063 599.965L10.761 575.294C2.66785 578.426 -0.0675783 574.954 -0.264973 568.64C-0.264973 566.504 -0.744141 564.342 -0.744141 562.206C-0.744141 481.49 -0.744141 400.775 -0.744141 320.06C-0.744141 318.263 -0.518767 316.466 -0.264973 312.338C7.87099 326.298 20.124 338.172 35.2664 346.771L34.0254 351.312L39.2705 351.846C44.9103 365.59 52.7216 378.022 54.8647 391.111C57.4309 406.676 70.9947 417.821 73.5327 432.828C73.5327 433.095 73.5328 433.557 73.702 433.605C84.9817 436.835 83.2052 448.563 91.3548 453.857C92.0316 454.318 93.0467 454.949 93.0467 455.508C93.0467 466.751 100.096 475.395 106.187 484.647C110.013 490.291 112.863 496.385 114.647 502.738C119.61 521.872 125.024 540.837 134.076 558.952C137.189 565.26 139.578 571.815 141.211 578.523C141.791 582.463 141.858 586.446 141.409 590.398C142.649 593.239 143.495 595.108 144.228 597.002C151.053 612.786 158.187 628.57 164.56 644.378C167.718 652.269 174.43 658.607 174.43 668.15C174.43 674.731 176.94 683.91 189.657 684.808C189.319 690.927 187.937 696.755 189.009 702.219C190.588 710.426 191.659 719.896 197.186 725.967C202.713 732.038 202.601 738.546 205.195 744.738C210.835 758.554 221.212 770.089 230.575 781.963C234.269 786.674 241.854 788.956 247.494 792.696C252.119 795.828 256.123 799.665 260.748 802.797C261.904 803.574 264.385 802.797 265.683 802.797C267.415 805.508 269.445 808.069 271.745 810.446C279.705 817.881 288.251 824.835 297.322 831.256C309.279 838.978 322.504 845.17 334.996 852.309C349.716 860.735 359.022 873.241 369.174 885.358C375.998 893.517 380.454 903.181 390.351 909.64C396.894 913.963 399.404 922.874 406.002 927.027C419.143 935.331 421.709 949.707 433.271 958.594C435.527 960.342 435.64 964.155 437.332 966.583C453.49 980.886 465.052 998.15 480.505 1015.9C487.103 1016.05 487.78 1024.79 492.997 1029.72C498.214 1034.65 502.5 1039.43 507.097 1044.29C508.112 1045.33 509.916 1046.21 510.142 1047.27C511.411 1057.64 523.537 1061.45 528.331 1069.91C531.151 1074.76 537.947 1077.87 543.164 1081.51C545.977 1083.3 548.926 1084.92 551.99 1086.37L346.897 1086.51Z" fill="black"/>
<path d="M1925.72 744.738C1923.69 738.861 1921.97 732.887 1919.46 727.181C1918.75 725.554 1915.57 724.753 1913.82 723.417C1910.84 721.23 1908.19 718.734 1905.92 715.987C1903.1 711.956 1898.25 708.508 1895.97 705.254C1891.31 698.601 1880.12 699.256 1877.95 690.903C1877.5 689.13 1872.31 688.669 1870 686.823C1866.02 683.375 1863.28 678.762 1859 675.727C1853.36 671.647 1850.54 666.208 1847.27 660.938C1846.7 660.064 1845.97 658.51 1845.18 658.51C1835.56 657.515 1836.19 651.492 1835.31 645.422C1834.8 641.877 1831.31 638.647 1828.91 634.956L1821.94 637.093C1820.65 632.746 1819.35 628.424 1817.88 623.568L1811.82 626.312C1813.46 616.599 1813.15 607.93 1802.85 601.422C1801.89 598.217 1800.6 593.991 1799.1 589.086L1790.93 593.02C1788.06 582.817 1782.92 573.193 1775.78 564.682C1774.65 562.782 1773.87 560.742 1773.47 558.636L1766 559.996C1772.79 550.72 1753.22 550.55 1758.38 541.104C1758.36 538.806 1757.38 536.592 1755.64 534.853C1753.89 533.115 1751.49 531.966 1748.85 531.609C1743.21 530.978 1741.55 524.786 1742.11 519.468C1742.59 514.879 1741.1 511.455 1734.22 511.625C1734.67 508.468 1735.15 505.384 1735.63 501.912H1724.54L1727.53 494.797L1720.54 497.225L1726.18 484.186L1715.35 489.042C1716.65 486.104 1717.75 483.554 1718.85 481.004L1717.72 480.228L1712.08 483.943C1716.62 477.921 1714.2 471.802 1711.43 465.148L1700.15 467.358V449.656L1687.49 444.168C1693.13 434.285 1682.22 438.219 1677.4 436.883C1678.64 430.448 1679.88 424.159 1681.51 415.903L1672.09 421.391L1675.82 409.93L1669.08 413.96V400.071L1663.83 401.455L1668.17 392.252L1659.38 396.234L1663.01 384.87L1655.09 389.217C1657.15 384.7 1658.5 381.689 1660.31 377.707L1653.68 378.994C1653.99 377.44 1654.3 375.934 1654.69 373.918L1651.34 373.724L1644.66 350.874L1638.45 351.506C1638.96 348.543 1643.89 343.517 1634.73 344.901C1635.52 342.327 1636.28 339.85 1637.55 336.013L1630.39 339.17C1631.09 332.662 1628.24 329.02 1620.35 328.607C1617.84 328.607 1615.55 325.96 1612.99 324.819C1611 324.144 1608.94 323.624 1606.84 323.265C1608.42 318.409 1604.92 315.47 1598.61 313.382C1596.84 312.99 1595.28 312.105 1594.16 310.866C1593.04 309.627 1592.44 308.103 1592.43 306.534C1591.71 301.891 1589.03 297.639 1584.9 294.587C1581.66 292.159 1580.62 287.06 1572.49 287.982C1568.07 288.492 1561.86 280.091 1557.21 275.186C1555.55 273.413 1556.14 270.062 1555.52 266.419L1548.89 270.523L1524.33 248.499L1519.62 251.364C1520.41 243.254 1518.69 237.742 1509.95 239.709L1492.86 219.579C1486.46 216.932 1480.76 215.305 1476.17 212.415C1471.57 209.525 1468.5 205.495 1463.62 200.929C1466.44 192.188 1456.82 187.744 1449.97 182.038C1449.38 181.528 1447.82 181.236 1447.85 180.945C1448.9 172.786 1439.59 173.005 1435.45 169.095C1432.9 166.021 1431.39 162.397 1431.1 158.629C1430.57 155.4 1431.61 151.49 1426.17 151.539C1418.38 151.539 1413.48 148.285 1408.83 143.453C1403.78 138.184 1403.92 132.598 1406.71 125.022L1393.94 134.735C1394.25 130.923 1394.44 128.155 1394.67 125.386C1386.21 126.333 1380.34 119.826 1375.8 117.373C1366.19 112.128 1369.43 101.128 1360.27 96.7329C1357.45 95.3488 1354.23 94.3048 1350.4 92.7022C1351.02 90.2739 1351.86 86.8501 1352.85 82.9892H1346.22V75.5343L1340.08 76.0444L1341.34 74.6358C1339.34 72.8389 1337.68 70.0221 1335.28 69.4636C1328.63 67.8853 1328.82 62.1789 1326.54 58.5851C1323.35 53.7286 1320.9 52.1744 1314.53 55.1612C1314.27 51.3245 1314.1 48.7506 1313.93 45.8124L1306.86 47.8038C1307.96 44.1857 1308.83 41.2231 1310.07 37.1194L1304.18 39.7904C1304.57 37.1436 1304.88 34.9339 1305.28 32.2629C1297.13 34.8854 1300.23 29.6645 1299.92 26.9934C1286.24 26.6778 1283.76 24.1283 1287.23 13.8325C1289.06 8.41747 1286.07 7.15462 1280.52 7.90738C1280.74 3.05087 1281.93 -0.154297 1288.5 -0.154297C1327.98 -0.0086015 1367.46 -0.154297 1403.35 -0.154297C1410.8 6.74195 1416.35 11.6956 1421.63 16.8435C1424.76 19.9274 1426.93 23.8612 1430.45 26.5565C1437.49 31.7561 1444.85 36.6199 1452.51 41.1261C1457.75 44.2585 1465.08 49.9892 1464.83 58.4638C1464.6 65.7486 1470.07 71.2365 1476.53 75.753C1479.66 77.9384 1482.68 80.2451 1487.47 83.7661C1492.01 93.9162 1506.25 93.4792 1517.65 97.8015C1518.32 106.373 1527.18 109.724 1534.14 114.435C1535.44 115.309 1537.47 116.353 1537.61 117.422C1538.54 126.261 1543.25 121.526 1545.68 120.044L1564.54 133.497L1571.73 128.98C1573.54 130.85 1575.34 133.06 1577.51 134.954C1579.04 136.289 1581.21 138.28 1582.87 138.135C1593.67 137.236 1600.89 140.757 1606.36 151.806C1608.59 148.163 1610.34 145.322 1612.85 141.17C1615.47 147.242 1618.52 153.17 1621.98 158.921C1623.08 160.499 1627.31 160.475 1630.44 161.349C1631.26 168.852 1637.69 172.835 1648.41 170.916C1650.13 175.214 1651.87 179.658 1653.82 184.612L1664.06 185.704C1665.44 192.528 1666.17 191.629 1671.84 195.029C1675.48 197.19 1676.55 202.508 1678.97 206.806L1683.57 206.393C1684.61 214.601 1698.29 221.254 1708.33 217.733C1709.26 220.938 1710.13 224.022 1710.81 226.378L1723.98 227.058C1723.42 229.607 1722.97 231.671 1722.51 233.76C1729.25 236.018 1735.12 238.859 1734.72 246.484C1740.36 247.333 1743.58 249.762 1743.64 255.808C1743.64 259.183 1746.46 262.68 1748.63 265.861C1750.37 268.8 1752.7 271.454 1755.51 273.704C1758.58 275.89 1759.6 277.541 1758.13 280.989C1757.88 282.008 1757.94 283.065 1758.29 284.061C1758.64 285.058 1759.27 285.964 1760.13 286.696C1766.11 289.124 1766.25 293.98 1767.04 298.23C1767.83 302.479 1777.76 302.576 1770.26 308.331L1777.87 310.323L1776.21 311.221L1785.54 324.455L1787.65 323.678L1785.77 330.696L1794.22 330.38C1795.61 334.751 1796.85 338.612 1798.37 343.42L1804.72 343.978C1806.83 348.495 1800.94 356.119 1810.92 356.556V377.245H1818.22C1816.42 380.645 1814.67 383.923 1812.58 387.954L1819.58 388.367C1818.5 391.378 1817.4 394.389 1816.05 398.08H1825.07C1823.19 402.523 1821.61 406.19 1819.75 410.464L1826.74 410.148L1823.92 419.011L1832.38 420.201C1830.91 427.486 1829.56 434.771 1827.84 443.027L1832.35 444.435C1829.53 450.409 1833.11 453.59 1840.61 454.148C1836.75 461.433 1836.69 467.455 1843.43 473.574C1846.25 476.197 1845.8 481.612 1846.9 486.08C1851.33 486.371 1862.69 497.638 1865.34 502.835C1869.53 511.164 1874.64 519.125 1880.6 526.607C1884.8 531.852 1892.36 535.13 1887.85 543.459C1886.69 545.621 1888.95 549.846 1890.89 552.42C1899.35 563.662 1904.09 575.269 1899.35 588.843C1898.31 591.903 1900.09 595.788 1901.02 599.188C1902.54 604.918 1905.67 610.528 1905.87 616.186C1906.18 624.879 1911.22 631.823 1914.33 639.472C1915.02 641.399 1915.39 643.404 1915.4 645.422C1915.4 648.232 1916.36 650.98 1918.15 653.327C1919.94 655.674 1922.5 657.518 1925.49 658.631L1925.72 744.738Z" fill="black"/>
<path d="M1925.72 997.422C1922.22 994.119 1914.61 1000.14 1912.47 992.735C1911.28 988.559 1908.01 984.844 1905.44 980.594L1899.8 983.921C1897.89 981.711 1896.19 978.287 1894.81 978.384C1887.54 978.821 1883.9 974.062 1881.45 970.347C1877.05 963.645 1870.65 963.281 1863.09 963.548C1862.55 961.338 1862.1 959.347 1861.37 956.263L1849.36 959.735C1851.24 949.027 1846.54 944.413 1833.82 943.005C1830.24 942.616 1827.11 939.119 1823.81 937.007C1821.61 935.598 1819.49 934.069 1816.81 932.15V923.409L1802.12 919.936C1798.99 922.51 1795.38 923.044 1790.84 917.824C1788.59 915.395 1782.81 915.08 1778.46 913.744C1777.19 902.55 1767.66 894.051 1761.54 895.484C1756.92 893.42 1754.49 892.278 1751.98 891.234C1750.66 890.676 1748.37 890.603 1747.98 889.777C1746.54 886.888 1745.5 884.047 1740.76 885.164C1740.06 882.492 1739.38 879.846 1738.39 876.106C1738.73 876.106 1737.46 875.232 1736.64 875.451C1725.62 878.413 1721.89 870.06 1715.69 865.568C1709.49 861.075 1704.16 856.025 1702.83 847.914C1701.82 841.601 1688.42 835.773 1684.59 836.453C1673.79 826.507 1665.11 814.999 1658.95 802.457L1660.9 800.029C1664.8 802.141 1668.92 803.945 1673.19 805.42C1683.21 807.848 1689.95 817.561 1702.8 814.623C1706.84 813.7 1712.19 817.197 1716.9 818.532C1721.3 820.036 1725.86 821.143 1730.52 821.835C1737.52 822.442 1744.09 822.927 1750.52 826.254C1753.9 828.002 1759.54 826.57 1764.98 826.57C1765.18 827.711 1765.58 830.018 1765.86 831.62L1786.5 841.844L1793.32 839.779C1793.52 846.748 1797.3 849.954 1805.48 848.618C1807 848.324 1808.59 848.487 1809.99 849.08C1821.58 855.175 1835.11 856.364 1847.52 860.225C1853.92 862.241 1855.45 858.841 1853.67 855.126C1851.38 850.435 1848.08 846.159 1843.94 842.523C1840.36 839.391 1833.06 838.493 1831.17 835.093C1826.46 826.594 1815.38 824.214 1810.13 816.687C1809.96 816.444 1809.96 816.031 1809.74 815.958C1800.37 813.166 1795.02 804.4 1783.57 803.987C1778.41 803.793 1773.39 799.543 1768.45 796.897C1757.17 790.802 1745.58 784.755 1734.44 778.296C1731.59 776.38 1729.35 773.874 1727.93 771.011C1722.74 761.832 1712.79 757.486 1703.62 752.119C1700.75 749.982 1698.28 747.466 1696.32 744.665C1690.82 738.805 1685.68 732.71 1680.89 726.404C1678.43 722.407 1675 718.912 1670.83 716.157C1664.65 712.248 1661.15 705.06 1656.73 699.159C1644.63 682.647 1632.39 666.183 1620.94 649.331C1620 647.576 1619.49 645.676 1619.42 643.744C1619.35 641.813 1619.73 639.89 1620.55 638.089C1621.46 636.436 1621.81 634.593 1621.54 632.776C1621.28 630.96 1620.41 629.247 1619.05 627.841C1613.05 619.804 1607.77 611.305 1602.13 603.049C1601.12 601.543 1599.31 600.426 1598.21 598.921C1595.67 595.181 1591.61 591.418 1591.33 587.508C1590.71 579.106 1589.56 571.36 1582.51 564.998C1582.04 564.455 1581.71 563.838 1581.53 563.184C1581.34 562.53 1581.31 561.85 1581.43 561.186C1582.31 556.912 1583.21 552.76 1578.61 549.457C1584.25 545.596 1578.47 541.323 1579.12 537.316C1579.32 536.005 1578.11 533.455 1577.09 533.285C1568.63 531.755 1571.23 525.806 1570.13 521.314C1568.32 514.029 1566.43 506.598 1564.49 499.241C1564.16 498.213 1564.06 497.144 1564.18 496.084C1567.7 479.766 1558.87 464.274 1559.86 448.029C1560.14 443.172 1555.89 438.049 1553.01 431.468C1554.79 424.596 1552.53 416.559 1548.5 408.351C1544.24 399.731 1541.62 390.552 1538.29 381.64C1538.09 381.13 1538.29 380.378 1537.89 380.086C1525.77 370.373 1526.33 356.799 1521.51 344.731C1517.45 334.605 1515.34 323.338 1506.57 314.548C1503.75 311.634 1503.75 306.607 1501.94 302.746C1499.68 297.89 1496.92 293.228 1494.3 288.517C1493.21 287.188 1492.26 285.774 1491.48 284.292C1488.83 275.671 1486.4 267.027 1483.3 256.27C1486.71 259.572 1488.55 261.49 1490.52 263.263C1499.97 271.81 1508 282.349 1519.28 288.322C1532.42 295.267 1539.9 305.636 1549.43 314.863C1553.04 318.36 1557.32 321.371 1560.57 325.086C1565.92 331.205 1570.13 338.126 1575.91 343.905C1578.41 346.06 1580.32 348.677 1581.47 351.559C1582.63 354.44 1583.01 357.511 1582.59 360.539C1582.11 364.691 1587.44 369.183 1589.56 373.749C1592.38 379.916 1594.94 386.254 1597.17 392.64C1597.71 394.146 1596.41 396.113 1595.87 398.274L1602.44 398.857C1603.57 403.713 1592.57 410.051 1604.05 412.042C1606.7 416.049 1595.87 422.508 1608.39 422.654C1607.83 425.082 1607.26 427.704 1606.56 431.007L1613.81 429.283L1612.51 435.378H1618.94C1624.58 439.87 1612.31 447.519 1623.7 450.7C1621.79 460.413 1624.38 465.099 1632.62 466.824L1635.92 485.035L1644.06 481.393C1646.88 485.108 1637.33 491.47 1648.29 492.757C1646.77 495.938 1645.47 498.367 1644.26 501.111L1649.31 502.64C1651.26 506.21 1641.19 512.791 1652.36 513.106C1653.23 519.687 1653.99 525.612 1654.78 531.561C1656.22 535.665 1665.38 531.367 1665.33 537.777C1665.33 542.172 1662.31 546.543 1659.88 552.978L1671.16 549.117C1670.06 552.201 1669.25 554.556 1668.09 557.883L1673.96 556.256L1669.61 564.245L1676.04 565.775C1675.39 567.936 1674.75 570.073 1673.76 573.4L1681.99 569.15L1678.75 578.693L1685.24 580.49L1684.62 587.362L1692.12 585.59C1692.4 585.784 1692.88 586.051 1692.85 586.099C1688.39 593.603 1699.62 595.667 1700.04 601.616C1700.66 609.848 1707.15 614 1715.52 616.186C1719.1 617.108 1720.85 624.757 1725.48 619.221C1728.89 624.077 1731.12 631.872 1736.19 633.79C1744.65 636.85 1747.87 642.654 1752.46 647.947C1754.89 650.715 1756.69 653.896 1759.2 657.49L1762.64 656.64L1774.6 674.051L1786.13 670.846L1789.54 678.13C1791.18 675.435 1792.14 673.808 1792.59 673.104C1796.06 676.407 1799.33 679.685 1802.83 682.817C1805.65 685.245 1807.31 691.68 1813.29 686.192C1820.31 694.472 1831.45 697.435 1842.33 698.746C1851.72 699.863 1859.65 700.203 1864.3 708.897C1865.6 711.325 1871.6 711.835 1877.39 713.923C1879.39 717.711 1882.43 723.636 1885.85 729.609C1886.27 730.314 1888.5 730.095 1889.45 730.751C1892.58 732.888 1901.41 730.751 1897.58 738.497C1897.27 739.152 1900.93 740.925 1902.2 742.528C1908.83 750.687 1914.67 759.526 1925.38 764.382L1925.72 997.422Z" fill="black"/>
<path d="M629.171 1086.51C629.171 1078.21 620.486 1073.62 611.406 1077.85L610.193 1068.3L608.727 1069.2C605.907 1066.77 602.918 1064.17 600.098 1061.58C595.67 1057.5 591.638 1053.13 586.788 1049.43C585.265 1048.25 581.994 1048.66 578.328 1048.17C577.877 1046.5 577.143 1043.73 576.241 1040.45C563.946 1041.98 561.154 1032.39 556.079 1025.88C553.851 1023.09 554.866 1018.81 549.057 1017.67C547.506 1017.36 546.942 1013.23 545.814 1010.61L540.992 1010.24C536.706 1003.93 533.181 998.102 529.007 992.832C524.834 987.563 520.294 982.901 514.908 976.854L510.057 977.389C508.281 972.119 506.645 966.753 500.639 968.38L479.659 950.702L477.797 952.062L478.615 947.205L466.264 935.064L458.368 938.367C458.183 934.545 457.684 930.739 456.874 926.978C454.392 918.892 452.418 910.441 442.069 906.265C440.687 905.706 441.279 902.185 440.067 900.534C437.247 896.6 433.158 893.25 430.648 889.146C428.872 886.28 428.815 882.638 426.616 880.841C422.329 876.786 415.139 873.071 414.434 868.7C413.193 861.196 406.538 861.973 401.659 858.987L404.479 854.325C401.659 851.896 399.798 848.545 397.147 848.035C382.738 845.364 379.664 832.762 370.02 826.181C360.376 819.6 350.957 812.826 341.397 806.172C340.523 805.541 338.577 805.08 338.577 804.497C338.098 795.901 329.554 796.799 323.491 794.249C315.549 790.49 307.866 786.339 300.48 781.817L293.882 785.945C293.12 783.322 292.585 781.428 291.936 779.121L285.365 782.618V775.333C282.856 773.682 280.797 772.128 278.513 770.866C275.693 769.287 272.112 768.437 269.828 766.422C265.541 762.682 261.988 758.336 258.125 754.28C255.096 750.718 251.759 747.357 248.143 744.227C246.817 743.207 243.489 744.057 240.529 744.057C237.934 729.294 234.579 714.554 221.889 702.777C219.436 700.519 219.266 696.537 217.715 693.453C215.713 689.519 213.034 685.804 211.286 681.773C209.648 677.81 208.338 673.753 207.366 669.631C204.546 658.17 195.015 648.335 196.086 635.83C196.086 634.252 193.831 632.528 192.59 630.973C191.039 628.909 189.601 626.797 187.852 624.854C181.536 617.788 180.774 609.896 182.213 601.325C182.428 598.358 181.43 595.419 179.393 593.02C173.143 586.04 169.921 577.4 170.284 568.592C170.284 561.525 167.464 554.435 167.013 546.228C170.538 549.263 173.527 553.148 177.729 555.163C183.792 558.077 189.234 560.991 191.829 566.795C192.336 567.888 193.69 569.223 193.408 570.024C191.124 577.309 198.653 580.223 203.221 581.413C205.857 581.937 208.238 583.153 210.037 584.893C211.835 586.633 212.961 588.811 213.26 591.126C214.444 597.002 218.505 599.503 224.06 602.223C229.616 604.943 234.099 609.702 239.373 613.15C243.518 615.87 248.537 617.303 248.537 623.276C248.537 625.194 253.218 627.137 255.756 629.031C263.144 634.543 275.214 639.205 276.849 645.762C279.274 655.475 287.396 659.409 293.036 665.795C296.307 669.486 300.17 675.119 304.315 675.508C311.619 676.091 306.318 680.364 308.404 681.797L309.786 680.51C312.888 682.938 315.426 686.751 319.205 687.625C323.265 688.62 325.324 694.91 331.218 691.194C331.935 691.059 332.677 691.049 333.399 691.166C334.12 691.283 334.808 691.524 335.419 691.874C335.955 698.528 343.71 699.329 347.63 703.141C348.786 704.283 350.619 705.982 351.775 705.812C358.712 704.744 365.536 703.19 373.911 701.514C377.154 703.943 373.714 718.196 387.334 708.993C393.764 715.015 398.614 723.174 407.609 718.706C412.601 721.135 415.646 722.859 418.889 724.413C421.117 725.554 423.542 726.453 425.629 727.74C427.715 729.027 429.154 730.969 431.269 731.916C435.893 733.98 440.744 735.68 445.594 737.355C447.465 737.942 449.418 738.309 451.403 738.448C452.841 738.594 455.492 737.914 455.661 738.303C460.906 749.448 479.489 746.121 484.34 757.874C484.791 758.991 488.598 759.088 490.995 759.695C497.875 767.587 505.094 775.843 512.652 784.415L521.111 779.826C520.576 784.852 520.181 788.737 519.843 792.258L532.56 796.095C531.799 799.349 531.179 801.947 530.417 805.152H538.398L537.749 812.267L547.28 809.353L556.643 827.759L566.315 821.324C565.948 826.181 565.666 830.018 565.272 835.263L577.82 831.572C581.655 839.901 585.716 848.837 589.974 857.676C590.739 858.931 591.806 860.032 593.104 860.905C603.03 868.627 604.751 878.826 605.145 889.413L614.987 891.647C616.171 899.684 617.046 907.309 618.568 914.861C619.041 917.646 620.59 920.213 622.967 922.146C624.985 923.35 626.529 925.054 627.396 927.032C628.262 929.009 628.409 931.167 627.818 933.219C627.879 933.832 628.121 934.421 628.521 934.931C628.921 935.44 629.465 935.854 630.102 936.132C635.375 936.982 634.134 940.042 634.811 943.417C636.249 950.289 636.165 957.234 642.312 963.62C648.883 970.516 652.041 979.866 656.581 988.17C656.919 988.777 656.073 990.307 656.384 990.453C670.483 997.033 669.778 1011.26 677.392 1021.27C686.444 1033.12 691.689 1047.08 699.133 1059.88C702.348 1065.39 707.114 1070.2 710.893 1075.49C713.543 1079.21 715.715 1083.16 718.112 1087L629.171 1086.51Z" fill="black"/>
<path d="M1065.75 1086.51C1065.92 1084.4 1066.12 1082.29 1066.37 1079.45C1059.89 1081.03 1059.49 1077.92 1061.01 1073.81C1051.12 1075.61 1047.99 1068.16 1042.35 1064.66C1039.09 1062.14 1036.32 1059.19 1034.14 1055.92C1031.66 1052.86 1029.49 1049.6 1027.26 1046.74C1018.8 1037.73 1010.03 1028.67 994.605 1030.25C995.733 1025.98 996.466 1023.16 997.199 1020.32L995.113 1020.95C993.299 1018.11 991.244 1015.39 988.965 1012.82C986.151 1009.88 982.809 1007.36 979.067 1005.34C975.131 1003.59 971.802 1000.97 969.416 997.755C967.029 994.54 965.67 990.84 965.475 987.028L958.284 989.457L952.363 973.527L948.499 974.474C948.33 974.134 947.71 973.527 947.879 973.26C949.966 969.788 948.189 968.161 945.482 965.126C941.675 960.828 940.632 954.563 938.968 949.026C938.404 947.157 939.645 944.874 938.348 943.66C933.666 936.885 929.296 929.94 924.248 923.384C919.2 916.828 912.686 911.898 908.541 905.05C909.5 901.675 910.486 898.324 911.361 894.949L909.048 895.653C907.159 892.059 906.059 887.859 903.211 884.945C898.163 879.845 902.929 872.196 895.372 867.364C891.903 865.154 892.552 858.549 890.465 854.3C887.251 847.987 883.19 841.989 879.186 835.335L872.643 838.273C872.15 838.135 871.676 837.948 871.233 837.715C872.418 832.713 867.99 829.192 866.806 824.87C866.214 822.781 868.498 820.134 863.45 820.013C862.858 820.013 862.689 814.428 861.871 811.538C861.138 809.11 860.546 805.589 858.515 804.545C853.862 802.117 852.368 799.494 854.483 795.318C857.303 789.975 853.186 787.304 849.04 784.512C846.775 782.739 844.647 780.84 842.667 778.83C836.125 779.17 833.474 774.823 832.036 768.073C831.049 763.435 827.27 759.258 824.31 754.11L819.318 754.669C821.659 748.501 818.867 745.198 812.41 742.673C809.03 741.229 806.046 739.184 803.654 736.672C801.262 734.161 799.517 731.24 798.535 728.103C797.577 725.675 793.6 724.315 790.076 723.247C783.449 713.752 772.395 708.507 762.92 701.393C755.785 696.099 741.545 696.536 741.093 684.735C741.093 683.861 739.035 683.035 737.907 682.306C728.432 675.362 718.844 668.514 709.708 661.278C708.918 660.647 710.554 655.79 711.794 655.547C715.669 655.001 719.622 655.001 723.497 655.547C726.486 655.814 729.475 657.49 732.295 657.223C744.111 656.13 753.614 661.594 763.935 664.775C764.527 664.945 765.091 665.454 765.627 665.406C773.579 664.702 780.121 667.591 787.115 670.408C794.616 673.419 803.329 674.075 811.169 676.552C823.238 680.412 835.025 684.808 848.364 683.836C850.197 683.836 852.17 685.318 854.003 686.119C857.444 687.6 860.997 690.465 864.324 690.296C874.11 689.834 877.775 696.123 882.908 700.956C883.892 702.168 885.058 703.262 886.376 704.209C896.387 709.746 906.792 714.772 916.408 720.746C919.821 722.883 921.682 727.084 923.712 730.459C924.542 732.054 926.058 733.309 927.94 733.961C929.823 734.613 931.926 734.611 933.808 733.956C933.385 744.956 950.079 759.865 959.553 755.81C959.553 756.854 959.553 758.238 959.892 758.384C968.352 762.026 963.614 769.554 966.547 774.604C971.482 783.128 981.38 789.174 983.466 799.203C992.265 796.483 990.149 804.569 993.477 807.192C998.366 811.465 1002.31 816.467 1005.12 821.956C1006.82 824.967 1006.11 828.973 1006.36 831.377C1008.65 833.517 1010.69 835.852 1012.43 838.346C1014.8 842.814 1016.09 847.744 1018.69 852.115C1020.24 854.737 1023.9 856.388 1025.74 858.962C1031.38 866.854 1034.99 876.106 1042.09 882.662C1048.18 888.271 1040.82 891.889 1042.49 895.362C1046.69 896.624 1050.44 897.547 1053.99 898.883C1060 901.141 1058.53 905.269 1058.25 909.786C1058.27 913.73 1059.85 917.55 1062.73 920.616C1067.25 925.326 1071.19 929.6 1067.25 936.691L1077.43 935.792L1076.24 937.273C1079.54 940.212 1082.67 943.344 1086.22 946.039C1096.2 954.124 1105.18 963.075 1113.01 972.75C1118.48 978.991 1122.38 987.32 1133.15 990.477C1138.36 992.031 1140.99 999.534 1145.19 1004.07C1149.39 1008.62 1154.86 1012.82 1158.84 1017.7C1161.97 1021.98 1164.58 1026.53 1166.62 1031.27C1168.03 1034.14 1168.28 1037.41 1169.72 1040.28C1172.54 1045.87 1175.84 1051.26 1178.58 1056.09C1179.31 1056.09 1183.12 1056.4 1183.15 1056.74C1183.62 1070.95 1199.16 1076.17 1206.55 1086.25L1065.75 1086.51Z" fill="black"/>
<path d="M1925.72 568.179C1924.19 566.892 1921.09 565.144 1921.4 564.415C1925.41 554.459 1920.73 544.771 1917.77 536.126C1911.87 518.958 1902.09 502.762 1894.28 486.031C1891.99 481.175 1892.05 475.274 1889.14 470.733C1880.68 457.159 1882.18 441.06 1873.86 427.437C1872.87 425.835 1874.71 422.945 1875.47 419.57L1869.97 421.197V403.179L1863.62 402.329C1863.99 399.901 1864.33 397.472 1864.72 394.826L1858.01 395.36C1856.77 392.81 1855.76 390.698 1854.74 388.561L1852.15 388.828C1853.44 385.647 1854.74 382.49 1856.23 378.751H1847.77C1842.64 366.075 1832.12 354.638 1836.81 339.899L1827.39 339.535C1833.65 331.934 1826.79 328.413 1822.85 323.654C1819.62 319.122 1816.79 314.391 1814.39 309.497C1812.75 306.68 1811.06 303.887 1809.62 301.022C1806.97 295.68 1804.71 290.192 1801.87 284.947C1799.02 279.702 1795.8 274.87 1792.5 269.965C1790.87 267.537 1788.7 265.375 1785.51 261.612C1782.32 254.497 1778.15 245.44 1774.23 236.309C1773.33 234.197 1773.81 231.453 1772.74 229.559C1770.26 224.848 1770.42 219.142 1762.78 216.592C1755.14 214.042 1752.55 207.704 1755.59 201.124C1758.41 195.272 1759.57 192.868 1749.75 192.576C1741.97 192.334 1735.46 187.088 1732.04 180.241C1731.34 178.832 1730.13 176.526 1729.22 176.501C1720.46 176.501 1719.75 170.843 1717.24 167.177C1713.43 164.991 1708.78 163.364 1705.96 160.523C1700.57 155.424 1696.26 149.523 1691.21 144.133C1688.77 141.789 1686.17 139.567 1683.43 137.479C1681.15 135.488 1678.92 133.424 1677.79 132.38L1652.41 123.638V119.899L1622.43 105.912L1617.81 109.384C1617.02 108.583 1616.4 108.243 1616.29 107.83C1615.44 103.945 1618.74 96.806 1608.14 100.885C1606.76 101.42 1603.54 98.0442 1600.97 96.8058C1599.16 96.1408 1597.27 95.6443 1595.33 95.3246C1591.25 88.4769 1590.01 78.7881 1577.32 76.7484C1575.76 76.5056 1573.85 73.3491 1573.82 71.5036C1573.62 62.4462 1569.73 59.6294 1559.41 61.7906C1560 54.7243 1556.84 48.8965 1551.57 47.8524L1552.89 40.859L1546.27 42.7771C1542.21 36.2937 1538.32 30.1502 1534.14 23.3511L1530.79 24.784L1534.42 15.8479L1516.01 17.5475C1515.79 13.9526 1516.08 10.3481 1516.88 6.81481C1517.79 4.24086 1521.03 0.306929 1523.26 0.282647C1559.55 -0.130157 1595.87 -0.00873224 1632.67 -0.00873224V7.27604C1636.93 8.58729 1641.53 8.87876 1644.18 10.9913C1653.62 18.4704 1663.92 25.5609 1670.88 34.7398C1674.91 40.034 1680.28 44.475 1686.59 47.7309C1689.41 49.2607 1690.31 53.0729 1692.23 55.7925C1693.34 57.5791 1694.63 59.2848 1696.06 60.8921C1702.52 67.6912 1708.75 74.7087 1715.8 81.0222C1718.4 83.4504 1723.64 81.6537 1726.41 86.3888C1728.35 89.7155 1736.5 93.5035 1739.86 92.4108C1749.05 89.4484 1752.6 95.9804 1757.45 98.7972C1764.59 102.925 1769.69 109.603 1776.29 114.581C1780.66 117.859 1786.89 119.437 1790.93 122.861C1797.55 128.616 1808.89 132.186 1806.12 143.234C1806.12 143.501 1806.12 143.914 1806.29 144.011C1813.71 148.746 1815.06 155.351 1812.5 163.971L1821.58 159.576C1820.11 168.464 1823.41 173.927 1832.18 178.007C1841.71 182.426 1842.53 191.872 1847.24 198.89C1850.06 202.217 1852.88 205.713 1855.92 208.821C1858.31 210.803 1860.88 212.607 1863.62 214.212C1863.82 216.009 1864.16 218.898 1864.53 222.419L1887.42 226.548C1886.29 234.391 1885 243.545 1883.47 254.06L1899.13 249.859V271.057L1906.8 267.391C1904.4 274.991 1905.78 281.086 1911.03 285.845C1915.04 289.06 1919.33 292.015 1923.86 294.684C1922.76 297.404 1920.64 300.172 1920.75 302.868C1920.92 306.85 1918.84 312.144 1925.83 313.989L1925.72 568.179Z" fill="black"/>
<path d="M1511.73 1086.51C1512.6 1084.09 1513.5 1081.46 1514.15 1079.57C1511.67 1078.5 1508.99 1077.31 1506.25 1076.19C1504.99 1075.66 1503.63 1075.34 1502.36 1074.81C1499.21 1073.47 1496.07 1072.09 1492.94 1070.66C1490.63 1069.57 1487.47 1066.92 1486.2 1067.48C1480.09 1070.25 1477.75 1064.42 1476.62 1062.98C1471.57 1056.72 1463.19 1056.67 1456.88 1053.27C1454.79 1052.15 1451.49 1050.14 1451.66 1048.83C1452.39 1043.32 1447.83 1042.71 1443.88 1040.72C1435.19 1036.35 1426.23 1032.41 1421.01 1023.99C1419.43 1021.56 1413.2 1020.93 1409 1019.76C1403.9 1018.13 1399.05 1015.97 1394.56 1013.33C1383.28 1007.33 1377.64 997.713 1369.18 990.04C1363.54 984.819 1354.63 981.517 1352.57 973.382C1351.38 969.941 1349.92 966.574 1348.2 963.305H1344.39C1344.81 960.221 1345.24 957.331 1345.66 954.442L1332.21 953.713C1331.81 951.455 1331.25 948.444 1330.52 944.559L1323.02 949.415C1323.52 942.397 1323.89 937.031 1324.2 932.684L1312.64 924.938L1310.02 926.25C1309.48 922.389 1309 918.746 1308.47 914.74H1304.66C1305.59 912.311 1306.35 910.393 1307.14 908.426C1298.68 907.6 1306.27 901.141 1301.19 898.713L1294.7 901.141C1293.41 893.687 1292.14 886.572 1291.15 880.938C1283.85 877.126 1284.78 871.225 1282.52 866.684C1280.27 862.144 1275.67 858.792 1271.24 854.057L1266.19 855.417C1267.35 851.629 1268.25 848.643 1269.58 844.247L1259.93 849.104C1257.51 840.848 1251.76 834.34 1245.83 827.614C1240.7 821.665 1237.74 814.331 1233.26 807.872C1230.92 805.043 1228.16 802.489 1225.05 800.272C1218.37 794.808 1209.74 790.777 1209.18 781.258C1209.01 778.514 1206.07 775.892 1204.27 772.978C1194.2 773.488 1191.58 771.351 1189.38 762.342C1188.93 760.545 1185.21 758.749 1182.58 758.093C1179.9 757.849 1177.2 758.047 1174.6 758.676C1174.26 756.247 1174.89 753.188 1173.42 751.391C1169.91 747.565 1166.14 743.916 1162.14 740.464C1158.73 734.466 1155.96 729.585 1152.66 723.733L1155.48 721.96C1164.99 723.296 1173.98 723.417 1181.91 725.991C1188.39 728.104 1193.58 733.13 1200.1 737.331L1205.73 733.592L1213.35 737.598C1213.04 739.444 1212.64 741.702 1212.16 744.616L1218.26 743.742C1220.57 746.874 1222.74 749.788 1225.05 752.872L1234.44 748.016C1234.72 751.488 1234.98 754.353 1235.2 757.122C1240.56 759.161 1248.63 757.34 1249.3 765.159C1258.83 764.26 1258.52 770.015 1259.48 775.528C1259.71 776.936 1263.99 777.956 1267.77 779.607C1268.99 779.17 1271.86 778.223 1275.64 776.936C1275.25 787.669 1285.6 790.923 1292.56 796.556C1294.54 798.398 1295.9 800.675 1296.48 803.137C1296.81 805.557 1296.81 808.002 1296.48 810.422L1311.76 807.362C1313.17 811.539 1314.36 815.06 1315.74 819.115L1322.14 816.517C1332.58 825.793 1332.58 825.792 1339.54 822.174C1338.92 827.492 1337.23 832.349 1338.24 836.744C1338.95 839.682 1343.54 841.94 1346.36 844.49C1351.42 845.956 1356.32 847.776 1361.03 849.929C1367.82 853.452 1374.21 857.517 1380.12 862.071C1386.07 866.927 1390.58 863.795 1396.11 865.155L1395.54 867.583L1412.46 871.444V883.318L1419.46 877.83C1420.28 881.302 1419.82 885.843 1422.28 887.689C1424.73 889.534 1430 888.587 1433.87 889.437C1437.34 890.258 1440.55 891.744 1443.26 893.784C1453.66 892.813 1459.81 899.15 1457.64 910.782C1462.88 910.952 1470.33 905.585 1472.47 914.351C1472.47 914.618 1473.97 914.788 1474.73 914.715C1482.54 913.963 1484.88 916.706 1482.09 922.971C1481.67 924.397 1481.41 925.852 1481.3 927.318L1489.34 928.095C1488.94 930.742 1488.57 933.267 1488.12 936.351H1494.86C1500.33 945.918 1503.97 956.894 1515.53 963.426C1515.95 963.719 1516.28 964.09 1516.51 964.511C1516.73 964.932 1516.84 965.391 1516.83 965.854C1515.93 973.479 1520.95 972.484 1527.46 970.104C1526.78 973.188 1526.28 975.422 1525.8 977.389L1537.98 984.673L1535.72 989.724C1538.63 992.457 1541.18 995.463 1543.31 998.684C1545.4 1002.79 1545.25 1008.13 1553.09 1007.28C1553.57 1007.28 1554.08 1008.93 1554.87 1009.56C1557.04 1011.29 1559.35 1012.87 1563.08 1015.59C1563.08 1016.39 1562.51 1019.35 1561.84 1023.94L1572.78 1017.24C1572.44 1022.38 1572.21 1026.08 1571.9 1030.81L1580 1027.68C1581.21 1033.92 1582.39 1040.16 1583.72 1047.1L1596.49 1043.07L1605.21 1063.71L1608.36 1062.64L1618.18 1070.29L1616.71 1075.15C1623.11 1077.94 1625.17 1084.86 1632.08 1086.15L1511.73 1086.51Z" fill="black"/>
<path d="M117.299 1086.51L110.362 1072.82L103.396 1077.34L89.9454 1068.88L85.4897 1072.24C84.7565 1071.51 83.9669 1071.02 84.0797 1070.8C86.0255 1066.31 83.6287 1062.74 81.7957 1058.66C78.9758 1052.62 78.2143 1045.99 76.4096 1039.62C75.7906 1037.39 74.8429 1035.24 73.5897 1033.21C71.9676 1033.31 70.3889 1033.7 68.9649 1034.38C69.3688 1036.51 69.9055 1038.61 70.5725 1040.69C70.6342 1041.8 70.5107 1042.92 70.2059 1044C68.7395 1043.34 67.3859 1043.12 67.3859 1042.64C65.4684 1035.88 64.1993 1029.09 52.4966 1033.85C50.2689 1034.77 44.8829 1032.46 42.6551 1030.32C35.6335 1023.65 23.4232 1022.36 19.0241 1012.72C17.8961 1010.29 13.0175 1008.83 9.63354 1007.33C-0.630998 1002.84 -1.11018 995.187 -1.08198 986.47C-0.856386 919.28 -1.08198 852.114 -1.08198 784.925V774.07C1.06116 774.847 3.17603 774.993 3.76821 775.892C7.57512 781.404 10.9871 787.11 14.5684 792.719C16.9935 796.508 18.4882 801.291 22.0977 803.816C27.3146 807.435 34.0823 809.377 40.6245 812.242C37.1842 819.527 41.3578 823.582 48.464 826.812C54.1039 829.24 59.2081 832.324 64.4813 835.262C65.2991 835.724 65.5246 836.938 66.0885 837.691C70.7132 844.392 73.5332 851.386 83.0081 855.878C92.4831 860.37 100.238 869.112 107.908 876.543C111.879 880.303 114.776 884.81 116.368 889.704C118.68 897.596 119.188 905.852 120.852 913.986C121.134 915.322 123.672 916.415 125.702 917.945L120.429 928.119L126.068 927.366L132.498 954.587C141.099 956.821 133.654 962.891 132.498 969.156L139.125 965.15L136.305 971.827L144.144 982.075C142.058 986.591 143.552 990.598 150.799 993.876C154.042 995.357 154.888 1000.75 157.172 1005.05L164.448 1003.71C167.944 1014.86 171.441 1026.03 174.994 1037.41L181.818 1034.62L181.029 1044.34C192.506 1041.54 194.001 1049.56 195.664 1055.04C197.61 1061.36 200.261 1064.56 208.072 1066.02C214.219 1067.19 219.831 1070.88 225.302 1074.08C232.042 1077.92 238.415 1082.24 245.041 1086.22L117.299 1086.51Z" fill="black"/>
<path d="M790.895 1086.51V1080.32L785.255 1081.78L768.59 1055.07C765.976 1053.09 763.5 1050.98 761.173 1048.75C756.351 1043.68 752.037 1038.24 747.074 1033.19C739.798 1025.59 732.241 1018.23 724.852 1010.73C720.228 1006.04 715.66 1001.31 711.091 996.572C709.963 995.382 708.271 994.143 708.046 992.856C705.818 983.143 699.586 975.227 693.128 967.117C689.716 962.746 689.181 956.651 687.686 951.285C686.614 947.448 686.756 943.32 685.289 939.653C682.469 932.83 678.606 926.347 675.955 919.499C673.925 914.327 673.755 908.596 671.584 903.472C669.235 898.991 666.472 894.679 663.322 890.578C661.938 889.043 660.974 887.258 660.502 885.357C660.502 880.331 659.853 876.421 654.072 873.216C652.195 871.983 650.641 870.421 649.514 868.634C648.386 866.848 647.71 864.875 647.53 862.847C646.91 858.719 641.89 854.519 637.83 851.386C626.155 842.523 613.719 834.388 602.045 825.598C597.663 821.801 593.698 817.664 590.201 813.238C583.574 805.954 577.06 798.475 570.461 791.068L572.238 788.64C578.696 791.068 585.181 793.642 591.583 796.289C592.598 796.726 593.134 798.523 593.98 798.717C608.841 799.834 620.121 808.43 633.459 812.656C634.615 813.044 636.448 811.733 637.773 812C643.046 813.068 648.545 813.263 652.578 817.512C654.834 819.94 658.923 820.912 662.166 822.538L679.593 827.395C682.582 831.814 688.391 832.252 692.903 834.413C702.096 839.002 711.74 843.495 719.241 849.759C724.063 853.766 724.881 861.075 728.49 866.514C731.399 870.306 734.662 873.888 738.247 877.223C738.416 877.417 738.924 877.587 738.896 877.733C736.753 888.077 749.809 893.784 749.555 903.788C749.555 907.261 752.544 910.781 754.067 914.302C755.733 917.584 757.082 920.979 758.1 924.453C760.355 934.166 760.581 944.121 769.379 952.45C778.177 960.779 787.709 969.739 791.77 981.249C792.023 982.503 792.023 983.784 791.77 985.037L809.394 990.623C811.453 1001.7 820.533 1009.3 829.134 1016.92C837.311 1024.21 846.053 1030.79 854.795 1037.37C857.192 1039.14 860.773 1039.79 863.678 1040.98C869.318 1043.41 876.001 1045.33 880.597 1049.02C886.04 1053.54 890.523 1058.2 898.306 1060.36C902.705 1061.58 908.458 1065.75 909.107 1069.2C910.968 1079.3 920.809 1081.71 928.113 1086.64L790.895 1086.51Z" fill="black"/>
<path d="M1925.72 190.755L1908.8 193.038C1907.61 188.74 1907.7 182.402 1905.24 181.552C1899.46 179.561 1901.1 171.839 1893.97 171.839C1893.27 169.926 1892.81 167.957 1892.58 165.962L1878.91 167.808C1878.91 160.912 1876.26 158.459 1868.73 159.455C1869.01 156.347 1869.26 153.336 1869.63 148.916L1856.97 153.773C1854.35 145.93 1853.44 136.775 1848.51 130.121C1843.57 123.468 1834.41 119 1826.65 113.124C1827.56 111.424 1828.63 109.384 1829.9 107.029L1824.54 107.417L1827.36 99.647L1820.7 101.565L1814.89 88.4771L1809.25 89.3026L1802.54 75.1943L1789.71 71.6248L1785.12 74.6601C1784.89 65.6027 1776.66 56.7641 1767.89 55.4285C1766.7 52.3446 1765.38 49.4062 1764.45 46.3952C1763.52 43.3841 1762.92 40.106 1762.05 36.3665L1755.31 36.1723V28.6934C1744.42 31.6073 1744.68 23.6669 1741.94 18.9804C1739.91 15.5808 1731.23 8.00464 1727.31 6.83908C1724.64 5.61435 1722.17 4.08715 1719.98 2.29825L1721.3 -0.130008H1917.4C1920.22 -0.130008 1923.04 -0.324256 1925.86 -0.421387L1925.72 190.755Z" fill="black"/>
<path d="M1925.72 313.868C1918.73 312.022 1920.81 306.729 1920.64 302.746C1920.64 300.051 1922.64 297.283 1923.74 294.563L1925.72 292.814V313.868Z" fill="white"/>
<path d="M909.163 327.854L896.586 326.81L900.929 316.927L891.116 315.64L892.3 309.497L885.448 312.289C886.068 308.695 886.519 305.903 887.309 301.289L877.185 309.545C875.155 303.815 873.604 299.371 871.771 294.126L861.253 297.793C860.368 292.48 857.147 287.664 852.256 284.338C847.365 281.012 841.177 279.43 834.971 279.921C834.745 277.857 834.52 275.817 834.153 272.636C830.685 274.044 827.273 274.554 825.693 276.278C821.153 280.868 818.503 281.936 815.57 275.088C814.442 272.393 812.045 268.556 805.954 271.179C804.403 271.835 797.917 267.779 797.099 265.133C795.435 259.79 790.755 259.766 787.089 260.057C779.278 260.713 774.484 257.119 769.492 253.137C767.518 251.559 765.263 250.247 763.148 248.815L761.286 250.102C761.794 247.285 762.301 244.444 762.922 241.093H755.646L757.198 239.709C752.855 234.998 749.33 229.413 743.972 225.868C738.614 222.322 731.48 215.28 722.766 223.609C723.302 221.181 723.838 218.607 724.627 215.086L711.938 218.291C708.61 212.318 723.217 202.629 706.298 199.4C705.677 193.45 694.482 187.501 685.712 189.444C686.473 186.214 687.15 183.154 687.968 179.609L662.419 177.642C662.673 176.55 663.322 173.757 663.971 171.038L650.153 169.192L651.281 163.947C643.554 157.731 635.01 155.521 624.463 160.839C624.858 157.002 625.168 154.088 625.535 150.64H617.526C617.752 148.698 618.006 146.658 618.344 143.72L608.926 146.439L610.871 136.726L599.028 138.305L596.8 131.433L585.013 137.285C584.42 134.25 583.997 132.064 583.461 129.272L573.395 131.894V122.351H563.13V115.236L555.037 117.058C554.501 115.285 553.993 113.585 553.514 111.885L544.124 115.916L547.48 102.536L533.38 110.088L538.315 95.2273L528.783 97.8257L530.109 89.5453L516.827 95.2033C517.504 91.1724 518.011 88.2341 518.716 84.1546C512.653 86.5829 506.647 89.0112 505.434 80.5852L496.636 82.6248C492.158 78.0202 487.375 73.642 482.311 69.5122C472.526 62.3731 459.751 58.8522 452.138 48.6535C450.051 45.8125 445.68 38.9406 437.474 41.7331C436.769 41.9759 434.823 37.7019 432.906 37.2649C424.446 35.3465 416.55 31.1944 407.216 30.733C403.86 30.563 400.025 26.8234 397.741 23.9338C395.263 20.6526 391.993 17.8697 388.154 15.7746C384.314 13.6794 379.996 12.3213 375.492 11.7925C374.42 11.6225 373.856 9.07286 372.841 7.27595L366.496 8.97591L367.765 2.97789L355.555 2.32251L355.217 1.13239C357.215 0.474392 359.298 0.0261613 361.42 -0.202972C423.205 -0.202972 484.99 -0.39741 546.775 -0.0817365C552.414 -0.0817365 558.054 2.58962 564.258 4.1437C566.316 8.70882 571.336 12.4483 577.427 16.285C580.416 18.179 581.488 22.3554 583.969 26.4106C597.42 24.7351 608.672 29.3246 616.793 39.8146L632.218 51.3246L627.481 58.9007C637.463 62.9073 648.348 65.554 656.3 71.2604C659.713 73.6887 664.591 76.4083 667.58 80.3664C669.498 83.0375 673.756 84.4459 676.999 86.437L678.945 85.0288C678.07 87.457 677.196 89.8853 675.702 93.8677L684.02 89.7881V96.4658C700.94 96.66 716.28 99.8655 728.829 110.623L729.759 108.923V114.678H737.571V121.137L746.735 116.839C749.076 121.695 751.445 125.047 759.256 122.497C760.359 122.173 761.537 122.09 762.687 122.254C763.836 122.419 764.92 122.826 765.841 123.439C766.763 124.052 767.495 124.853 767.969 125.769C768.444 126.685 768.647 127.688 768.562 128.689C774.624 131.117 779.419 134.177 784.325 134.322C789.74 134.468 796.874 140.879 799.807 133.958C806.715 135.682 814.414 135.731 818.503 139.057C825.863 145.055 831.672 143.914 838.439 139.616C841.259 143.501 847.773 145.954 843.713 152C843.29 152.631 845.574 155.643 846.081 155.545C848.988 154.803 851.818 153.852 854.541 152.704C854.231 155.133 853.893 157.779 853.695 159.431C857.618 161.015 861.648 162.394 865.765 163.558C870.421 164.409 875.128 165.041 879.864 165.453V172.592C886.801 173.223 890.326 176.04 888.324 182.693C887.788 184.49 889.593 188.448 890.975 188.715C900.732 190.464 899.011 198.428 902.847 203.868L915.593 198.38V206.709L926.055 204.28L927.07 211.565L936.996 208.36C937.194 211.031 937.391 213.605 937.645 216.713L946.33 215.086C946.584 217.223 946.838 219.287 947.091 221.302C958.146 222.589 958.146 222.589 961.191 235.241L970.384 234.512C972.273 243.351 974.106 251.971 975.742 259.572C979.239 261.684 982.087 263.336 984.822 265.084C986.26 266.031 987.642 268.241 988.854 268.071C999.288 266.298 998.132 273.437 999.909 278.367C1008.03 279.338 1013.08 282.422 1011.19 292.742C1016.15 294.15 1021.68 294.733 1018.8 301.678C1017.05 305.951 1027.91 319.04 1032.7 319.355C1032.2 321.371 1031.72 323.387 1031.27 325.208C1035.36 328.607 1044.91 327.636 1040.99 336.669C1053.49 332.298 1047.62 345.702 1055.4 347.936C1055.04 351.627 1054.56 355.561 1062.34 358.499C1066.06 359.907 1065.47 369.791 1066.99 376.565L1071.68 376.031C1073.31 381.47 1074.86 386.618 1076.61 392.349H1080.73C1079.74 395.481 1078.89 398.177 1077.46 402.815L1086.65 398.614V417.384L1094.52 416.146C1094.52 422.848 1092.35 429.841 1095.14 434.698C1096.21 436.235 1096.88 437.953 1097.1 439.735C1097.33 441.517 1097.1 443.319 1096.43 445.018C1104.08 453.954 1110.84 461.87 1117.89 470.077L1124.94 469.713C1119.3 482.85 1129.23 492.952 1132.81 504.85L1136.03 504.729C1136.78 509.552 1137.93 514.324 1139.47 519.007C1141.05 521.462 1143.3 523.546 1146.04 525.077C1150.04 527.967 1153.96 532.362 1158.53 532.921C1169.27 534.499 1170.03 540.205 1169.05 547.927L1176.13 547.563C1175.59 550.477 1175.11 552.978 1174.55 556.038L1181.57 555.212C1179.06 563.347 1184.75 566.601 1191.61 569.927C1195.22 571.676 1199.42 575.197 1200.07 578.378C1202.35 590.81 1215.55 593.918 1224.43 600.378C1227.96 602.952 1230.07 606.885 1236.39 608.221C1244.62 609.969 1251.62 615.943 1259.17 620.022C1263.26 622.208 1267.27 623.227 1269.66 628.351C1271.58 632.358 1280.24 634.033 1286.02 636.583C1287.12 637.069 1288.84 636.413 1289.94 636.971C1297.78 641.294 1306.27 645.057 1312.98 650.472C1319.69 655.887 1324.26 662.614 1329.39 668.927C1330.49 670.735 1331.19 672.703 1331.45 674.731C1345.1 688.402 1360.41 699.013 1368.53 716.011C1376.14 731.843 1390.47 745.296 1391.48 762.828C1395.07 767.296 1400.2 771.376 1401.86 776.329C1404.68 784.609 1404.68 793.594 1407.02 802.044C1408.35 806.755 1412.04 810.98 1414.69 815.424L1412.58 816.857L1390.02 801.389L1385.67 803.647L1367.71 787.523L1364.07 789.66L1350.65 780.773L1348.85 782.036C1349.33 779.243 1349.78 776.451 1350.37 772.954L1339.68 772.541V765.256L1326.46 758.821C1321.86 757.291 1327.78 748.331 1316.95 751.051C1316.28 746.826 1315.71 743.256 1315.06 739.177L1301.73 746.753V733.082L1294.31 736.87C1289.94 730.071 1286.44 723.15 1281.17 717.444C1279.67 715.817 1272.96 717.784 1268.65 718.124L1268.39 720.552L1249.16 704.72L1250.32 703.384H1243.61C1243.3 701.466 1242.96 699.426 1242.62 697.532L1230.35 699.159C1229.51 696.949 1228.6 694.545 1227.53 691.292C1225.22 693.501 1223.67 695.007 1222.06 696.585C1211.46 689.3 1201.67 680.729 1185.4 679.296C1185.4 679.296 1184.5 677.499 1183.09 674.755C1180.67 677.548 1178.89 679.612 1177.11 681.579L1167.55 678.664L1162.96 684.152C1161.74 681.724 1160.93 679.952 1159.88 677.815L1155.57 682.404C1155.09 679.976 1154.75 678.349 1154.33 676.333L1149.03 679.66V670.943C1144.6 675.994 1140.93 677.912 1138.17 671.428L1133.94 676.042L1132.81 669.462C1115.69 670.166 1093.87 659.748 1088.4 649.89C1085.75 648.02 1082.22 646.563 1080.67 644.183C1077.37 639.327 1071.65 636.267 1067.78 631.581C1063.13 625.947 1059.52 633.038 1057.1 636.971C1048.64 627.089 1039.81 619.075 1026.75 615.336C1022.16 614.024 1017.51 609.435 1013.75 610.091C1002.47 612.082 1000.11 600.79 991.195 600.038C990.772 600.038 990.631 597.609 990.349 596.274C983.525 598.338 981.213 596.59 979.915 588.285L976.024 590.713C967.028 573.715 948.304 563.007 936.545 547.126L929.946 551.983C924.307 546.689 918.384 541.298 912.463 536.029C911.306 535.009 908.909 533.601 908.12 533.916C900.873 537.34 899.491 533.722 898.448 528.695C898.194 527.457 895.853 526.583 894.613 525.442C892.018 523.013 889.565 520.585 886.943 518.157C885.641 516.679 883.975 515.468 882.064 514.612C875.832 512.839 870.389 506.963 865.849 506.72C853.3 506.089 845.743 493.923 831.728 497.468C827.893 498.415 822.507 494.579 817.628 493.097C814.47 492.102 811.227 491.349 807.984 490.669C806.292 490.232 803.895 490.475 802.908 489.528C796.789 483.7 791.093 482.947 784.353 487.439C782.21 482.947 780.321 478.406 772.679 479.839C771.354 480.082 769.633 477.945 767.913 477.411C763.128 475.522 757.948 474.489 752.685 474.375C751.642 471.607 750.571 468.863 749.273 465.512C744.846 464.832 738.304 465.949 739.404 458.033L729.252 462.331L728.603 456.479C726.278 455.397 723.854 454.48 721.356 453.735C718.561 453.265 715.736 452.941 712.896 452.764C712.107 450.846 711.007 448.272 709.907 445.698L701.448 451.088V442.59L699.727 441.788L692.142 450.797V439.238L684.077 449.146V437.417L678.014 441.57C677.422 439.481 676.858 437.539 676.576 436.713H662.081C661.771 434.843 661.489 433.095 660.982 430.157L653.114 437.684C652.663 432.828 649.391 431.25 646.29 428.894C640.424 424.402 636.787 417.748 631.654 411.314L627.227 414.3C627.396 411.556 627.537 408.545 627.791 404.296C616.088 415.636 608.615 403.082 601.876 401.868L590.173 392.155L588.65 393.49L589.553 388.634C587.594 388.046 585.705 387.298 583.913 386.4C581.967 385.21 580.613 383.146 578.555 382.417C576.496 381.689 574.466 382.563 571.956 382.733L570.039 376.541L564.625 380.499C558.985 376.954 553.542 373.506 547.959 370.397C544.039 368.212 539.358 366.949 535.664 364.57C529.545 360.587 522.861 356.751 518.349 351.579C511.723 344.027 499.625 340.846 496.523 330.671C495.57 328.457 494.391 326.319 492.998 324.285L488.543 327.587C488.994 323.702 489.361 320.74 489.896 316.247L483.439 320.254C477.207 311.609 471.37 302.722 464.432 294.563C462.882 292.766 457.355 293.47 453.632 293.033C451.461 286.331 449.177 279.338 446.78 271.907C440.435 273.728 438.715 268.241 437.841 264.622C435.387 254.594 431.073 245.828 422.021 238.883C420.165 237.425 418.976 235.445 418.665 233.298C418.242 226.353 413.674 221.424 408.993 216.3C407.677 214.5 406.724 212.522 406.173 210.448C402.167 199.764 395.884 189.816 387.646 181.115C381.301 174.631 376.028 166.278 365.086 162.563C359.672 160.742 356.627 152.85 353.412 147.314C350.987 143.064 341.794 137.941 337.536 138.888L330.881 125.799L326.679 128.228L318.219 122.327L318.924 116.96C308.942 121.137 303.556 117.47 301.018 111.133L278.148 112.565L277.753 106.98C277.62 105.777 277.197 104.611 276.514 103.556C275.83 102.5 274.9 101.578 273.782 100.848C272.663 100.118 271.381 99.5955 270.017 99.3134C268.652 99.0314 267.235 98.9961 265.853 99.2097C265.077 99.4584 264.345 99.802 263.682 100.23C260.467 93.1634 245.409 94.3776 247.806 85.6601C243.717 83.0862 240.784 81.4835 238.161 79.5409C236.236 77.6731 234.193 75.8979 232.042 74.2231C231.337 73.8103 228.997 75.4615 228.489 75.68C226.431 73.8588 224.964 72.256 223.188 70.9691C211.683 62.5673 197.132 58.5121 184.301 52.1501C177.195 48.6291 172.485 41.3443 162.728 40.5916C160.36 40.3973 158.781 32.6997 156.553 27.8432L150.377 34.6181V22.3313L138.392 18.2517L133.091 2.39513L124.096 6.91165C122.065 0.0882534 126.915 0.0884311 131.85 0.112714H196.709C209.878 0.112714 223.047 -0.154572 236.188 0.233949C241.991 0.572334 247.732 1.46849 253.304 2.90527C259.339 4.28937 266.304 5.09058 270.873 8.24731C280.883 15.1921 295.378 10.6754 304.514 19.0286C305.445 19.8785 308.265 19.0287 310.154 19.3686C318.614 20.9956 324.621 25.7309 330.317 31.1459C332.319 33.0642 336.182 33.5741 339.087 34.7154C341.991 35.8566 344.557 37.5564 347.547 38.6005C349.859 39.4261 353.186 39.0132 354.822 40.3002C359.926 44.1611 364.325 48.6534 369.232 52.7328C373.349 56.1567 377.692 59.7505 382.739 58.1964C389.704 61.9116 396.19 65.4812 402.704 68.8565C404.481 69.8035 407.865 70.5562 407.949 71.5518C408.908 82.9889 419.849 85.4172 428.76 90.4437C435.278 94.2735 440.432 99.5865 443.65 105.79C447.146 112.735 452.589 117.932 457.749 123.687C458.116 124.1 458.454 124.852 458.877 124.877C474.19 126.455 476.192 138.159 482.001 147.071C486.371 153.797 491.589 160.086 495.677 166.909C497.369 169.726 497.031 173.442 497.736 177.448C508.029 178.59 514.966 183.859 517.475 193.232C517.953 194.792 518.931 196.206 520.295 197.311C529.432 205.033 538.907 212.439 547.761 220.355C549.809 222.853 551.107 225.747 551.54 228.781C553.288 234.925 559.774 239.612 565.95 238.738L581.883 264.938L585.999 264.161C590.85 278.974 614.199 290.872 626.578 283.781C626.127 288.274 625.732 292.305 625.309 296.336L627.03 297.428L635.32 287.715L637.661 288.881L638.845 298.788L642.37 296.845L649.166 302.115L650.83 301.168V309.982C656.187 307.87 662.109 304.3 661.489 313.649L668.905 310.687L670.936 318.214L676.576 316.806C680.382 322.755 684.105 328.656 687.855 334.726C693.495 328.85 691.409 317.583 683.879 308.355C678.014 301.071 672.318 293.786 666.198 286.064L660.728 288.007C660.347 287.338 660.045 286.639 659.825 285.918C659.6 284.631 659.825 282.179 659.459 282.179C650.999 281.523 650.209 273.826 644.964 270.038C641.327 267.609 640.34 262.316 637.012 259.208C631.908 254.351 625.507 250.612 620.093 245.925C607.544 234.876 599.366 221.642 591.893 207.558C588.453 201.148 579.232 196.243 571.392 192.625C564.822 189.614 559.633 187.258 559.605 180.168C559.605 178.857 557.941 177.545 557.603 177.06L570.039 173.442C572.098 175.117 574.776 177.108 577.173 179.318C587.325 188.667 587.297 188.691 599.253 184.539L607.347 201.391L614.622 198.404C623.082 211.492 646.148 209.55 651.845 226.256L655.567 224.119C662.871 227.616 670.4 230.336 676.632 234.464C685.598 240.905 695.161 246.704 705.226 251.802C707.746 252.758 710.336 253.569 712.981 254.23C713.122 255.687 713.347 258.26 713.573 260.956L726.207 262.923C726.489 264.064 726.883 264.695 726.686 265.06C720.792 274.991 728.575 280.892 735.146 287.278C738.811 290.799 741.067 295.996 745.467 298.205C751.304 301.168 750.26 307.749 757.705 310.347C765.15 312.945 770.169 320.06 776.852 325.669C776.57 325.669 778.065 325.135 780.434 324.09L778.009 332.517L797.522 345.386L793.518 355.755L800.878 351.214V356.896L806.518 355.731C807.392 360.199 806.518 365.152 815.542 363.404C825.299 361.559 826.821 363.817 824.001 373.117L828.993 370.689L829.726 374.914C836.804 372.996 840.724 374.428 844.079 381.033C846.42 385.671 853.442 388.537 859.589 393.175C859.589 393.175 859.391 394.85 859.109 396.914C876.734 396.526 886.632 408.084 900.986 415.612L907.218 412.868C904.595 421.342 910.714 423.09 917.116 426.077C920.5 427.631 921.092 433.654 923.122 438.024C927.972 439.069 936.404 435.159 938.04 444.386C938.265 445.528 941.959 446.936 944.046 446.815C949.065 446.815 949.686 449.461 951.462 452.594C953.69 456.358 960.881 459.879 961.558 462.04C964.124 469.616 974.106 471.607 976.024 479.523C977.349 484.914 983.356 489.455 979.859 496.375L985.753 493.559L986.627 496.837L1001.23 502.47V507.861L1007.41 508.347C1006.65 510.775 1006.03 512.79 1005.07 515.971L1012.8 512.693L1030.11 535.033L1035.75 531.901L1053.21 538.336C1053.21 539.016 1052.95 541.322 1052.92 541.517C1055.39 543.15 1058.08 544.52 1060.93 545.596C1063.16 546.106 1066.18 544.722 1068.09 545.596C1072.72 547.539 1078.73 548.024 1080.53 553.682C1080.81 554.532 1084.51 555.115 1086.4 554.775C1087.41 554.605 1088.85 551.958 1088.45 550.914C1086.82 546.737 1093.11 539.137 1084.28 539.161C1079.88 531.245 1075.96 524.349 1072.24 517.307C1071.48 515.874 1070.55 513.786 1071.17 512.62C1073.31 508.687 1072.07 506.283 1068.35 503.83C1064.94 501.645 1060.34 499.532 1062.57 494.53C1056.56 493 1056.93 488.119 1054.81 484.355C1049.57 476.173 1043.69 468.305 1037.22 460.801C1034.76 457.742 1029.91 455.654 1028.76 452.4C1027.01 447.543 1027.54 442.249 1027.09 436.713L1022.64 436.179C1021.59 428.748 1021.76 420.857 1010.96 418.113C1010.17 417.894 1010.37 415.684 1009.55 414.567C1006.17 410.318 1003.24 406.36 996.948 403.835C990.659 401.309 986.091 395.336 980.789 390.892L982.622 388.804L973.937 387.298C973.599 384.676 973.204 381.859 972.696 377.998L963.701 381.64C962.291 376.784 960.881 372.219 959.358 366.852L949.714 369.912L939.731 355.342L935.078 355.901L932.822 349.126C931.182 349.383 929.524 349.553 927.859 349.636C925.688 349.636 922.473 350.146 921.599 349.175C920.628 347.384 920.497 345.34 921.233 343.468C922.53 339.097 926.703 334.896 921.543 329.676L910.094 340.749C909.643 335.285 909.332 331.473 909.163 327.854Z" fill="black"/>
<path d="M1501.99 614.947L1495.76 614.51L1497.96 613.539C1493.92 604.667 1489.88 595.812 1485.84 586.973L1483.64 587.605C1484.34 585.176 1485.02 582.554 1485.92 579.227L1478.67 580.781C1465.96 570.097 1454.9 558.927 1459.16 542.123C1450.7 540.618 1446.95 534.45 1448.84 524.689L1441.22 527.117C1443 517.865 1440.04 513.616 1431.69 512.547C1431.69 503.344 1429.49 500.746 1421.57 500.26L1423.29 492.247C1409.81 488.945 1411.76 478.649 1409.75 469.689L1401.92 471.315C1402.37 468.547 1402.76 466.046 1403.24 463.157H1397.43C1398.11 460 1398.67 457.208 1399.55 453.031L1391.45 457.159C1392.67 452.788 1393.6 449.413 1394.92 444.556L1386.01 449.68C1386.49 444.289 1386.97 439.287 1387.45 434.042L1381.81 434.528C1382.66 431.541 1383.39 429.015 1384.06 426.563C1380.96 424.839 1373.07 428.384 1376.25 420.565C1376.76 419.351 1371.49 416.85 1369.94 414.446C1366.67 409.322 1364.07 403.859 1361.22 398.541L1363.4 397.302L1354.46 394.316C1355.44 386.861 1339.2 384.335 1346.53 374.55C1338.38 372.364 1332.43 364.011 1334.72 354.638C1335.14 352.383 1334.76 350.07 1333.61 348.011C1332.46 345.953 1330.6 344.248 1328.29 343.128C1316.25 339.68 1318.11 332.978 1321.74 324.6L1311.54 326.64C1312.47 323.872 1313.09 321.978 1313.14 321.784L1306.86 313.455C1307.96 313.455 1306.86 313.455 1305.73 313.455C1304.6 313.455 1303.44 313.746 1301.5 314.013C1302.74 310.152 1303.75 306.898 1305.11 302.673L1296.31 306.825C1293.49 298.521 1292.61 289.536 1287.31 283.441C1283.34 278.9 1278.12 275.185 1276.03 269.406C1273.95 263.627 1271.1 257.265 1268.39 250.587L1261.03 251.68C1260.41 249.009 1259.85 246.823 1259.28 244.395C1248 247.188 1252.63 237.887 1248.99 234.682C1238.02 237.45 1237.2 236.333 1235.65 226.329C1235.24 224.042 1234.27 221.856 1232.81 219.911C1231.35 217.966 1229.44 216.306 1227.19 215.038C1222.12 212.779 1217.46 210.909 1214 206.83C1213.18 205.883 1210.16 206.32 1206.64 205.98L1213.15 201.415L1212.44 199.497L1201.76 202.313C1189.63 194.276 1188.73 192.989 1190.03 184.903L1178.75 182.475C1182.61 171.159 1181.96 170.333 1170.29 164.117C1167.75 162.375 1165.8 160.077 1164.65 157.463C1161.32 151.441 1160.13 143.695 1154.97 139.567C1149.33 135.051 1147.87 128.883 1142.96 124.221C1138.7 119.605 1135.88 114.131 1134.76 108.315C1133.97 104.989 1136.73 101.152 1130.41 99.9867C1130.38 98.1595 1130.51 96.3329 1130.81 94.5232L1127.28 94.2318L1110.19 58.8033L1102.69 58.2449L1104.58 57.2252C1102.3 53.2192 1099.74 49.335 1096.91 45.5938C1092.26 39.9845 1086.99 34.7636 1081.97 29.3729L1083.86 27.819L1078.47 28.1587C1079.77 20.874 1079.4 14.415 1070.46 11.3554C1071.7 7.30021 1072.77 3.75493 1073.96 -0.203125H1215.94C1212.44 6.35317 1228.55 9.14565 1217.75 17.086L1230.04 23.3995C1232.07 36.0264 1230.58 49.3819 1246.11 57.2009C1248.03 58.1722 1248.48 61.3775 1249.41 63.5872C1252.49 70.872 1254.86 78.5453 1258.69 85.4415C1262.25 91.662 1266.57 97.5389 1271.58 102.973C1276.17 108.146 1280.52 112.686 1279.7 119.971C1279.33 123.371 1284.72 127.256 1287.6 130.85C1289.01 132.55 1291.54 133.909 1292.08 135.706C1293.32 139.786 1292.84 144.399 1294.7 148.188C1295.49 149.79 1300.34 149.887 1303.53 150.616L1300.09 154.477L1305.73 150.81C1305.02 153.845 1304.54 155.909 1304.04 158.095C1312.18 156.371 1323.18 161.931 1328.85 167.808C1334.52 173.684 1335.45 182.377 1345.38 184.806C1347.55 185.459 1349.69 186.213 1351.78 187.064C1350.25 195.077 1360.01 205.591 1370.44 205.713C1370.28 207.801 1370.08 209.865 1369.85 212.367L1375.49 212.148C1380.62 220.574 1382.99 229.655 1394.87 234.002C1401.01 236.43 1405.83 242.21 1410.01 247.261C1415.14 253.477 1418.47 260.834 1423.43 267.124C1434.06 280.406 1442.83 294.717 1449.57 309.764C1450.62 312.192 1455.21 313.163 1459.05 315.203C1453.91 328.68 1472.24 338.199 1471.17 352.792C1479.63 355.221 1480.51 362.821 1484.65 368.867C1488.12 373.967 1485.67 383.874 1497.2 383.583C1497.67 393.17 1501.55 402.401 1508.31 410.026C1510.8 413.351 1512.53 417.05 1513.42 420.929C1516.23 431.686 1517.96 442.784 1521.4 453.298C1524.22 462.088 1529.04 470.296 1532.68 478.989C1533.78 481.742 1534.57 484.58 1535.04 487.463C1536.26 494.068 1535.3 500.673 1540.99 506.889C1543.64 509.803 1540.26 516.797 1539.5 522.746L1544.04 523.135C1542.29 527.263 1540.57 531.31 1538.88 535.276C1545.17 534.669 1545.42 537.704 1543.7 541.881C1541.98 546.057 1540.46 549.165 1544.74 553.682C1549.03 558.199 1550.89 564.415 1553.77 569.903C1554.06 570.37 1554.17 570.907 1554.08 571.433C1548.69 586.002 1559.24 597.852 1563.5 610.77C1565.08 615.627 1564.57 620.751 1565.41 625.704C1566.06 629.419 1573.48 629.711 1571.25 635.854C1569.76 640.006 1571.73 645.567 1573.59 650.011C1575.45 654.455 1579.43 658.51 1582.05 662.929C1582.87 664.88 1583.24 666.952 1583.12 669.024C1583.12 670.044 1581.8 671.452 1582.22 672.035C1586.93 677.499 1584.9 682.671 1580.05 688.086L1586.73 688.839C1586.28 691.267 1585.83 693.404 1585.52 694.934L1599.82 699.62L1594.01 711.761L1598.66 712.053C1601.23 721.134 1597.11 730.605 1607.35 737.72C1610.82 740.148 1611.27 745.781 1612.99 749.861C1615.97 757.607 1620.83 764.717 1627.26 770.72C1628.68 772.643 1629.78 774.738 1630.5 776.936C1611.32 770.258 1596.04 762.366 1588.4 746.243C1586.85 742.965 1583.07 740.488 1580.5 737.525C1573.14 729.002 1564.48 721.038 1559.07 711.664C1556.25 706.662 1554.81 701.951 1550.07 701.15L1543.31 688.037C1541.67 684.832 1539.95 681.675 1538.46 678.324C1536.31 673.711 1534.31 669.073 1532.34 664.41C1530.98 661.278 1529.91 658.048 1528.42 654.964C1527.3 653.021 1526.05 651.14 1524.67 649.331C1522.13 645.543 1517.64 641.779 1517.56 637.967C1517.81 635.478 1517.15 632.985 1515.66 630.837C1514.18 628.69 1511.96 626.997 1509.3 625.996C1504.76 625 1499.77 621.552 1501.99 614.947Z" fill="black"/>
<path d="M799.945 90.8807C794.728 88.4524 789.342 86.4369 784.294 83.8387C780.741 82.0175 777.808 78.035 774.227 77.6465C762.947 76.4567 755.475 69.4634 745.859 65.8938C744.787 65.5053 743.716 64.704 742.644 64.7283C729.08 64.9226 718.026 58.269 708.015 52.4169C702.601 49.2602 692.844 50.4987 690.87 42.5097C690.588 41.3442 686.64 40.6642 684.271 40.0815C676.376 38.236 670.172 35.0551 669.185 26.8719L656.693 25.4147C656.061 21.8565 655.853 18.2522 656.072 14.6577C656.918 9.46122 652.745 8.56277 648.966 7.37292C644.595 5.89168 640.055 4.77461 633.992 3.05055C635.966 1.86071 637.461 0.161046 639.012 0.136764C664.053 -0.00893177 689.094 -0.130499 714.135 0.282305C717.892 0.775129 721.275 2.5192 723.553 5.13882C732.524 15.8383 740.348 27.2169 746.93 39.1344C754.601 52.1499 767.741 62.9315 779.444 73.9558C784.181 78.4481 791.485 80.9249 797.435 84.543C798.98 85.7503 800.319 87.14 801.411 88.6709L799.945 90.8807Z" fill="black"/>
<path d="M78.4977 812.705C76.7933 813.157 75.0327 813.435 73.2526 813.53C66.09 812.632 49.0858 798.232 47.8733 792.259C46.9889 789.192 45.117 786.403 42.473 784.212C39.829 782.021 36.5201 780.518 32.9275 779.875C30.5306 779.535 26.8084 778.272 26.329 776.815C22.7477 765.524 13.3573 757.802 5.20776 749.157C1.68454 745.255 -0.371503 740.519 -0.685797 735.583C-1.39078 718.1 -1.02444 700.568 -0.939838 683.06C-0.758182 680.486 -0.400356 677.924 0.131748 675.387C2.1621 676.358 3.17743 676.698 3.12104 676.868C0.893294 687.382 11.7501 693.501 14.852 702.292C16.0082 705.546 24.4113 705.886 22.2963 712.005C29.2052 713.729 25.6239 717.493 24.8061 720.892C24.4677 722.276 24.8062 725.02 25.5958 725.215C37.2421 728.031 35.9731 736.749 37.8906 744.155C38.6874 746.665 40.2788 748.935 42.4871 750.711C50.5239 757.34 46.5759 767.32 51.9056 774.581C54.3589 777.956 57.5457 780.919 59.9426 784.294C66.1747 793.448 72.0964 802.773 78.4977 812.705Z" fill="black"/>
</g>
</svg>
