<svg width="1920" height="1080" viewBox="0 0 1920 1080" fill="none" xmlns="http://www.w3.org/2000/svg">
<mask id="mask0_398_6713" style="mask-type:alpha" maskUnits="userSpaceOnUse" x="0" y="0" width="1920" height="1080">
<rect width="1920" height="1080" fill="#C4C4C4"/>
</mask>
<g mask="url(#mask0_398_6713)">
<rect width="1920" height="1080" fill="#E88E32"/>
<path d="M1891.4 891.267L1889.63 901.212C1885.19 890.123 1879.89 879.831 1884.77 867.748C1887.33 861.458 1886.63 853.626 1885.5 846.74C1882.05 825.582 1877.69 804.475 1873.62 783.417C1872.67 780.222 1871.9 776.986 1871.32 773.721C1870.22 756.566 1864.07 741.4 1849.89 729.243C1847.62 727.308 1846 724.856 1845.2 722.158C1841.27 706.172 1828.75 695.506 1816.75 684.219C1810.8 678.171 1802.5 674.314 1793.5 673.404C1775.4 671.693 1758.19 665.593 1743.76 655.777C1717.28 637.504 1706.3 613.984 1714.02 584.349C1715.12 580.198 1714.02 575.623 1714.5 571.272C1715.03 568.907 1715.87 566.604 1717 564.41L1716.66 563.316L1717.7 563.615L1716.86 564.51C1715.96 564.286 1714.53 564.261 1714.3 563.814C1713.66 562.439 1713.31 560.974 1713.27 559.488C1721.55 556.728 1710.2 545.242 1722.2 544.023C1727.12 543.335 1731.95 542.159 1736.58 540.518C1744.19 538.032 1752.22 536.267 1759.04 532.687C1780.25 521.623 1801.17 510.311 1821.86 498.228C1835.55 490.387 1851.59 486.376 1867.89 486.717C1874.4 486.916 1880.9 486.074 1887.07 484.231C1896.17 481.173 1903.28 475.331 1903.92 466.032C1904.57 456.734 1903.17 447.51 1892.38 441.544C1877.19 433.066 1863.43 422.201 1847.45 415.215C1818.58 402.635 1787.69 404.301 1756.6 408.602C1725.97 412.693 1696.64 422.379 1670.47 437.044C1661.83 442.033 1652.5 446.018 1642.72 448.903C1620.25 455.093 1609.92 470.532 1601.27 487.761C1598.18 493.927 1596.1 500.665 1591.97 506.234C1590.43 508.347 1583.32 509.69 1580.74 508.347C1574.84 505.289 1568.41 501.162 1565.43 495.916C1561.14 488.458 1559.59 479.855 1557.18 471.651C1555.3 465.237 1554.87 458.35 1552.01 452.358C1544.57 436.795 1544.68 421.058 1545.8 404.5C1547.35 381.453 1545.3 358.257 1545.8 335.136C1546.54 324.491 1548.24 313.915 1550.89 303.511C1553.98 288.943 1557.79 274.473 1561.11 259.929C1562.71 252.893 1562.88 245.509 1565.35 238.747C1574.06 215.004 1568.35 192.678 1556.56 171.397C1548.42 156.703 1543.67 141.015 1536.9 126.074C1526.4 103.002 1512.05 81.0989 1497.25 59.8173C1484.27 41.1461 1468.35 24.0661 1453.91 6.1657C1449.98 1.31767 1447.01 2.18785 1444.39 6.81212C1443.24 8.76619 1442.59 10.9229 1442.48 13.1269C1442.2 29.3616 1442.23 45.4472 1441.98 61.8062C1442.33 67.8612 1441.92 73.9324 1440.74 79.9056C1433.27 106.259 1437.01 132.563 1439.87 158.991C1444.2 198.769 1447.85 238.697 1451.98 278.55C1453.21 290.683 1450.57 301.597 1441.5 311.045C1432.43 320.492 1429.76 331.232 1429.2 343.365C1428.39 360.768 1426.62 378.171 1424.57 395.375C1421.51 421.455 1426.98 446.566 1435.07 471.328C1436.92 476.972 1441.3 482.068 1445.07 487.14C1453.75 498.825 1460.32 511.007 1461.19 525.352C1461.47 529.877 1464 534.278 1465.68 538.753C1468.74 547.504 1472.45 556.156 1474.67 565.082C1477.95 578.184 1480.28 591.51 1483.26 606.675C1480.84 605.247 1478.6 603.578 1476.61 601.703C1471.97 595.512 1466.52 589.545 1463.43 582.758C1443.47 538.828 1419.12 496.488 1403.7 450.792C1397.24 431.574 1391.2 412.903 1391.82 392.641C1391.65 384.346 1390.36 376.1 1387.97 368.077C1382.36 344.757 1386.79 322.655 1396.4 300.752C1399.21 294.362 1399.21 286.929 1399.8 279.943C1400.53 269.476 1400.53 258.984 1400.81 248.493C1401.03 240.761 1401.96 233.004 1401.31 225.322C1400.02 211.892 1402.54 198.388 1408.64 186.04C1414.46 174.206 1416.45 160.631 1406.65 148.151C1403.62 144.272 1402.69 138.877 1401.73 134.029C1396.57 110.435 1395.21 86.3109 1397.69 62.3779C1400.16 41.8671 1399.26 21.0331 1399.83 0.348145H1491.66C1493.9 3.92823 1496.24 7.45846 1498.4 11.0883C1505.14 22.5246 1511.79 34.0108 1518.56 45.4471C1525.02 56.3863 1529.96 68.4194 1538.42 77.9912C1571.11 114.961 1591.44 156.877 1605.48 201.703C1610.23 216.844 1609.61 230.891 1601.04 244.888C1597.94 250.296 1595.81 256.101 1594.73 262.092C1590.88 280.863 1586.52 299.385 1577.34 316.788C1573.98 323.604 1572.45 331.014 1572.85 338.442C1573.89 362.135 1582.37 384.486 1591.35 406.538C1592.73 409.895 1598.18 414.221 1601.77 414.246C1624.72 414.246 1647.77 410.243 1664.2 396.121C1677.89 384.137 1693.7 374.226 1711.02 366.785C1720.68 362.218 1731.96 361.14 1742.5 363.776C1749.41 365.442 1757.92 366.511 1764.29 364.472C1786 357.511 1806.42 359.848 1827.28 366.959C1858.4 377.525 1889.63 387.867 1920.83 398.309V527.59C1906.17 527.416 1891.51 526.769 1876.88 527.217C1865.96 527.54 1856.97 531.941 1849.05 539.151C1843.72 543.61 1837.37 547.001 1830.43 549.095C1816.98 553.496 1803.39 556.977 1792.1 565.628C1777.58 576.742 1776.76 593.623 1791.59 604.611C1796.4 608.126 1801.74 611.023 1807.46 613.214C1821.25 618.509 1831.47 626.539 1837.25 639.07C1842.37 650.133 1849.33 660.103 1860.65 667.362C1863.85 669.981 1866.56 673.036 1868.68 676.412C1876.71 686.754 1884.8 697.097 1892.49 707.663C1894.82 710.541 1896.24 713.912 1896.62 717.434C1896.96 734.837 1896.62 752.24 1896.62 769.469C1896.62 775.784 1897.49 782.074 1897.89 788.364C1898.76 801.566 1898.08 815.016 1900.7 827.919C1904.96 848.604 1898.84 868.916 1900.22 889.352C1901.09 902.181 1903.03 914.935 1904.51 927.739C1904.96 931.642 1905.36 935.546 1905.81 939.872C1890.87 937.062 1883.34 908.148 1891.37 891.267L1891.12 888.781L1889.8 887.911L1890.92 887.289L1891.09 888.656C1891.23 889.452 1891.23 890.372 1891.4 891.267Z" fill="#1E150E"/>
<path d="M650.276 0.224392C649.733 2.59051 648.963 4.91124 647.973 7.1609C642.356 17.1056 637.02 27.0503 631.123 36.6966C614.61 63.4229 613.823 91.2432 622.164 120.132C624.972 129.928 624.972 140.345 627.191 150.339C628.267 157.002 630.673 163.442 634.296 169.359C641.092 179.055 650.528 187.309 657.212 197.03C663.223 206.534 668.442 216.413 672.827 226.59C675.832 232.905 677.011 239.966 680.409 246.057C700.292 281.709 708.128 320.269 716.076 358.829C716.202 360.17 716.202 361.517 716.076 362.857L713.52 364.821C713.302 363.51 712.915 362.226 712.368 360.993C699.309 337.797 686.588 314.427 672.827 291.554C666.594 281.108 659.199 271.239 650.753 262.093C639.969 250.482 627.303 240.264 616.154 228.902C612.924 225.571 612.11 220.35 610.537 216.621C607.589 214.632 604.527 212.494 601.354 210.455C595.737 206.949 590.12 203.419 584.504 200.063C575.068 194.494 567.092 188.303 562.739 178.284C559.369 170.477 551.955 164.063 547.995 156.381C542.581 145.377 537.892 134.104 533.953 122.619C530.808 113.818 528.955 104.644 526.118 94.1271C523.31 96.29 521.849 96.9117 521.4 97.931C514.407 113.693 508.173 129.729 500.478 145.168C493.71 158.867 497.67 172.79 496.967 186.613C496.715 190.69 498.259 192.679 502.584 195.414C509.352 199.69 514.295 206.552 519.125 212.817C530.836 227.933 542.519 243.123 553.247 258.761C560.399 269.48 569.957 278.788 581.33 286.109C589.924 291.628 596.552 299.46 604.247 305.998C612.503 313.084 620.816 320.095 629.353 326.932C647.14 341.153 665.02 355.299 682.993 369.371C691.839 376.307 701.5 382.523 709.672 390.006C715.935 395.774 722.703 402.437 725.259 409.896C731.381 427.522 734.667 445.895 740.002 463.771C742.749 473.384 746.647 482.71 751.629 491.591C754.407 495.925 756.021 500.767 756.348 505.742C756.674 510.717 755.703 515.692 753.511 520.282C749.829 527.773 747.93 535.855 747.93 544.024C747.93 552.194 749.829 560.276 753.511 567.767C755.783 572.773 756.87 578.138 756.705 583.53C756.541 588.923 755.129 594.228 752.556 599.118C748.737 607.198 747.192 616.074 744.131 624.452C743.231 626.923 741.276 628.983 738.683 630.195C737.475 630.643 733.74 627.982 732.673 626.068C728.406 618.721 724.745 611.11 721.72 603.295C715.373 585.494 707.145 568.737 693.44 554.242C684.004 544.298 680.915 532.091 680.325 519.436C679.679 505.141 675.916 492.76 659.88 485.773C656.6 484.115 653.928 481.655 652.185 478.688C645.417 467.823 634.268 461.757 623.035 454.995C608.657 446.003 595.098 436.028 582.482 425.161C557.207 404.078 535.077 379.166 504.522 364.051C478.713 351.297 454.393 334.217 423.641 330.835C404.151 328.697 384.324 328.573 364.862 326.708C351.657 325.885 338.796 322.606 327.118 317.087L327.427 313.929C333.044 313.929 338.66 314.103 344.277 313.929C359.442 313.357 374.972 314.228 389.688 311.642C417.761 306.936 446.715 308.491 473.939 316.167C501.629 323.625 528.533 333.172 555.381 342.496C560.577 344.261 564.256 349.258 568.889 352.44C575.882 357.413 582.482 363.081 590.402 366.288C616.238 376.805 637.891 391.349 653.842 412.431C658.953 419.144 665.244 425.161 670.973 431.5L674.231 430.357C674.639 427.667 674.639 424.941 674.231 422.252C665.048 394.407 650.641 370.664 621.855 353.335C594.558 336.902 567.85 320.219 538.447 306.62C524.181 300.007 512.863 287.526 501.938 276.388C491.463 265.673 479.949 258.239 464.026 255.504C444.367 252.123 435.942 243.695 435.521 225.67C434.812 202.064 441.751 178.771 455.516 158.544C468.378 139.052 479.5 118.765 491.744 98.8756C498.737 87.5884 506.01 76.3758 514.014 65.6604C530.527 43.6329 547.714 21.9536 564.564 0.125L650.276 0.224392Z" fill="#1E150E"/>
<path d="M1360.45 0.223448C1359.55 18.6957 1361.63 37.7647 1357.03 55.4662C1351.13 78.1649 1351.8 100.739 1351.72 123.339C1351.72 141.314 1354.84 159.338 1357.34 177.264C1359.3 191.634 1362.56 205.855 1364.86 220.175C1365.24 223.728 1364.98 227.312 1364.08 230.791C1358.77 256.15 1355.85 281.832 1338.63 304.406C1332.31 312.685 1330.57 324.693 1329.93 335.16C1328.41 359.4 1329.22 383.74 1328.33 408.005C1327.76 418.751 1326.36 429.45 1324.14 440.027C1317.51 474.162 1317.32 508.073 1326.25 541.96C1328.4 551.136 1329.08 560.535 1328.27 569.879C1327.19 580.083 1329.87 590.322 1335.91 599.067C1341.51 607.037 1346.32 615.422 1350.29 624.128C1355.51 635.664 1364.58 643.719 1375.56 651.128C1384.58 657.219 1392.13 665.025 1400.5 671.887C1403.27 673.894 1406.2 675.73 1409.26 677.381C1411.28 674.55 1412.9 671.511 1414.09 668.332C1415.78 661.072 1415.58 653.415 1418 646.379C1421.84 635.315 1427.71 634.321 1437.65 641.605C1447.29 648.591 1457.31 655.13 1466.72 662.439C1471.85 666.422 1476.27 671.055 1479.86 676.188C1487.31 687.003 1493.91 698.24 1500.84 709.353C1506.32 718.413 1514.65 725.867 1524.83 730.809C1532.05 734.125 1538.68 738.383 1544.48 743.439C1554.48 752.787 1566.59 758.008 1579.81 762.831C1589.45 766.361 1597.79 773.074 1606.07 779.091C1610.82 782.522 1613.6 788.215 1618.51 791.323C1624.3 794.977 1631.29 798.781 1638.03 799.229C1651.45 800.124 1662.32 804.201 1670.47 813.424C1704.17 851.612 1730.09 892.982 1733.63 942.705C1735.03 962.595 1736.63 982.484 1739.24 1002.15C1740.65 1012.44 1744.52 1022.49 1747.67 1032.58C1748.88 1036.56 1751.6 1040.21 1752.47 1044.22C1752.8 1047.79 1752.67 1051.38 1752.08 1054.93C1748.54 1052.89 1743.46 1051.6 1741.69 1048.72C1731.24 1031.78 1720.79 1014.8 1712.09 997.177C1709.06 989.935 1708.25 982.114 1709.73 974.503C1713.07 953.272 1706.41 934.153 1697.26 915.109C1693.25 907.084 1690.31 898.674 1688.5 890.048C1684.71 870.706 1677.04 854.123 1656.48 843.831C1649.54 840.375 1643.9 834.88 1637.58 830.405C1634.23 827.944 1630.69 825.685 1626.99 823.643C1613.4 816.483 1599.84 809.273 1585.94 802.56C1576.77 797.908 1567.18 793.941 1557.26 790.701C1537.02 784.932 1518.19 775.821 1501.77 763.85C1499.86 762.433 1497.84 761.116 1495.84 759.773C1474.53 745.478 1467.45 745.577 1444.31 757.287C1428.3 765.442 1411 770.041 1392.69 762.607C1388.61 761.281 1385.07 758.92 1382.5 755.82C1374.21 742.569 1363.88 729.566 1359.75 715.246C1354.35 696.785 1343.45 679.948 1328.18 666.492C1316.34 656.17 1308.36 642.874 1305.32 628.404C1303.77 622.482 1301.04 616.85 1297.26 611.771C1293.42 606.128 1288.22 606.65 1286.03 612.841C1278.73 632.481 1271.4 652.147 1265.22 672.061C1263.79 677.65 1264.5 683.501 1267.24 688.694C1278.06 708.583 1282.72 729.293 1284.09 751.047C1284.86 760.417 1286.85 769.677 1290.02 778.643C1296.59 798.06 1297.88 816.706 1286.56 835.402C1280.61 845.347 1277.44 856.435 1271.82 866.48C1269.01 871.303 1263.62 874.908 1259.38 879.059L1256.04 877.419C1255.97 875.166 1256.11 872.913 1256.46 870.681C1260.76 854.123 1266.91 837.764 1269.1 820.958C1270.78 807.88 1268.06 794.281 1266.46 780.98C1265.27 774.164 1263.48 767.439 1261.12 760.867C1256.85 746.82 1252.7 732.773 1247.92 718.801C1237.62 687.848 1232.81 656.647 1244.55 625.197C1249.04 613.192 1250.59 600.48 1249.1 587.904C1248.2 579.7 1250.56 571.098 1252.27 562.819C1253.84 554.375 1256.19 546.06 1259.3 537.957C1262.41 530.499 1265.98 522.418 1271.68 516.352C1279.94 507.551 1285.16 498.502 1284.07 487.04C1282.38 469.19 1286.28 452.234 1290.75 434.831C1294.26 421.182 1292.8 406.439 1292.74 392.193C1292.74 366.213 1291.25 340.257 1291.62 314.301C1291.82 301.075 1294.43 287.873 1305.89 277.63C1306.8 276.713 1307.47 275.63 1307.87 274.458C1308.26 273.286 1308.36 272.053 1308.16 270.843C1304.17 256.921 1310.97 244.415 1314.06 231.412C1315.01 226.043 1315.62 220.632 1315.88 215.203C1317.12 204.612 1318.52 194.02 1319.62 183.404C1320.1 178.755 1319.98 174.057 1320.18 169.407C1320.63 158.493 1319.93 147.405 1321.87 136.714C1324.04 123.844 1322.41 110.694 1317.12 98.5516C1313.58 89.7754 1310.46 80.8252 1307.74 71.8252C1301.03 49.7978 1294.6 27.6957 1288.25 5.59366C1287.8 3.97765 1288.98 1.98873 1289.37 0.173828H1311.84C1312.96 3.75391 1314.23 7.28427 1315.21 10.8892C1319.22 25.8062 1323.2 40.7232 1327.15 55.6403L1328.69 55.0436L1343.69 0.173828L1360.45 0.223448Z" fill="#1E150E"/>
<path d="M1103.8 0.22367C1109.41 8.37831 1113.6 17.4778 1120.65 24.5385C1140.47 44.7759 1157.49 66.0078 1165.24 92.56C1167.63 100.74 1174.2 107.999 1179.29 115.557C1186.67 126.77 1194.68 137.684 1201.75 149.021C1211.69 164.833 1221.41 180.794 1230.48 196.979C1234.16 203.518 1235.68 210.951 1238.91 217.788C1243.74 228.404 1247.33 239.816 1254.61 249.114C1259.83 255.807 1263.44 263.378 1265.23 271.358C1267.01 279.338 1266.92 287.557 1264.97 295.506C1264.26 299.283 1264.77 303.159 1266.43 306.694C1273.48 320.915 1269.86 333.42 1258.51 344.111C1247.16 354.801 1234.05 363.851 1223.29 374.865C1214.35 383.546 1207.11 393.497 1201.89 404.301C1195.35 419.218 1187.85 432.743 1174.4 444.08C1167.27 450.629 1160.85 457.754 1155.22 465.361C1148.79 473.317 1143.98 481.844 1144.91 492.212C1144.89 495.534 1144.31 498.835 1143.2 502.007C1140.18 514.888 1138.67 528.01 1138.68 541.165C1138 561.218 1140.18 581.267 1145.19 600.833C1148 611.225 1152.92 621.145 1157.16 631.214C1161.37 642.448 1166.27 653.47 1171.84 664.23C1176.61 673.168 1183.04 681.336 1190.86 688.396C1205.74 700.826 1214.98 716.365 1223.77 732.202C1225.59 736.471 1226.94 740.883 1227.81 745.378L1225.31 746.423C1223.73 744.762 1222.36 742.943 1221.24 741.003C1214.67 725.688 1202.85 713.655 1190.63 701.746C1181.84 693.194 1173.44 684.343 1165.36 675.244C1147.43 656.019 1135.05 633.219 1129.3 608.813C1125.97 595.596 1121 582.747 1114.47 570.501C1104.53 551.209 1104.92 531.667 1108.63 511.505C1111.23 497.383 1113.36 483.187 1115.03 468.916C1116.39 458.991 1121.22 449.69 1128.85 442.315C1136.71 434.135 1144.52 425.881 1151.65 417.204C1154.85 413.301 1156.37 408.279 1158.64 403.754C1165.36 390.478 1171.06 376.729 1178.98 363.975C1188.58 348.685 1195.29 333.594 1188.69 315.942C1187.48 312.744 1187.01 309.361 1187.32 305.998C1188.69 293.567 1182.68 283.075 1176.08 272.534C1167.29 258.263 1160.78 242.7 1150.81 229.274C1141.93 217.266 1136.21 205.407 1137.58 191.037C1137.45 189.664 1137.09 188.316 1136.51 187.034C1132.73 172.686 1124.21 159.659 1112.03 149.618C1096.29 136.723 1086.61 119.063 1084.9 100.143C1084.11 95.5266 1082.32 91.0874 1079.65 87.0656C1071.05 73.1181 1062.04 59.3449 1053.11 45.5466C1047.1 36.2484 1041.11 26.9251 1034.82 17.776C1030.61 11.6849 1025.87 5.91708 1021.37 0L1103.8 0.22367Z" fill="#1E150E"/>
<path d="M511.57 0.223633C506.796 4.62415 502.78 10.1683 497.051 13.2511C478.039 23.1958 462.649 36.472 448.354 51.389C439.929 60.2647 428.134 66.8281 417.462 73.8888C402.999 83.4606 390.249 93.4053 386.233 110.485C384.604 117.447 377.808 123.96 372.023 129.504C356.718 144.123 344.922 159.662 346.748 180.869C346.967 185.302 345.76 189.699 343.266 193.548C332.622 209.634 328.887 227.559 324.281 245.285C318.973 265.771 309.031 284.219 289.598 296.799C279.414 303.469 267.92 308.409 255.701 311.368C236.464 315.768 216.384 317.26 196.725 320.592C188.476 321.92 180.46 324.202 172.882 327.379C154.225 335.882 133.302 339.724 112.362 338.492C95.5122 337.398 78.1286 339.263 60.9696 339.76C56.8132 339.76 52.5443 339.76 48.4722 339.76L47.1523 337.124C50.0842 334.36 53.3207 331.861 56.8133 329.666C72.6287 321.138 90.6785 316.4 109.189 315.918C129.178 315.566 148.647 310.222 165.356 300.503C180.156 292.324 197.652 287.774 214.278 282.404C235.256 275.617 253.595 265.846 267.636 250.208C274.191 243.122 277.747 234.232 277.69 225.073C278.12 215.168 279.434 205.308 281.622 195.587C286.902 168.935 292.855 142.482 290.047 115.06C289.148 105.538 293.614 95.6678 295.299 85.922C296.984 76.1762 299.792 66.3309 299.371 56.6348C298.588 44.9905 302.643 33.4948 310.773 24.3146C317.457 16.5578 323.467 8.35353 329.757 0.348063H389.744C386.065 5.74305 382.273 11.0633 378.791 16.5329C371.349 28.2428 363.43 39.7538 356.97 51.8863C355.011 55.3597 354.09 59.22 354.296 63.0983C354.503 66.9767 355.829 70.7432 358.15 74.038C361.211 72.3474 363.766 71.1043 366.238 69.538C379.493 60.8613 393.367 52.7813 405.751 43.2096C423.472 29.5108 440.098 14.6933 457.2 0.348063L511.57 0.223633Z" fill="#1E150E"/>
<path d="M1920.89 127.889C1916.39 129.037 1911.82 129.966 1907.21 130.673C1881.94 133.383 1868.68 148.076 1860.2 167.369C1853.07 183.628 1841.75 194.592 1820.88 197.079C1812.46 198.073 1804.9 198.446 1796.96 195.537C1786.71 191.833 1775.75 189.496 1765.87 185.22C1763.52 184.092 1761.46 182.547 1759.82 180.682C1758.17 178.817 1756.98 176.671 1756.32 174.38C1755 167.518 1756.88 160.209 1756.8 153.098C1756.8 144.148 1756.32 135.173 1755.45 126.272C1754.02 111.604 1750.79 96.9854 1750.73 82.3419C1750.53 67.1898 1745.93 52.3375 1737.39 39.2068C1729.92 27.0494 1725.82 13.276 1720.2 0.223633H1767.08C1767.39 2.0923 1767.92 3.92604 1768.68 5.69324C1789.57 43.2095 1805.89 81.969 1812.46 123.687C1813.83 132.463 1820.88 134.402 1829.59 129.355C1838.3 124.308 1847.53 118.441 1856.72 113.245C1876.21 102.182 1898.84 99.1981 1920.75 94.7478L1920.89 127.889Z" fill="#1E150E"/>
<path d="M1600.43 0.223633C1601.27 3.90316 1601.97 7.68212 1603.07 11.2373C1604.16 14.7926 1606.91 19.0937 1607.03 23.0715C1607.95 53.1542 1625.03 79.6568 1630.76 108.621C1632.68 117.252 1633.82 126.007 1634.16 134.8C1634.32 148.822 1633.26 162.869 1632.58 176.916C1632.35 178.977 1631.96 181.02 1631.4 183.032L1628.96 183.802C1626.15 179.551 1622.5 175.548 1620.82 170.974C1614.22 153.222 1609.19 134.974 1601.94 117.471C1585.8 78.6126 1566.59 41.0466 1537.74 8.08001C1535.5 5.59384 1533.31 2.93368 1531.09 0.348063L1600.43 0.223633Z" fill="#1E150E"/>
<path d="M1920.89 358.381C1902.99 358.45 1885.61 353.079 1871.66 343.166C1859.87 335.119 1847.18 328.178 1833.77 322.456C1818.94 316.191 1802.88 312.114 1787.49 307.017C1784.12 305.923 1780.89 304.531 1777.58 303.337V301.15C1780.72 299.987 1784.01 299.153 1787.38 298.663C1814.28 297.246 1841.05 292.597 1868.15 299.832C1876.96 302.194 1887.8 298.788 1897.63 297.917C1905.89 297.196 1914.48 295.431 1920.86 302.094L1920.89 358.381Z" fill="#1E150E"/>
<path d="M1920.89 69.8613C1917.07 68.1218 1913.44 66.0921 1910.02 63.795C1901.34 56.9083 1891.77 55.4415 1880.5 57.4553C1871.03 59.0709 1861.42 59.9692 1851.77 60.1404C1842.17 60.389 1833.89 57.4802 1830.4 48.4305C1826.92 39.3808 1829.53 31.6986 1838.27 24.8119C1847 17.9252 1854.58 11.2125 1862.59 4.2761C1863.53 3.03937 1864.24 1.669 1864.66 0.223633H1920.83L1920.89 69.8613Z" fill="#1E150E"/>
<path d="M1920.89 625.347C1904.74 624.85 1888.42 625.347 1872.47 623.457C1864.03 621.972 1856.19 618.542 1849.72 613.513C1843.24 608.839 1844.44 602.548 1851.21 598.098C1855.9 595.015 1861.55 593.126 1866.57 590.416C1872.19 587.433 1878.68 585.046 1882.58 580.794C1890.28 572.416 1899.43 570.154 1910.67 571.944C1914.05 572.259 1917.46 572.351 1920.86 572.217L1920.89 625.347Z" fill="#1E150E"/>
<path d="M681.533 44.0298C681.786 47.9382 681.786 51.8562 681.533 55.7646C677.713 85.5986 684.341 112.748 708.128 135.571C727.365 153.918 739.581 176.369 751.236 198.719C756.853 209.385 757.443 222.04 761.318 233.526C765.194 245.012 770.024 256.548 775.22 267.76C777.718 273.401 781.3 278.616 785.807 283.174C795.642 292.553 801.976 304.384 803.949 317.061C806.709 335.199 815.441 352.216 829.056 365.989C849.838 387.196 857.139 414.221 866.66 440.151C867.733 444.177 867.329 448.4 865.508 452.209C858.881 467.549 859.386 483.634 860.144 499.446C860.752 516.264 856.478 532.938 847.731 547.877C838.38 564.659 839.306 598.147 851.41 613.76C854.462 617.263 857.141 621.009 859.414 624.948C870.142 646.23 889.857 660.998 907.353 677.381C915.244 684.84 922.995 692.299 930.831 699.757C939.256 707.812 948.102 715.619 956.302 723.898C963.07 730.71 969.333 737.895 975.512 745.13C991.519 763.801 1006.97 782.87 1023.42 801.193C1033.11 811.983 1036.4 811.137 1046.93 801.64C1052.24 796.664 1058.51 792.557 1065.43 789.508C1079.93 783.541 1088.35 774.143 1088.97 760.171C1089.56 747.243 1090.74 733.992 1088.27 721.387C1083.02 694.437 1087.85 667.959 1090.2 641.357C1091.66 629.025 1093.99 616.786 1097.17 604.711C1097.82 601.926 1101.16 599.738 1103.29 597.252C1105.03 599.912 1107.84 602.448 1108.32 605.283C1110.87 620.548 1113.37 635.862 1114.92 651.252C1116.88 670.843 1121.94 689.365 1134.94 705.674C1142.47 715.122 1144.38 725.912 1144.8 737.099C1144.81 748.632 1148.38 759.943 1155.11 769.817C1163.9 782.472 1169.32 797.414 1173.44 812.082C1176.42 822.599 1175.13 834.085 1175.35 845.173C1175.58 856.261 1176.87 865.634 1188.22 872.794C1199.56 879.955 1203.24 890.198 1200.55 902.628C1199.49 906.997 1199.61 911.524 1200.9 915.843C1202.19 920.163 1204.6 924.153 1207.96 927.49C1211.34 931.112 1214.92 934.58 1218.69 937.882C1228.93 946.216 1235.27 957.654 1236.44 969.929C1238.77 990.241 1239.75 1010.68 1240.96 1031.06C1241.43 1039.04 1237.81 1045.78 1230.17 1053.04C1228.57 1048.32 1227.36 1045.38 1226.55 1042.35C1221.61 1022.46 1218.13 1002.05 1211.39 982.683C1206.41 968.711 1197.57 955.634 1188.92 942.905C1179.99 929.703 1168.67 917.794 1159.46 904.717C1148.7 889.343 1141.31 872.315 1137.67 854.521C1133.43 834.806 1126.21 815.588 1120.03 796.245C1118.64 793.248 1116.88 790.396 1114.78 787.743C1104.67 799.577 1096.05 810.988 1085.82 821.157C1078.44 828.459 1069.93 834.803 1060.55 840.002C1052.12 844.651 1047.71 849.947 1047.91 858.623C1048.33 876.822 1047.07 895.245 1049.71 913.319C1051.51 925.551 1057.54 937.708 1063.75 948.921C1072.67 965.018 1078.87 982.191 1082.14 999.887C1084.49 1010.12 1088.84 1019.92 1095.01 1028.83C1105.68 1045.11 1111.55 1062.61 1116.21 1081.63C1088.94 1081.63 1062.23 1081.63 1035.5 1081.43C1033.36 1081.43 1030.72 1078.62 1029.29 1076.46C1018.06 1060.23 1014.77 1042.33 1013.73 1023.48C1013.03 1010.84 1010 998.389 1004.77 986.611C998.15 971.711 994.355 955.943 993.541 939.946C992.165 915.407 991.547 890.869 985.116 866.753C983.791 861.074 983.916 855.205 985.481 849.574C989.385 834.855 985.678 821.778 977.225 809.148C964.699 790.378 947.709 775.163 929.735 760.494C916.508 749.704 904.46 737.746 892.047 726.285C889.772 724.221 887.638 722.058 885.448 719.945L882.92 720.815C883.029 724.407 883.547 727.98 884.465 731.481C905.415 786.698 900.922 841.916 885.111 897.258C883.06 904.419 881.038 912.176 882.021 919.336C884.83 938.802 878.848 956.976 874.776 975.623C872.557 985.791 873.231 996.432 872.838 1006.87C872.67 1011.57 874.017 1016.42 873.063 1020.92C869.246 1040.07 871.451 1059.79 879.438 1077.9C879.739 1079 879.908 1080.13 879.943 1081.26H823.776C822.4 1055.08 820.659 1029.05 819.76 1002.95C819.311 988.899 820.883 974.802 820.518 960.681C820.24 947.157 822.635 933.695 827.595 920.902C831.732 909.082 834.296 896.875 835.234 884.529C836.414 872.447 838.941 861.035 845.99 850.643C854.219 838.411 855.623 825.234 854.078 811.436C852.281 795.5 850.427 779.563 849.108 763.577C847.282 741.923 835.88 724.022 821.024 707.738C797.827 682.404 785.61 654.161 789.205 621.169C789.739 616.197 787.969 611.225 788.503 606.252C789.683 595.984 791.508 585.741 793.446 575.548C794.766 568.562 797.715 561.7 798.192 554.714C800.017 526.844 799.905 498.999 794.036 471.402C793.278 467.027 793.278 462.576 794.036 458.201C797.749 431.417 792.258 404.264 778.281 380.284C771.316 368.127 766.317 355.97 766.401 341.699C766.401 333.868 760.56 325.589 755.898 318.23C741.491 295.456 728.882 272.061 723.153 246.329C719.533 230.162 716.862 213.839 715.149 197.426C714.082 186.811 707.875 179.675 699.956 172.888C697.802 170.93 695.493 169.111 693.047 167.443C673.95 155.46 672.49 136.416 670.075 118.789C666.652 97.3662 668.007 75.5573 674.063 54.596C675.186 51.0159 676.871 47.5602 678.416 44.0547L681.533 44.0298Z" fill="#1E150E"/>
<path d="M93.1817 898.551C99.7252 885.076 106.156 871.551 112.84 858.151C114.946 853.924 118.457 850.195 120.282 845.919C126.826 831.002 133.959 816.408 138.958 801.168C146.699 778.339 160.653 757.543 179.595 740.605C187.996 732.483 195.899 723.968 203.269 715.097C211.402 705.249 221.605 696.883 233.319 690.459C257.246 677.58 280.162 663.111 302.573 648.194C318.208 637.497 337.408 631.692 357.167 631.686C384.633 631.404 412.071 630.633 439.48 629.374C455.687 628.935 471.829 627.364 487.756 624.675C495.675 623.183 503.089 617.614 509.605 612.716C523.815 602.001 537.38 590.589 551.056 579.327C555.395 575.901 558.747 571.607 560.832 566.803C562.918 561.998 563.678 556.822 563.048 551.706C562.033 546.128 558.609 541.118 553.5 537.733C523.506 519.932 493.035 502.728 462.396 485.772C456.162 482.317 448.186 481.447 441.727 478.314C436.7 475.828 433.077 471.204 428.359 468.096C423.914 465.278 419.218 462.783 414.317 460.637C395.838 452.035 377.809 442.687 358.628 435.303C329.421 423.991 297.967 423.892 267.609 428.665C235.509 433.637 204.505 431.723 172.799 427.646C145.906 424.413 118.845 422.397 91.7213 421.604C70.0408 420.809 50.0452 415.265 30.2182 408.527C27.2133 407.483 25.1071 404.301 22.5796 402.113C25.6126 400.497 28.5052 397.737 31.7067 397.414C67.5414 393.933 102.927 388.364 139.66 391.472C178.387 394.754 217.592 393.585 256.572 394.232C264.688 394.232 272.888 393.262 280.92 393.908C304.289 396.094 327.903 393.068 349.613 385.107C354.551 383.3 359.9 382.547 365.228 382.91C370.556 383.273 375.712 384.741 380.28 387.196C394.261 394.054 409.884 397.871 425.859 398.334C430.255 398.396 434.591 399.242 438.61 400.82C464.39 411.784 491.041 421.48 512.216 439.505C527.777 452.862 547.511 461.775 568.861 465.087C577.286 466.504 585.318 471.079 593.35 474.51C599.472 477.145 605.033 480.899 611.323 483.062C623.933 487.363 633.79 494.176 638.789 505.314C643.367 515.656 654.712 524.059 652.269 536.316C650.865 543.327 648.815 552.004 643.395 556.206C632.695 564.634 619.44 570.501 607.251 577.462C602.636 579.681 598.296 582.322 594.305 585.343C583.549 594.915 573.13 604.81 562.823 614.78C548.906 628.275 530.964 638.014 511.065 642.873C481.634 650.531 457.369 664.901 447.372 692.87C442.597 706.246 432.347 716.091 420.327 724.917C412.683 730.569 405.582 736.773 399.096 743.464C391.036 751.768 387.245 761.364 390.867 772.701C391.881 776.185 391.595 779.865 390.053 783.193C373.68 815.513 369.973 850.195 363.43 884.479C352.196 943.377 358.515 1002.4 360.621 1061.42C360.846 1067.69 360.621 1073.85 360.621 1080.71H296.029C296.029 1073.25 296.029 1066.09 296.029 1058.98C296.563 1012.02 296.029 965.056 298.107 918.142C298.95 897.656 304.595 877.319 308.077 856.908C309.594 847.933 310.886 838.908 312.739 829.983C315.548 817.054 318.187 804.101 321.866 791.372C324.79 781.785 328.363 772.362 332.566 763.154C338.379 749.853 343.968 736.378 351.157 723.649C358.936 709.876 365.452 696.052 365.199 680.414C365.199 670.992 361.689 668.705 351.859 672.285C345.541 674.572 339.868 678.252 333.549 680.464C323.495 683.945 313.16 686.754 302.91 689.738C300.86 690.334 298.445 690.136 296.507 690.906C257.499 706.246 221.72 724.42 201.388 760.519C186.953 786.127 168.923 810.242 153.168 835.104C139.772 856.411 126.629 877.866 114.834 899.745C111.043 906.83 111.801 915.88 110.565 924.034C105.763 955.485 101.691 987.009 85.2901 1016.02C81.6111 1022.59 82.2854 1030.94 80.9654 1038.7C76.8091 1040.59 69.451 1036.21 69.1701 1045.38C68.9735 1051.82 70.5181 1053.89 77.5952 1053.89C75.6013 1063.01 73.7758 1071.29 71.9785 1080.32H42.1256L44.6251 1054.33L47.4335 1055.53C50.2418 1052.67 55.2408 1050.01 55.5778 1046.93C55.9148 1043.84 51.7304 1040.34 48.6693 1037.33C50.4782 1016.55 56.5099 996.24 66.4742 977.363C76.3596 957.896 83.9421 937.857 86.3573 916.377C86.947 910.957 85.6555 902.405 96.8608 902.355L94.8385 900.043L93.1817 898.551Z" fill="#1E150E"/>
<path d="M1914.57 1025.69C1910.94 1022.88 1907.53 1019.83 1904.38 1016.59C1887.3 996.705 1871.18 975.871 1853.26 956.429C1839.16 940.988 1827.8 923.735 1819.56 905.264C1813.88 892.549 1811.38 878.892 1812.23 865.237C1812.7 852.853 1811.29 840.47 1808.05 828.416C1805.46 820.55 1800.97 813.274 1794.91 807.085C1780.33 790.925 1764.72 775.461 1749.61 759.674C1737.25 746.775 1721.35 736.904 1703.44 731.008C1672.55 720.517 1648.25 701.423 1625.17 681.136C1622.89 679.122 1622.14 675.741 1620.68 672.981L1616.07 676.412C1616.63 690.757 1621.01 703.984 1632.92 714.674C1644.83 725.365 1655.81 735.558 1668.11 745.155C1675.49 750.923 1684.57 755.099 1692.82 760.072C1706.67 768.251 1720.91 776.182 1723.26 792.69C1723.61 798.205 1723.61 803.733 1723.26 809.248C1721.07 807.562 1719.02 805.742 1717.11 803.803C1703.43 787.205 1684.64 774.435 1663 767.008C1653.46 763.165 1645.09 757.361 1638.59 750.077C1629.3 740.133 1618.93 732.475 1605.37 728.1C1603.32 727.428 1601.27 726.757 1599.25 726.036C1569.03 715.37 1566.42 711.79 1568.36 683C1569.23 670.147 1569.98 657.741 1556.9 648.194C1553.53 645.708 1552.52 639.741 1552.07 635.241C1550.89 623.929 1546.82 614.805 1535.55 607.893C1518 597.277 1509.72 581.714 1507.47 563.142C1505.36 546.187 1501.29 529.877 1490.14 515.06C1480.79 502.629 1480.4 488.259 1482.28 473.168C1485.09 450.444 1483.66 427.323 1486.63 404.649C1489.86 380.409 1496.04 356.467 1501.21 332.55C1502.29 329.659 1503.9 326.946 1505.98 324.52C1507.23 323.213 1508.62 322.022 1510.14 320.964C1510.5 325.042 1511.49 327.901 1510.87 330.412C1504.61 355.05 1507.58 379.936 1508.9 404.674C1509.99 416.464 1512.42 428.127 1516.18 439.48C1520.42 454.149 1524.04 469.314 1531.17 482.913C1541.76 503.151 1542.13 527.167 1560.94 544.372C1566.56 549.344 1570.15 556.156 1574.98 562.371L1572.17 563.565L1571.84 562.148C1573.72 562.446 1576.19 562.148 1577.45 563.142C1583.41 567.916 1588.24 567.021 1592.17 561.278C1596.5 555.037 1599.89 548.2 1604.84 542.383C1613.58 531.693 1623.05 521.489 1633.2 511.828C1640.04 505.77 1647.94 500.732 1656.59 496.911C1670.47 490.546 1682.52 480.378 1699.62 480.129C1703.32 479.63 1706.82 478.304 1709.78 476.275C1737.67 460.811 1766.57 465.635 1795.58 472.795C1796.82 473.093 1797.71 474.485 1800.33 476.623C1794.93 478.488 1790.75 479.855 1786.65 481.347C1770.22 487.215 1752.67 491.441 1737.64 499.397C1713.29 512.325 1690.21 527.242 1667.43 542.283C1659.36 547.418 1652.87 554.254 1648.53 562.173C1645.47 568.388 1646.17 577.313 1648.53 584.076C1655.29 602.995 1663.13 621.599 1672.01 639.816C1675.14 645.756 1680.6 650.491 1687.37 653.141C1701.4 657.815 1714.33 664.725 1725.54 673.528C1743.22 687.644 1764.48 697.79 1787.52 703.113C1803.58 706.868 1813.69 716.042 1820.15 729.318C1825.77 740.953 1832.17 752.365 1838.77 763.627C1849.67 782.273 1848.26 801.939 1846.27 821.903C1843.3 850.227 1845.13 878.785 1851.69 906.632C1856.97 928.808 1869.16 947.38 1885.17 964.087C1896.48 975.884 1904.97 989.595 1910.1 1004.39C1912.46 1011.08 1915.44 1017.56 1918.14 1024.28L1914.57 1025.69Z" fill="#1E150E"/>
<path d="M1069.37 723.575C1063.47 713.63 1056.81 704.108 1051.84 693.89C1044.34 678.426 1037.52 662.912 1025.53 649.387C1019.91 643.048 1017.1 634.644 1013.54 627.012C1009.13 617.888 1005.76 608.316 1000.73 599.49C993.247 586.062 990.07 571.073 991.546 556.156C993.484 529.181 987.839 503.723 970.68 480.676C958.969 464.963 957.2 446.591 953.83 428.466C951.98 421.346 948.881 414.526 944.646 408.254C936.951 395.351 928.161 382.97 920.607 370.017C914.822 359.246 905.917 350.024 894.798 343.29C882.47 336.085 872.988 325.656 867.669 313.456C858.787 293.684 844.815 276.019 826.864 261.868C812.822 251.029 803.639 236.758 804.678 220.548C806.363 194.916 797.095 172.217 786.199 149.568C779.007 135.144 775.333 119.539 775.415 103.773C775.186 92.7675 773.918 81.7984 771.623 70.9802C767.636 48.6047 771.876 27.3479 779.627 6.33978L783.11 5.39502L792.63 23.1463C811.025 57.5549 817.905 94.6486 824.056 131.767C826.409 147.114 833.179 161.668 843.714 174.032C854.644 185.898 860.003 201.03 858.682 216.297C858.177 222.264 862.193 228.877 865.479 234.595C868.765 240.313 875.14 245.087 877.864 251.078C886.935 271.117 902.577 286.456 919.483 301.398C926.28 307.39 930.268 315.893 935.351 323.351C937.766 326.857 939.339 330.81 941.978 334.216C967.45 366.536 983.879 402.386 995.337 440.201C998.009 447.806 1001.15 455.276 1004.75 462.577C1012.02 478.886 1019.4 495.146 1026.99 511.952C1030.44 504.071 1034.82 495.991 1037.52 487.513C1041.45 475.082 1043.14 462.03 1047.83 449.847C1051.06 441.444 1057.54 433.986 1062.93 426.279C1067.99 419.019 1073.55 412.008 1078.8 404.848C1079.94 403.525 1080.75 401.998 1081.16 400.373C1084.11 380.11 1089.25 360.022 1087.42 339.387C1086.99 337.214 1086.83 335.004 1086.95 332.799C1091.66 305.003 1086.47 277.854 1081.05 250.606C1079.46 242.745 1079.65 234.683 1081.61 226.888C1088.09 203.847 1084.53 179.49 1071.64 158.667C1069.05 154.375 1067.16 149.78 1066.02 145.018C1087.84 156.703 1105.59 170.924 1110.96 194.07C1113.23 204.015 1115.59 214.109 1118.79 223.904C1120.83 230.531 1123.88 236.879 1127.86 242.774C1135.15 253.418 1139.93 265.258 1141.91 277.581C1144.14 290.059 1147.97 302.27 1153.34 313.978C1160.24 328.895 1161.76 342.445 1150.3 356.243C1146.48 360.793 1144.69 366.635 1141.88 371.832C1133.45 386.749 1124.8 401.815 1116.6 416.931C1106.1 436.273 1095.31 455.516 1085.71 475.231C1077.29 492.287 1070.12 509.764 1063.5 527.441C1060.88 534.8 1059.73 542.506 1060.1 550.214C1061.73 592.413 1063.76 634.578 1066.19 676.71C1066.95 689.34 1069.84 701.896 1071.81 714.476C1072.2 716.962 1072.48 719.672 1072.85 722.282L1069.37 723.575Z" fill="#1E150E"/>
<path d="M3.14581 756.864C-2.86408 734.265 8.48181 717.086 24.686 700.777C45.6364 679.619 65.4915 657.617 85.1781 635.515C96.1869 623.084 108.937 613.885 126.742 610.653C132.634 609.711 138.166 607.473 142.827 604.146C147.489 600.818 151.131 596.507 153.421 591.609C159.431 579.178 170.58 571.719 183.386 565.802C192.429 561.65 190.295 554.118 190.351 548.002C190.351 541.463 183.021 542.383 177.966 542.457C151.315 542.88 125.113 545.093 100.09 554.49C90.7385 558.021 80.432 559.612 70.4061 561.601C52.7978 565.106 35.077 568.264 17.3844 571.546C12.8348 572.366 8.22897 572.962 2.83693 573.808V505.687C12.5258 506.607 22.4957 506.557 31.8756 508.695C46.9727 512.061 62.6302 512.995 78.101 511.455C111.605 508.521 145.333 507.601 178.893 505.19C200.854 503.598 222.647 499.372 244.552 498.974C262.245 498.626 280.022 502.082 297.714 504.245C302.826 504.866 307.684 507.054 312.767 508.098C333.774 512.35 355.202 514.463 375.787 521.226C409.234 532.165 443.58 541.115 477.421 551.06C486.066 553.357 494.336 556.641 502.022 560.83C514.744 568.289 514.239 581.316 500.618 587.333C490.834 591.361 480.42 594.06 469.726 595.338C450.657 597.824 431.336 598.993 412.183 601.181C393.957 603.244 376.685 603.219 359.302 595.636C351.045 592.007 339.868 592.579 330.095 592.976C308.33 593.846 286.65 596.283 264.857 597.178C229.443 598.67 197.793 608.067 170.833 629.051C163.601 634.315 156.004 639.172 148.085 643.595C125.619 657.045 102.702 669.898 80.6848 683.945C69.648 691.006 60.1275 699.956 50.2982 708.384C33.757 722.555 15.5028 735.483 6.17905 755.025C5.64546 755.945 3.76365 756.467 3.14581 756.864Z" fill="#1E150E"/>
<path d="M666.508 572.117C668.305 576.667 671.534 581.167 671.619 585.716C672.124 611.821 686.447 633.277 700.292 654.882C706.009 663.433 714.33 670.386 724.303 674.945C744.524 685.014 757.133 701.497 766.429 720.044C773.365 733.818 780.92 747.392 787.772 761.141C789.67 765.136 790.772 769.392 791.03 773.721C791.451 779.19 790.019 784.784 790.581 790.229C792.855 812.356 787.07 833.414 781.762 854.869C779.375 864.391 782.128 874.759 781.959 884.853C781.959 891.888 780.864 898.899 780.021 905.91C778.42 919.535 774.966 933.258 775.331 946.733C775.893 965.827 775.977 984.647 772.523 1003.64C770.529 1014.88 772.046 1026.66 772.972 1038.15C774.152 1052.15 776.37 1066.07 778.196 1080.66H706.751C701.752 1059.18 696.838 1038.2 691.951 1017.19C691.698 1016.38 691.585 1015.54 691.614 1014.71C696.22 981.739 688.048 947.877 701.556 915.457C710.318 894.449 712.256 872.098 713.632 849.922C715.008 827.745 714.896 805.966 715.626 783.989C716.183 772.864 712.645 761.879 705.544 752.688C697.484 742.221 693.749 730.561 690.716 718.229C687.859 706.403 682.931 695.045 676.112 684.567C666.367 669.923 659.262 654.733 658.785 637.951C658.251 618.957 659.178 599.938 659.796 580.918C660.353 578.06 661.374 575.288 662.828 572.689L666.508 572.117Z" fill="#1E150E"/>
<path d="M964.698 9.12417C965.486 12.3936 965.89 15.726 965.906 19.0689C965.243 26.7805 964.014 34.4458 962.227 42.0161C954.223 73.3916 959.419 103.996 968.518 134.402C968.983 136.571 969.856 138.655 971.102 140.568C984.694 157.598 991.125 177.164 997.107 196.929C998.15 200.68 1000.14 204.173 1002.92 207.148C1016.09 220.2 1021.26 236.335 1026.96 252.446C1028.97 258.451 1032.18 264.092 1036.42 269.103C1042.62 276.039 1046.51 284.363 1047.66 293.144C1048.81 300.379 1052.94 307.241 1054 314.475C1055.16 322.406 1056.48 331.158 1054 338.542C1048.78 353.459 1045.58 368.376 1047.43 384.063C1047.82 388.477 1047.21 392.913 1045.64 397.116C1044.68 399.925 1041.68 402.088 1039.6 404.574C1037.18 402.337 1033.98 400.447 1032.52 397.787C1028.56 390.329 1025.44 382.472 1021.88 374.815C1010.44 350.878 995.318 328.456 976.943 308.185C971.023 301.458 966.132 294.068 962.396 286.208C950.881 261.943 935.8 240.189 912.351 223.308C891.091 208.018 879.83 187.034 873.736 164.162C866.348 137.681 860.471 110.887 856.128 83.8833C853.516 66.3061 855.791 48.1321 856.128 30.2317C856.128 27.7456 858.318 25.1103 859.497 22.5247H862.306C863.663 25.9748 864.742 29.5057 865.535 33.0909C868.765 56.3614 871.882 79.6319 874.719 102.927C875.646 112.061 880.239 120.599 887.665 126.993C892.959 131.629 897.327 137.026 900.584 142.955C909.711 160.234 926.561 171.322 941.979 186.587C941.979 182.037 942.709 179.526 941.979 177.512C934.789 160.358 936.362 143.079 938.637 125.303C940.378 111.529 938.918 97.3086 937.57 83.386C936.531 72.7452 936.418 62.7012 941.164 52.5576C946.163 41.892 949.59 30.6046 954.111 19.7898C956.278 15.7497 958.863 11.8962 961.834 8.27881L964.698 9.12417Z" fill="#1E150E"/>
<path d="M1709.08 1080.71H1589.56C1588.41 1059.63 1588.29 1038.7 1585.74 1018.01C1583.8 1002.22 1578.8 986.761 1575.12 971.148C1574.95 970.352 1574.17 969.656 1574.03 968.885C1568.89 940.99 1548.5 918.764 1538.03 892.858C1537.43 891.288 1536.59 889.799 1535.53 888.433C1505.84 851.662 1477.98 813.375 1430.75 791.472C1430.24 791.223 1429.85 790.776 1429.65 788.986C1432.61 789.376 1435.53 789.932 1438.41 790.652C1467.2 799.08 1493.32 811.013 1514.77 830.853C1524.49 839.828 1537.41 846.118 1548.92 853.576C1558.72 859.916 1569.76 865.162 1578.16 872.695C1604.5 896.413 1633.26 918.54 1648.37 950.289C1651.03 955.29 1654.38 959.983 1658.33 964.261C1686.08 996.78 1699.7 1034.32 1708.27 1073.65C1708.69 1075.67 1708.69 1077.88 1709.08 1080.71Z" fill="#1E150E"/>
<path d="M244.834 1080.71H189.902C188.246 1058.71 186.617 1037.03 185.044 1015.35C184.735 1011.23 185.718 1006.82 184.426 1002.92C176.17 978.457 179.09 953.695 181.168 928.933C181.623 923.18 181.255 917.399 180.073 911.728C169.514 924.781 160.78 938.48 159.376 954.665C158.66 963.77 158.66 972.908 159.376 982.012C160.575 999.117 157.814 1016.26 151.26 1032.38C149.631 1036.48 148.451 1040.71 147.524 1042.97L140.082 1039.29C138.285 1042.2 134.466 1045.56 135.168 1047.9C136.038 1050.95 140.504 1053.19 143.396 1055.78L147.3 1055.25C144.892 1061.11 142.078 1066.83 138.875 1072.38C137.892 1073.95 133.062 1074.67 130.45 1074.05C128.709 1073.6 126.855 1070.25 126.799 1068.16C125.956 1036.48 124.524 1004.81 125.001 973.186C125.563 938.753 143.003 909.391 164.038 881.496C180.129 860.165 194.733 837.79 212.875 817.925C235.988 792.616 253.203 762.434 285.892 744.608C288.167 743.365 290.358 741.973 293.334 740.232C297.715 747.219 297.126 754.155 292.745 758.804C276.765 775.809 269.576 796.097 261.46 816.384C254.439 833.986 243.907 850.494 237.195 868.171C232.871 879.483 232.281 891.988 230.736 904.021C228.911 917.994 228.462 932.09 226.383 946.038C223.384 967.398 225.197 989.072 231.719 1009.81C238.852 1032.63 240.706 1056.5 244.834 1080.71Z" fill="#1E150E"/>
<path d="M1317.74 983.156C1304.85 996.73 1295.1 1009.26 1295.72 1026.59C1296.37 1044.47 1295.72 1062.34 1295.72 1080.64H1267.64C1267.02 1072.81 1266.04 1064.75 1265.84 1056.67C1265.53 1043.77 1266.49 1030.84 1265.53 1018.01C1264.91 1009.39 1265.7 1001.53 1270.98 994.195C1282.25 978.905 1289.79 961.697 1293.11 943.676C1294.78 936.081 1298.01 928.824 1302.66 922.27C1319.51 896.985 1323.13 869.638 1320.91 841.047C1320.27 832.867 1321.14 824.613 1321.19 816.384C1321.19 804.301 1321.89 792.169 1321.19 780.111C1320.32 764.398 1319.23 748.636 1316.73 733.097C1315.1 723.152 1310.83 713.506 1307.6 703.76C1306.14 699.26 1304.06 694.909 1302.91 690.36C1302.8 689.464 1302.95 688.559 1303.34 687.725C1303.73 686.892 1304.34 686.158 1305.13 685.586C1306.42 685.015 1308.98 686.258 1310.75 687.153C1312.04 687.94 1313.09 688.999 1313.81 690.236C1326.56 709.23 1339.95 727.951 1343.66 750.475C1344.29 754.587 1345.47 758.618 1347.17 762.484C1356.63 782.92 1354.44 803.804 1352.79 825.185C1351.61 840.873 1350.31 857.306 1359.64 872.621C1363.09 878.289 1361.41 886.27 1362.67 893.132C1364.13 901.063 1366.13 908.919 1368.15 916.775C1372.39 933.259 1375.7 949.717 1371.86 966.772C1371.42 970.907 1372.03 975.075 1373.62 978.979C1381.85 1005.66 1383 1032.83 1380.93 1060.23C1380.45 1066.82 1379.8 1073.4 1379.18 1080.54H1338.44C1332.45 1064.55 1324.82 1049.21 1321.3 1033.3C1318.16 1017.56 1318.95 1001.23 1317.74 983.156Z" fill="#1E150E"/>
<path d="M531.987 1081.14C509.127 1081.14 487.054 1079.94 464.98 1081.38C423.107 1084.14 398.225 1051.97 395.417 1025.99C392.609 1000.48 388.817 975.026 386.992 949.468C386.385 936.247 387.071 923.005 389.042 909.888C390.53 897.582 393.535 885.399 396.119 873.217C397.27 867.897 398.927 862.701 400.528 857.455L403.983 857.704C403.983 862.676 404.235 867.648 403.983 872.422C402.354 899.123 398.927 925.725 404.207 952.526C409.487 979.327 421.057 1002.6 445.406 1020.08C447.979 1022.08 450.426 1024.2 452.736 1026.44C460.824 1033.75 466.3 1033.45 470.793 1023.95C473.49 1016.96 475.115 1009.68 475.624 1002.3C478.432 980.098 479.864 957.722 483.88 935.72C486.014 924.084 492.53 913.07 496.883 901.734C498.764 896.761 500.169 891.789 501.769 886.816C508.341 866.48 515.586 846.317 521.287 825.806C526.516 807.402 534.051 789.573 543.754 772.652L548.641 763.95L552.123 764.472C551.084 772.552 551.281 780.98 548.753 788.687C545.552 798.632 539.458 807.632 536.003 817.428C533.953 823.27 534.599 829.858 533.953 836.099C533.805 839.368 533.402 842.624 532.746 845.844C530.092 855.949 529.202 866.354 530.106 876.698C531.145 889.129 528.196 901.734 527.466 914.289C526.848 925.228 526.792 936.192 526.679 947.156C526.679 959.222 526.679 971.288 526.679 983.355C526.904 999.838 526.848 1016.32 527.775 1032.78C528.561 1046.83 530.583 1060.8 532.044 1074.82C531.987 1076.51 531.987 1078.38 531.987 1081.14Z" fill="#1E150E"/>
<path d="M1378.71 796.967C1388.96 803.829 1399.83 810.069 1409.32 817.677C1426.17 831.301 1442.71 845.497 1458.8 859.942C1464.33 865.031 1468.94 870.852 1472.45 877.196C1482.48 895.22 1492.11 913.444 1501.12 931.891C1512.13 954.267 1524.01 976.294 1526.2 1001.5C1528.25 1024.77 1534.21 1047.77 1538.45 1070.87C1539.01 1073.85 1539.6 1076.81 1540.3 1080.39H1435.15C1436.19 1072.46 1437.06 1064.43 1438.36 1056.47C1439.09 1051.85 1441.16 1047.32 1441.42 1042.7C1442.93 1023.21 1445.69 1003.67 1444.93 984.225C1443.44 945.739 1441.92 907.154 1420.75 871.651C1414.09 860.489 1411.93 847.287 1406.71 835.329C1403.77 829.57 1400 824.178 1395.47 819.293C1389.66 812.257 1383.23 805.619 1377.08 798.807L1378.71 796.967Z" fill="#1E150E"/>
<path d="M2.58439 995.139V867.922C2.73614 864.604 2.63297 861.282 2.27552 857.977C-0.532839 839.729 6.71269 824.289 18.3955 809.72C27.5507 798.259 35.4703 786.052 44.4571 774.492C48.9785 768.624 54.6232 763.453 59.7625 757.983C67.2608 750.003 74.8995 742.122 82.2293 733.992C85.487 730.362 87.2564 725.39 91.1038 722.431C108.684 708.857 126.714 695.73 144.659 682.652C146.607 681.254 148.851 680.214 151.259 679.594C167.856 675.442 181.617 668.779 191.446 654.931C197.849 645.931 211.442 645.136 222.76 642.898L224.445 644.664C220.232 649.188 215.711 653.515 211.891 658.288C205.011 666.915 199.113 676.188 191.783 684.517C186.714 690.39 180.674 695.553 173.866 699.832C153.871 712.064 139.183 728.323 125.478 745.751C118.406 754.466 110.392 762.552 101.551 769.892C91.344 778.441 84.014 789.327 80.3757 801.342C76.2474 814.494 70.4622 827.223 64.9298 839.977C63.7222 842.737 60.1839 844.626 58.19 847.187C52.5733 854.646 52.5732 862.924 52.1238 871.576C49.7929 906.383 45.3556 940.816 20.0804 969.979C13.7335 977.189 9.0717 985.642 2.58439 995.139Z" fill="#1E150E"/>
<path d="M881.065 361.116C884.211 363.602 888.17 365.542 890.361 368.575C899.347 380.782 908.503 392.964 916.226 405.867C921.961 415.976 926.87 426.437 930.914 437.168C933.301 443.035 935.94 449.599 935.407 455.541C932.795 483.908 940.012 511.579 941.529 539.623C942.736 562.371 954.728 582.236 960.317 603.766C961.596 607.184 963.919 610.222 967.029 612.543C985.396 627.229 998.244 646.542 1003.85 667.885C1009.18 688.246 1018.06 707.887 1023.5 728.199C1026.54 739.437 1025.89 751.42 1026.87 763.006L1023.2 763.925C1021.02 761.578 1019.04 759.084 1017.3 756.467C1014.49 751.296 1011.68 745.975 1009.32 740.58C1004.11 728.352 994.574 717.94 982.138 710.895C972.03 705.191 964.597 696.439 961.215 686.258C957.087 674.722 949.982 665.548 937.457 659.929C926.841 655.23 922.46 646.727 920.073 636.708C918.276 629.25 914.232 622.388 911.648 615.103C908.503 606.054 904.599 597.004 903.223 587.756C901.206 573.865 900.268 559.868 900.415 545.863C900.375 535.786 901.878 525.75 904.88 516.029C911.037 497.159 910.743 477.098 904.037 458.375C900.989 448.074 899.963 437.385 901.005 426.776C901.931 413.45 897.803 401.69 891.625 390.13C888.142 383.641 884.126 377.401 880.7 370.887C879.588 368.191 878.752 365.412 878.201 362.583L881.065 361.116Z" fill="#1E150E"/>
<path d="M600.568 1075.37C592.125 1064.18 586.696 1051.42 584.701 1038.08C582.426 1023.16 579.618 1008.09 577.708 993.026C577.152 986.73 577.311 980.399 578.185 974.131C579.533 961.476 582.285 948.673 575.377 936.69C566.643 921.4 569.142 906.184 574.703 890.919C577.174 884.082 580.797 877.568 582.903 870.682C587.565 855.317 591.328 839.778 595.99 824.389C597.619 818.845 600.399 813.549 602.169 808.03C604.808 799.851 606.943 791.522 609.442 783.293C612.981 771.657 617.109 760.146 620.142 748.486C623.681 734.862 626.04 720.989 629.522 707.34C632.162 696.923 635.532 686.605 639.155 676.387C640.25 673.304 643.227 670.744 645.361 667.935L647.72 668.581C647.72 672.509 647.72 676.437 647.72 680.365C647.72 694.387 648.254 708.434 647.917 722.431C647.664 733.346 646.625 744.285 645.614 755.174C644.322 768.823 641.486 782.522 641.598 796.121C641.795 818.348 641.879 840.301 637.357 862.453C632.836 884.604 632.751 907.651 629.494 930.151C627.444 944.247 626.124 959.438 619.103 971.744C607.308 992.479 605.061 1013.76 605.061 1035.99C605.061 1046.45 604.05 1056.9 603.264 1067.34C602.653 1070.08 601.75 1072.77 600.568 1075.37Z" fill="#1E150E"/>
<path d="M435.071 925.353C441.333 897.507 437.402 870.408 435.071 843.309C434.585 834.517 434.886 825.705 435.97 816.956C437.149 804.525 439.592 792.367 440.435 780.011C441.034 769.7 446.057 759.981 454.477 752.837C467.786 740.804 478.494 726.716 486.071 711.268C491.594 700.363 499.619 690.593 509.637 682.581C519.654 674.568 531.445 668.489 544.26 664.727C565.779 658.783 584.61 646.944 598.04 630.916C601.08 627.416 604.546 624.223 608.374 621.393C614.468 616.769 618.597 617.913 619.861 624.999C620.861 629.6 620.61 634.347 619.131 638.846C613.177 653.937 606.381 668.68 599.837 683.597C597.777 688.549 594.513 693.039 590.277 696.751C586.04 700.463 580.934 703.306 575.32 705.078C563.809 708.886 554.342 716.397 548.809 726.111C543.84 734.415 536.414 741.368 527.325 746.224C512.156 754.2 500.816 766.822 495.45 781.702C491.525 791.592 486.707 801.186 481.044 810.392C471.551 826.204 467.002 843.185 462.508 860.488C457.734 878.936 450.264 896.886 443.383 914.861C442.12 918.789 437.935 922.021 435.071 925.353Z" fill="#1E150E"/>
<path d="M151.145 5.91693C152.044 8.16319 152.665 10.4888 152.999 12.8533C153.308 29.1377 153.785 45.4222 153.392 61.7066C153.111 72.9192 145.837 80.8998 136.317 88.0599C115.788 103.574 95.8768 119.759 75.769 135.695C74.4856 137.018 73.3386 138.441 72.3425 139.946C75.2531 140.614 78.2395 140.99 81.2451 141.065C98.5165 139.374 115.928 138.206 132.947 135.372C152.858 132.04 165.552 120.181 174.061 104.369C177.26 97.7793 181.182 91.4839 185.772 85.5738C189.395 81.2727 195.18 78.3639 201.583 73.6651C201.976 77.2451 202.51 78.3887 202.117 79.2092C195.377 93.7533 189.423 108.645 181.475 122.667C171.927 139.474 154.262 147.529 134.576 152.974C120.141 156.902 105.565 160.035 93.4895 169.457C82.7054 177.91 68.4953 179.004 54.3131 180.72C40.861 182.336 28.0269 188.029 14.9961 192.131C11.3171 193.299 7.8907 195.164 2.10548 197.675C2.10548 189.073 2.10548 182.037 2.10548 175.001C2.10548 166.996 3.6503 158.841 2.33037 151.035C-0.983491 131.916 10.2219 119.609 25.5274 108.969C31.1441 105.04 38.0525 102.48 43.2199 98.2035C49.8473 92.8267 55.7131 86.7574 60.6881 80.129C67.7932 70.4081 76.6395 62.875 89.3894 60.2397C119.326 54.1486 136.598 37.168 144.939 11.8588C145.969 9.63591 147.268 7.51862 148.814 5.54395L151.145 5.91693Z" fill="#1E150E"/>
<path d="M268.957 8.9251C269.575 13.3256 270.558 17.7013 270.754 22.1267C271.484 38.61 271.485 55.1182 272.608 71.5766C274.883 104.195 274.602 136.714 266.991 168.836C264.886 176.043 261.441 182.891 256.797 189.098C249.214 200.186 240.845 210.877 232.476 221.418C224.978 230.94 213.745 235.738 201.585 239.02C179.848 244.937 158.308 251.451 134.942 250.581C129.058 250.598 123.347 252.347 118.71 255.553C105.848 264.727 92.171 265.498 77.371 260.973C71.1926 259.059 65.3512 256.274 59.0886 254.608C47.5462 251.575 35.7513 249.238 24.1809 246.28C20.6517 245.072 17.2498 243.591 14.0146 241.854C16.6545 239.095 18.6483 234.968 21.9903 233.799C36.8746 228.578 52.0957 224.327 68.5246 224.252C73.9166 224.252 79.1964 221.12 84.7007 220.25C90.7387 219.305 97.0015 219.578 103.096 218.857C106.508 218.268 109.847 217.386 113.065 216.222C124.298 212.816 135.532 209.808 146.456 205.755C153.505 203.12 159.712 198.794 166.48 195.462C174.203 191.659 181.673 186.637 190.014 184.772C216.469 178.805 230.005 161.452 239.806 141.413C245.17 130.449 246.715 118.068 250.674 106.607C255.112 93.7533 254.269 81.223 251.096 68.2452C249.72 62.5022 251.096 55.9635 252.5 50.0216C254.719 40.0769 257.92 30.3807 260.729 20.5852C261.88 16.5576 263.088 12.5799 264.267 8.57715L268.957 8.9251Z" fill="#1E150E"/>
<path d="M992.866 1081.14C967.226 1081.14 944.45 1081.14 921.703 1080.94C920.332 1080.72 919.042 1080.21 917.949 1079.45C916.856 1078.68 915.994 1077.69 915.44 1076.56C913.053 1066.42 910.132 1056.13 909.823 1045.86C909.346 1024.1 910.694 1002.32 910.75 980.57C910.649 960.106 913.962 939.74 920.579 920.132C926.477 902.927 926.758 885.325 924.736 867.624C923.303 854.994 923.135 842.24 922.629 829.561C922.631 828.163 922.955 826.78 923.583 825.497C924.211 824.214 925.129 823.059 926.28 822.102C928 824.759 929.492 827.527 930.745 830.381C941.726 861.383 952.707 892.411 963.322 923.513C969.248 940.916 974.977 958.319 979.751 975.921C981.914 983.827 981.324 992.305 982.223 1000.51C983.234 1009.81 984.497 1019.06 985.733 1028.33C988.092 1045.56 990.423 1062.74 992.866 1081.14Z" fill="#1E150E"/>
<path d="M1464.84 82.4165C1468.15 85.3975 1471.29 88.5259 1474.25 91.7894C1482.67 102.306 1491.46 112.748 1499.3 123.662C1504.82 131.607 1509.81 139.834 1514.24 148.3C1520.56 159.96 1524.83 172.714 1532.72 183.43C1551.34 208.764 1540.89 242.252 1525.7 258.736C1515.89 269.457 1508.29 281.616 1503.23 294.661C1499.3 304.431 1492.25 313.233 1488.2 323.003C1483.5 334.258 1479.83 345.832 1477.22 357.611C1473.1 376.58 1470.62 395.798 1466.66 414.793C1465.63 419.765 1461.75 424.489 1459.19 429.337L1455.66 428.989C1454.86 425.577 1454.45 422.105 1454.42 418.621C1456.36 399.925 1458.27 381.329 1460.85 362.633C1463.66 342.967 1467.25 323.426 1470.15 303.785C1471.1 297.247 1470.91 290.584 1471.19 283.896C1472.31 256.051 1473.43 228.214 1474.56 200.385C1475.01 196.254 1475.09 192.098 1474.81 187.954C1470.57 156.504 1466.08 125.054 1461.72 93.6043C1461.27 90.3225 1461.16 86.9911 1460.91 83.6596L1464.84 82.4165Z" fill="#1E150E"/>
<path d="M1212.48 1080.66H1152.94C1145.53 1061.12 1135.03 1042.7 1132.22 1020.77C1129.86 1002.42 1117.11 984.995 1107.9 967.592C1103.43 959.164 1096.44 951.83 1090.82 943.849C1085.35 936.266 1081.65 927.791 1079.94 918.923C1078.23 910.054 1078.54 900.972 1080.85 892.211C1083.97 879.283 1085.46 866.032 1088.94 853.203C1091.07 843.834 1097.08 835.509 1105.79 829.858C1106.72 831.002 1107.64 831.648 1107.64 832.345C1107.45 858.599 1115.79 883.584 1122.7 908.72C1124.68 915.084 1128.05 921.046 1132.61 926.272C1150.95 948.256 1165.67 972.43 1176.34 998.072C1180.35 1007.69 1187.23 1016.54 1193.86 1025.12C1206.72 1041.8 1211.81 1060.28 1212.48 1080.66Z" fill="#1E150E"/>
<path d="M27.1011 456.486C32.3808 456.162 37.9975 454.596 42.884 455.665C78.0447 463.372 111.464 458.301 144.238 446.267C147.728 445.069 151.447 444.478 155.19 444.527C200.124 444.303 245.058 443.508 289.991 444.527C305.887 444.875 321.754 449.499 337.453 452.607C350.211 455.141 362.802 458.295 375.169 462.055C382.72 464.486 389.826 467.887 396.26 472.149C403.316 476.712 409.653 482.088 415.104 488.135C417.912 491.292 417.575 496.563 418.67 500.889C415.048 501.51 411.116 503.375 407.83 502.579C396.204 500.093 384.914 496.09 373.231 493.803C349.585 489.229 325.854 484.753 301.955 481.372C282.072 478.613 261.908 477.17 241.8 475.977C227.028 475.082 212.172 475.48 197.372 475.405C189.677 475.405 181.982 475.405 174.287 475.654C145.951 476.773 117.614 478.14 89.25 479.209C75.2082 479.731 62.3179 475.505 49.933 469.737C42.2101 466.107 34.3468 462.676 26.5396 459.146L27.1011 456.486Z" fill="#1E150E"/>
<path d="M1889.94 1081.14C1863.04 1081.14 1838.15 1081.36 1813.33 1081.14C1805.1 1081.14 1788.22 1064.3 1788.05 1055.9C1788.05 1038.5 1781.71 1023.31 1773.79 1007.67C1766.23 992.752 1762.55 976.17 1758.03 960.159C1756.99 955.263 1757.16 950.227 1758.51 945.391C1764.12 921.275 1762.47 897.035 1759.94 872.869C1758.9 858.642 1751.99 845.249 1740.53 835.229C1739.37 833.745 1738.37 832.163 1737.56 830.505C1754.41 835.477 1766.12 843.607 1771.43 855.988C1779.22 873.74 1785.34 892.035 1789.71 910.684C1792.94 924.83 1792.52 939.747 1792.52 954.316C1792.1 962.093 1795.04 969.719 1800.75 975.648C1810.88 985.741 1821.95 995.164 1831.27 1005.83C1839.53 1015.3 1845.65 1026.22 1853.23 1036.19C1863.09 1049.16 1873.43 1061.84 1883.62 1074.62C1885.25 1076.16 1886.91 1077.73 1889.94 1081.14Z" fill="#1E150E"/>
<path d="M1212.93 666.318C1203.02 658.188 1196.08 651.998 1188.41 646.429C1179.99 640.188 1174.9 632.581 1174.74 622.934C1174.06 605.577 1170.65 588.389 1164.6 571.869C1161.79 563.44 1163.64 553.396 1164.99 544.297C1166.87 531.866 1170.92 519.435 1172.85 507.004C1175.25 491.607 1182.8 477.199 1194.53 465.635C1210.85 449.027 1227.03 432.295 1243.32 415.662C1251.75 406.764 1260.8 398.336 1270.42 390.428C1269.41 395.997 1268.42 401.566 1267.38 407.135C1259.15 452.085 1234.27 491.143 1211.22 530.772C1202.29 546.062 1197.17 562.421 1199 579.426C1200.99 598.843 1205.37 618.037 1208.6 637.354C1210.01 646.354 1211.3 655.478 1212.93 666.318Z" fill="#1E150E"/>
<path d="M1290.83 229.697C1280.92 225.595 1279.94 218.236 1280.44 212.294C1281.93 195.313 1275.42 180.297 1268.11 165.43C1265.31 159.786 1259.07 155.485 1256.04 149.916C1251.57 141.252 1247.65 132.38 1244.27 123.339C1240.28 113.394 1237.7 103.126 1232.76 93.7036C1221.52 72.3723 1220.74 49.4 1217.45 26.7758C1217.21 25.6793 1217.31 24.5464 1217.73 23.4942C1220.29 19.044 1223.04 14.7179 1225.71 10.3423C1229.92 12.8285 1234.92 14.5936 1238.15 17.8008C1254.07 33.5631 1261.65 52.6072 1264.91 73.2672C1269.13 99.7698 1272.55 126.372 1278.11 152.651C1281.29 167.568 1287.94 182.062 1293.14 196.731C1297.1 207.968 1293.3 218.435 1290.83 229.697Z" fill="#1E150E"/>
<path d="M467.985 73.7151C458.296 88.6321 448.326 103.549 438.918 118.615C421.988 144.983 408.415 172.933 398.45 201.952C395.08 211.896 394.35 221.319 399.405 230.866C406.465 243.824 410.487 257.914 411.228 272.285C411.509 278.7 414.036 285.015 415.721 291.379L413.138 292.945C408.616 287.799 403.786 282.827 399.657 277.432C393.619 269.476 389.126 260.426 382.189 253.192C366.687 237.056 361.913 219.604 369.327 199.316C372.388 190.963 373.82 182.112 376.685 173.684C378.651 167.941 380.645 161.676 384.745 157.126C408.784 130.4 433.414 104.046 458.015 77.7179C460.639 75.5359 463.564 73.6564 466.721 72.124L467.985 73.7151Z" fill="#1E150E"/>
<path d="M1352.62 416.284C1364.63 426.307 1372.54 439.585 1375.08 454.024C1379.8 479.309 1383.87 504.692 1389.41 529.828C1391.82 540.742 1396.93 551.258 1401.4 561.775C1405.72 571.844 1409.21 581.813 1405.58 595.089C1393.51 581.689 1382.39 570.377 1372.61 558.195C1363.96 547.43 1356.8 535.819 1349.08 524.408C1342.04 514.534 1338.71 502.943 1339.56 491.292C1340.88 474.51 1341.64 457.654 1343.97 440.997C1345.15 433.116 1349.22 425.558 1352.62 416.284Z" fill="#1E150E"/>
<path d="M111.632 360.892C120.057 361.24 128.286 361.464 136.571 361.961C152.382 362.881 167.294 359.798 182.572 356.293C206.639 350.798 231.325 347.492 255.814 343.489C259.538 342.931 263.347 342.99 267.047 343.663C292.603 348.354 318.103 353.218 343.547 358.257C345.26 358.58 346.58 360.37 348.068 361.489C346.383 362.782 344.726 363.975 343.013 365.342C342.725 365.445 342.403 365.445 342.114 365.342C317.906 360.171 294.681 370.489 270.642 368.947C263.34 368.475 255.87 370.638 248.428 371.284C221.149 373.654 193.861 375.95 166.564 378.171C148.338 379.663 132.302 373.621 116.688 366.387C114.595 365.275 112.605 364.019 110.734 362.632L111.632 360.892Z" fill="#1E150E"/>
<path d="M2.1333 685.089C2.1333 667.337 2.13344 651.327 2.27386 635.365C2.5106 632.7 3.63454 630.156 5.50353 628.056C20.3878 610.852 42.3772 602.995 63.7207 594.642C67.7367 593.076 74.224 594.642 78.8016 596.407C85.7382 598.893 86.4122 603.866 81.6099 609.186C80.1174 610.958 78.2822 612.481 76.1897 613.686C57.2052 623.457 45.9158 638.747 37.0975 655.951C30.1609 669.302 17.2703 677.158 2.1333 685.089Z" fill="#1E150E"/>
<path d="M2.47169 15.0664L57.6841 18.4724L58.1335 21.4061C56.3081 23.1216 54.8477 25.5331 52.5168 26.3784C35.4701 33.116 27.2414 46.964 17.2437 59.5191C14.0421 63.5467 8.81857 66.3311 4.57795 69.6626L2.3877 67.7732L2.47169 15.0664Z" fill="#1E150E"/>
<path d="M1719.73 556.032C1717.9 556.554 1716.5 557.399 1715.6 557.101C1714.42 556.526 1713.53 555.587 1713.1 554.466C1713.1 554.117 1714.56 552.675 1715.37 552.675C1716.19 552.675 1717.11 553.844 1719.73 556.032Z" fill="#1E150E"/>
<path d="M94.8383 900.242L92.5356 902.007L93.1815 898.552L94.8383 900.242Z" fill="#1E150E"/>
<path d="M1716.86 564.435L1717.7 563.54L1716.66 563.242L1717 564.336L1716.86 564.435Z" fill="#E88E32"/>
<path d="M1891.23 888.557L1891.06 887.189L1889.94 887.811L1891.23 888.681V888.557Z" fill="#E88E32"/>
<path d="M1891.4 891.267C1891.4 890.372 1891.4 889.452 1891.2 888.557C1891.2 889.378 1891.4 890.173 1891.48 891.043L1891.4 891.267Z" fill="#E88E32"/>
<path d="M1709.87 265.672L1739.3 253.713C1757.64 246.255 1775.27 236.658 1794.43 231.661C1824.31 223.855 1854.75 224.501 1882.97 238.498C1887.47 240.711 1890.25 245.658 1893.81 249.338C1888.39 250.357 1882.44 253.166 1877.61 252.097C1853.04 246.603 1829.87 251.327 1807.04 258.437C1795.48 261.987 1785.31 268.367 1777.69 276.835C1772.48 282.682 1766.42 287.89 1759.66 292.324C1746.8 300.281 1737.05 311.573 1731.74 324.644C1728.26 332.948 1721.8 336.577 1712.62 336.379C1690.41 335.881 1669.37 340.779 1648.36 346.323C1644.18 347.423 1639.84 348.008 1635.47 348.064C1617.39 348.064 1606.94 339.113 1606.32 323.202C1605.49 310.901 1609.87 298.767 1618.6 289.166C1635.73 270.843 1641.48 249.86 1644.38 226.664C1647.18 205.482 1655.33 184.847 1661.23 164.012C1665.41 149.319 1669.96 134.701 1673.98 119.958C1675.05 116.317 1675.05 112.494 1673.98 108.853C1672.91 105.211 1670.81 101.871 1667.88 99.1483C1660.24 91.6898 1658.81 82.9634 1658.17 73.1927C1657.01 55.3669 1653.9 37.6653 1651.96 19.8644C1651.82 15.3883 1652.05 10.909 1652.66 6.46387C1658.28 8.17932 1664.6 8.95007 1669.34 11.9335C1673.15 14.7596 1675.99 18.4708 1677.54 22.6489C1683.16 35.0797 1688.05 47.9332 1693.27 60.5878C1693.84 62.4494 1694.79 64.2023 1696.08 65.7591C1708.35 78.1899 1711.07 93.2561 1712.2 108.919C1713.46 126.546 1716.05 144.173 1715.99 161.8C1715.88 173.288 1713.77 184.693 1709.73 195.612C1705.35 207.471 1704.11 217.987 1709.73 230.02C1713.01 237.23 1711.89 246.106 1712.31 254.236C1712.28 257.02 1711.05 259.954 1709.87 265.672Z" fill="#1E150E"/>
</g>
</svg>
