<svg width="1920" height="1080" viewBox="0 0 1920 1080" fill="none" xmlns="http://www.w3.org/2000/svg">
<mask id="mask0_398_6713" style="mask-type:alpha" maskUnits="userSpaceOnUse" x="0" y="0" width="1920" height="1080">
<rect width="1920" height="1080" fill="#C4C4C4"/>
</mask>
<g mask="url(#mask0_398_6713)">
<rect width="1920" height="1080" fill="#EC4C88"/>
<path d="M765.614 -7.00204C819.871 26.3817 862.428 62.6399 848.295 115.59C841.935 139.241 842.877 163.8 835.731 187.35C833.14 195.771 818.3 204.496 805.502 208.984C800.162 210.85 781.946 203.537 776.214 197.738C765.536 185.632 756.247 173.042 748.418 160.068L751.481 158.454H750.852L751.481 158.757V160.572L748.575 160.169L742.451 157.496L745.356 155.378V123.507L778.805 138.031L775.272 130.517H786.343C787.445 121.045 787.287 111.53 785.872 102.075C782.742 91.475 777.462 81.1839 770.168 71.4649C760.196 58.0004 752.423 39.2914 735.306 33.7947C713.556 26.8355 683.326 30.8698 656.787 30.1638V87.6021L678.222 82.0549L700.286 90.7791L670.999 130.517L690.236 137.526L639.512 174.793C631.66 161.833 623.808 148.822 619.725 141.662C637.863 133.29 651.133 128.5 660.948 121.49C663.618 119.574 656.473 107.421 651.055 106.362C638.021 104.042 623.416 105.605 598.604 105.605L644.852 -7.15332L765.614 -7.00204ZM644.852 147.612H645.323V158.858H644.852V147.612Z" fill="#050203"/>
<path d="M567.747 -7.00293C567.197 5.40251 570.966 18.7662 564.92 29.9613C557.68 42.1316 545.93 52.9845 530.686 61.58C511.449 72.7752 489.699 86.2396 465.986 89.4671C395.947 98.9981 360.771 80.7934 351.427 34.3991C350.052 20.6126 350.052 6.78357 351.427 -7.00293H392.885L385.975 37.8282C411.965 24.4142 430.653 19.6235 434.5 11.8575C445.571 -10.8858 458.684 0.511003 475.252 7.7223C485.223 12.1096 502.184 18.1106 508.701 15.5891C519.615 11.3027 524.404 0.863935 532.256 -7.00293H567.747Z" fill="#050203"/>
<path d="M-10.7832 220.533C75.5877 212.262 123.956 224.567 137.068 261.632C149.317 296.125 139.973 326.029 72.6825 335.56L36.0929 304.446L31.6173 310.901L-10.7832 301.622V220.533ZM84.8529 295.923L100.557 288.964C87.3655 276.66 77.7861 260.724 59.7267 253.261C47.8703 248.218 23.765 255.53 4.76341 257.346L14.9713 285.182L20.7816 283.821L23.1371 262.439L84.8529 295.923Z" fill="#050203"/>
<path d="M1830.88 611.968L1825.86 616.355L1772.7 597.041C1766.81 588.619 1753.31 578.483 1757 571.827C1762.57 560.682 1778.82 551.656 1790.68 541.872L1803.24 546.915V482.467L1919.22 485.795V542.679C1907.2 540.511 1895.19 538.292 1883.1 536.275C1879.48 535.669 1872.97 534.863 1872.5 535.518C1868.02 541.62 1861.19 548.176 1861.58 554.379C1863.37 563.485 1866.66 572.444 1871.4 581.106L1860.01 585.442C1859.23 587.762 1858.44 590.082 1857.66 592.604L1840.93 595.125L1854.6 600.168L1842.74 609.8" fill="#050203"/>
<path d="M-10.7832 888.611C5.14281 889.758 21.1692 890.23 37.1918 890.023C45.5933 889.569 53.524 884.98 59.4914 883.114C76.2945 898.243 111.55 917.053 106.603 928.5C97.102 950.991 92.6265 984.577 53.6811 985.484L-10.7832 1022.75V947.915L24.7075 982.509C14.7356 965.313 51.4039 931.677 -10.7832 933.391V888.611Z" fill="#050203"/>
<path d="M1468.52 -7.00293C1449.83 20.0268 1432 47.3087 1411.43 73.6829C1409.16 76.6077 1391.25 74.5402 1380.65 74.7923C1370.05 75.0444 1359.37 73.6326 1350.74 76.0027C1333.62 80.743 1317.92 87.6012 1287.06 98.8972C1296.32 63.345 1300.33 36.5674 1311.79 11.1009C1315.33 3.18363 1339.04 -1.05235 1353.56 -7.00293H1400.68C1381.83 5.75551 1362.2 18.2115 1344.77 31.6759C1341.08 34.4999 1345.32 41.7616 1345.95 46.8045C1352.62 46.3506 1362.52 47.5104 1365.26 45.1907C1385.44 28.2467 1404.52 10.5967 1423.29 -6.85165L1468.52 -7.00293Z" fill="#050203"/>
<path d="M-10.7832 417.809L34.4438 409.741C29.8897 386.14 25.8851 369.398 24.4718 352.958C24.4718 351.142 38.9978 348.772 38.2126 348.974C83.9892 367.431 112.413 386.795 64.4381 415.187C67.7397 415.617 70.9724 416.242 74.0958 417.053C76.5174 418.107 78.7782 419.306 80.8484 420.633C77.0794 422.449 74.4101 423.709 71.819 425.02C75.1168 483.871 61.6115 503.437 23.2943 493.452V474.844L-10.7832 475.903V417.809Z" fill="#050203"/>
<path d="M65.8515 651.547L70.4057 659.111C59.256 661.532 43.2379 668.087 37.7415 665.515C25.257 659.615 16.7772 649.63 9.00378 640.301C5.70598 636.418 8.45409 630.215 8.45409 625.173C33.2661 607.27 17.7979 598.244 -10.626 592.192V576.459C3.18017 572.033 16.3222 566.8 28.6335 560.826C32.638 558.557 30.7535 546.555 28.6335 546.252C15.6699 544.76 2.54191 543.934 -10.626 543.781V486.796C-1.23325 491.487 7.70793 496.539 16.1488 501.925C30.5963 512.263 48.2633 522.097 56.5863 534.25C71.2592 553.783 80.9112 574.712 85.1673 596.227C87.6799 614.532 76.4513 633.645 63.1816 652.203" fill="#050203"/>
<path d="M955.945 -7.00293L992.378 22.044C977.459 42.2155 968.822 54.3688 961.991 63.3955L889.989 60.8236C843.899 38.8368 863.45 14.1771 863.607 -6.85165L955.945 -7.00293Z" fill="#050203"/>
<path d="M1918.9 475.902C1913.09 474.893 1904.22 475.095 1901.86 472.725C1875.01 445.493 1842.66 419.422 1825.86 389.719C1818.01 375.852 1838.03 353.965 1851.14 337.627C1854.59 333.391 1892.13 334.601 1892.6 336.114C1897.28 351.044 1899.1 366.286 1898.02 381.5C1897.47 389.972 1884.12 399.2 1887.1 406.26C1889.54 411.958 1907.67 414.984 1918.51 419.17L1918.9 475.902Z" fill="#050203"/>
<path d="M1704.07 -7.00293C1687.27 8.98294 1693.79 43.6779 1636.39 27.3894C1632.7 26.3304 1624.77 31.7767 1618.49 33.8443C1602.78 38.8871 1585.75 48.9729 1571.38 47.6114C1557.01 46.2498 1544.37 33.7434 1533.14 25.0193C1520.26 14.9336 1509.58 3.73837 1498.28 -7.00293H1556.69C1569.1 -2.26264 1580.88 4.1923 1594.3 6.3103C1599.17 7.11716 1608.05 -2.26264 1615.11 -7.00293H1704.07Z" fill="#050203"/>
<path d="M1918.9 1183.92C1900.61 1182.26 1876.74 1184.53 1865.51 1177.92C1854.28 1171.31 1853.81 1155.58 1846.74 1139.09C1844.55 1142.92 1845.41 1141.36 1846.74 1139.09L1843.05 1138.79L1845.17 1140.3L1841.56 1142.92C1836.97 1141.18 1832.66 1139.15 1828.68 1136.87C1827.27 1135.91 1827.59 1131.83 1828.68 1131.83C1832.77 1130.32 1837.79 1129.86 1831.51 1131.02L1815.02 1132.69C1829.47 1118.72 1839.91 1108.58 1840.78 1107.82L1877.13 1130.82V1085.03L1870.38 1083.11C1876.16 1070.41 1882.95 1057.91 1890.71 1045.65C1891.42 1044.54 1909.01 1048.22 1918.75 1049.63V1084.93C1910.89 1090.43 1894.17 1096.98 1895.19 1101.17C1898.72 1111.66 1910.19 1121.09 1918.75 1130.92L1918.9 1183.92Z" fill="#050203"/>
<path d="M-10.7832 1043.53L59.2556 1070.51L50.6973 1079.43C53.9166 1080.79 57.1359 1082.21 53.21 1080.49C45.3581 1089.06 30.5963 1097.49 31.8526 1104.8C32.8733 1110.95 52.1106 1115.84 72.7611 1125.88V1141.81L77.1582 1145.7L-10.7832 1182.71V1119.78L3.82122 1124.82V1142.17H1.46574L3.35012 1129.61L34.7577 1132.58L-10.5474 1083.62L-10.7832 1043.53Z" fill="#050203"/>
<path d="M1918.9 66.8247C1915.84 68.3726 1912.64 69.8039 1909.32 71.1111C1893.62 77.0113 1866.61 89.7697 1863 87.4499C1846.66 77.3642 1830.33 63.345 1826.48 49.4267C1821.62 31.3228 1828.53 11.8574 1830.33 -7.00293C1918.9 -7.00293 1918.9 -7.00293 1918.9 49.8806V66.8247ZM1841.64 56.2346C1872.18 48.5695 1892.13 47.5609 1897.15 41.4591C1906.5 30.163 1907.05 15.8918 1911.21 2.88119C1897.23 2.88119 1874.85 -0.195047 1870.93 3.88967C1859.23 16.1943 1854.67 31.3733 1841.64 56.2346Z" fill="#050203"/>
<path d="M1861.5 112.817L1877.21 116.044L1918.59 136.216V198.545C1889.22 181.937 1859.88 165.33 1830.57 148.722L1831.67 148.167L1811.49 137.728L1828.06 137.123C1829 126.685 1830.02 116.195 1831.12 104.193L1848.23 106.664" fill="#050203"/>
<path d="M1918.9 1021.74C1901.55 1012.67 1877.52 1005.71 1868.65 994.007C1857.89 979.938 1839.67 958.707 1881.37 948.622C1892.75 945.898 1906.34 947.058 1918.9 946.453V1021.74Z" fill="#050203"/>
<path d="M-10.7832 751.847C40.4897 774.943 63.1032 828.297 28.4763 847.157L-10.7832 828.095V751.847Z" fill="#050203"/>
<path d="M126.785 -7.00293C123.251 10.0924 120.739 27.339 115.164 44.1318C114.222 47.0062 93.6496 50.2337 93.257 49.6789C78.4169 31.0204 64.99 12.0087 51.4062 -7.00293H126.785Z" fill="#050203"/>
<path d="M319 -7.00293C304.866 34.1973 253.279 13.4206 218.024 15.9925C206.718 16.8498 192.427 1.11608 179.55 -7.00293H319Z" fill="#050203"/>
<path d="M-10.7832 137.023L31.3815 122.802C28.7903 141.41 25.3354 158.404 24.3932 175.449C23.608 190.83 23.6866 205.202 -10.7832 199.957V137.023ZM2.17262 148.47H3.03622V159.11H2.17262V148.47Z" fill="#050203"/>
<path d="M1918.9 299.403C1904.93 289.973 1877.21 278.727 1879.64 271.415C1885.3 253.917 1905 238.334 1918.9 221.945V299.403Z" fill="#050203"/>
<path d="M21.2543 -7.00176C15.7579 15.086 10.6543 37.2746 4.21578 59.2615C3.50911 61.4804 -5.59937 62.6907 -10.7816 64.3044C-9.537 47.3826 -9.74684 30.4296 -11.4099 13.5227C-14.4721 -4.02644 -5.91331 -10.7335 21.2543 -7.00176Z" fill="#050203"/>
<path d="M-10.7832 663.499C-0.968326 667.281 14.2647 669.701 17.4839 675.097C24.4401 685.887 26.6663 697.693 23.9221 709.237C22.2732 714.28 1.38724 716.751 -10.7832 720.382V663.499Z" fill="#050203"/>
<path d="M1918.9 824.466C1909.48 805.757 1897.86 787.35 1892.28 768.188C1890.87 763.599 1909.48 756.538 1918.9 750.638V824.466Z" fill="#050203"/>
<path d="M1918.9 717.961C1907.44 712.06 1884.82 703.689 1886.47 700.664C1893.38 687.804 1907.44 676.559 1918.9 664.708V717.961Z" fill="#050203"/>
<path d="M1803.95 -7.00293V20.3799L1728.57 -7.00293H1803.95Z" fill="#050203"/>
<path d="M1255.57 -7.0032L1203.44 -0.699624C1192.29 3.58681 1182.16 9.08358 1179.88 8.02458C1172.63 3.55198 1166.37 -1.53834 1161.27 -7.104L1255.57 -7.0032Z" fill="#050203"/>
<path d="M-10.7832 106.764L8.61124 123.91L-10.7832 128.549V106.764Z" fill="#050203"/>
<path d="M1918.9 127.34C1915.05 126.836 1908.3 126.684 1907.91 125.676C1906.38 121.49 1906.22 117.145 1907.44 112.917C1907.91 111.606 1915.29 111.203 1918.9 110.396V127.34Z" fill="#050203"/>
<path d="M951.075 1017.91C958.377 988.761 963.717 959.361 974.631 930.869C976.594 925.826 1005.57 919.876 1017.35 922.599C1114.63 945.242 1021.74 976.457 1025.2 1003.69C1026.22 1012.51 1026.3 1022.6 1033.05 1029.36C1036.19 1032.33 1055.27 1028.2 1067.13 1027.99C1077.94 1027.85 1088.75 1028.24 1099.48 1029.15C1106.51 1030.1 1113.41 1031.4 1120.13 1033.04C1121.46 1027.61 1121.46 1022.08 1120.13 1016.65C1110.94 997.586 1096.57 977.516 1149.1 978.524C1152.94 978.993 1156.57 979.994 1159.74 981.457C1162.92 982.921 1165.55 984.811 1167.47 986.996C1180.13 1001.93 1191.48 1017.3 1201.47 1033.04C1217.18 1059.11 1200.29 1071.97 1158.84 1072.57C1117.38 1073.18 1073.64 1074.94 1031.64 1072.57C985.152 1069.45 962.225 1049.88 951.075 1017.91Z" fill="#050203"/>
<path d="M1727.63 650.537C1748.44 646.407 1769.59 643.039 1790.99 640.451C1794.76 640.098 1800.73 649.276 1803.24 651.696L1806.7 646.956L1822.4 643.93L1871.63 735.408L1855.3 739.341L1838.18 722.296V748.217C1834.89 766.522 1832.69 778.474 1829.47 795.973C1798.06 789.165 1764.69 787.954 1748.83 776.558C1735.4 766.926 1742.31 745.544 1739.8 726.533L1767.91 734.248C1773.64 721.742 1787.62 707.773 1781.96 698.948C1776.31 690.123 1740.82 678.776 1736.19 681.298C1703.13 700.007 1698.66 725.171 1724.64 754.268L1683.34 773.431C1674.86 765.312 1666.31 757.193 1657.83 749.023C1657.83 749.023 1657.83 748.116 1657.83 747.864C1613.07 713.875 1655 687.904 1680.36 662.135C1688.21 654.47 1713.34 653.814 1727.63 650.537Z" fill="#050203"/>
<path d="M1476.21 676.508C1466.63 710.396 1465.61 738.233 1450.06 762.237C1435.15 785.283 1402.95 793.856 1368.95 770.911C1361.54 766.774 1353.07 763.497 1343.91 761.228C1323.65 755.026 1290.98 752.252 1285.17 742.671C1275.67 726.887 1279.28 706.16 1285.17 688.662C1291.85 669.146 1306.92 650.789 1319.09 632.08C1320.74 629.559 1329.22 626.029 1330.17 626.533C1339.51 631.274 1353.72 636.115 1355.61 642.217C1360.08 659.615 1356.47 677.971 1362.44 695.066C1364.01 699.706 1391.72 705.706 1400.99 702.731C1410.25 699.756 1417.64 686.241 1416.69 677.517C1415.52 667.431 1403.19 657.345 1399.03 647.26C1396.83 641.662 1399.03 632.131 1404.37 629.458C1409.7 626.786 1427.92 627.492 1431.93 630.87C1448.89 645.797 1462.71 662.489 1476.21 676.508Z" fill="#050203"/>
<path d="M901.531 353.007L925.086 350.839L919.433 345.14L927.756 342.468C920.533 333.34 912.052 324.515 906.477 315.085C896.427 299.048 884.178 282.962 881.195 266.22C880.409 261.681 908.912 251.747 925.165 250.435C934.823 249.679 950.448 259.714 956.573 267.178C972.183 285.49 985.597 304.54 996.696 324.162C1001.21 333.289 1001.78 343.032 998.345 352.352C992.104 367.251 984.5 381.9 975.574 396.225C974.553 398.141 971.648 399.603 967.33 403.184C966.623 397.889 966.23 394.863 966.859 399.906C963.639 402.326 956.102 412.967 944.324 415.488C929.17 418.716 910.718 415.488 893.836 406.109L898.547 404.646C899.411 404.898 895.877 404.091 887.397 402.226L904.986 397.183L888.575 397.939L855.99 396.88L878.996 390.123L879.859 391.434L839.736 401.52C844.997 397.636 843.27 398.897 841.228 400.461L830.55 395.418L828.665 396.981L816.809 393.703L901.531 353.007ZM809.428 376.961C793.724 368.085 777.157 362.891 776.686 357.193C774.348 333.19 775.795 309.097 781.004 285.282C782.496 278.877 810.606 268.287 817.28 270.607C834.005 276.457 846.725 288.005 858.031 298.595C859.994 300.41 846.097 308.68 841.385 314.177C836.846 321.693 833.172 329.412 830.393 337.273C839.422 344.182 848.609 350.637 856.775 357.445C860.416 361.214 863.543 365.179 866.119 369.296L829.215 373.885L830.785 372.775L841.542 381.55L809.428 376.961ZM823.954 334.702L816.102 329.306L806.444 335.761L815.003 340.803L823.954 334.702ZM914.408 392.241C913.466 400.108 913.858 396.779 914.408 392.241C915.115 396.729 915.586 400.259 914.408 392.19V392.241Z" fill="#050203"/>
<path d="M748.969 1083.26L739.311 1072.32C656.081 1069.5 687.881 1042.92 704.606 1014.18C730.595 969.599 835.497 932.685 891.01 957.042C913.31 967.128 933.725 994.712 927.836 1010.09C921.947 1025.47 882.216 1035.31 857.169 1047.26C847.689 1051.66 837.626 1055.53 827.096 1058.81C800.556 1067.23 774.331 1075.25 748.969 1083.26ZM865.727 998.04C846.097 994.309 834.319 989.266 828.273 991.384C802.424 1000.98 777.585 1011.66 753.916 1023.36C749.597 1025.47 751.482 1032.84 750.461 1037.78C758.313 1037.78 767.107 1039.39 774.017 1037.78C790.674 1033.25 806.698 1027.82 821.913 1021.54C837.012 1014.18 851.53 1006.33 865.413 998.04H865.727Z" fill="#050203"/>
<path d="M1132.85 625.273L1138.42 625.626L1141.56 617.104L1181.53 630.064C1175.17 639.191 1172.11 653.816 1160.02 658.354C1141.72 664.875 1120.24 666.678 1099.95 663.397C1088.48 661.027 1084.24 644.537 1076.39 634.451C1069.8 626.08 1055.9 617.406 1057.08 609.59C1060.92 584.073 1070.19 558.858 1077.33 533.493L1100.34 540.099C1112.43 532.081 1122.95 522.55 1137.01 516.448C1153.34 509.438 1173.05 501.319 1190.79 501.319C1203.04 501.571 1221.42 514.633 1224.95 523.861C1232.8 544.033 1233.2 565.666 1236.02 586.695C1236.02 588.157 1232.02 589.872 1228.17 592.494L1224.17 585.082L1216.31 585.434L1214.19 592.847L1197.31 595.671L1209.87 600.714L1207.6 605.102C1195.21 602.901 1183.06 600.172 1171.24 596.932C1167.32 595.671 1166.45 590.326 1163.39 585.233L1192.99 584.375V580.694L1162.21 578.627L1148.39 572.121C1137.79 580.543 1122.33 588.158 1118.32 597.689C1115.73 605.354 1127.12 615.137 1132.85 625.273ZM1131.98 651.193L1148.16 649.025C1146.2 646.554 1145.1 645.041 1145.18 645.192L1131.98 641.41V651.193Z" fill="#050203"/>
<path d="M1502.75 492.442C1556.85 489.87 1573.42 504.444 1584.72 528.095C1590.3 539.794 1617.55 546.501 1627.83 558.05C1652.96 586.542 1636.15 625.17 1585.82 633.693C1561.8 637.727 1523.01 619.119 1498.75 605.049C1471.5 589.381 1450.47 569.757 1437.42 547.813C1431.77 537.727 1453.13 519.119 1467.34 507.117C1477.62 498.594 1497.18 494.611 1502.75 492.442ZM1506.91 528.045L1482.02 541.913C1500.4 557.041 1516.88 573.531 1538.24 586.643C1546.09 591.181 1565.41 587.349 1597.6 587.349C1557.71 561.63 1532.35 544.787 1506.83 528.045H1506.91Z" fill="#050203"/>
<path d="M428.611 1057.85L391.315 1075.7C392.1 1074.04 390.765 1076.96 389.195 1080.34L372.391 1083.57L362.734 1075.15L338.55 1104.24C331.169 1094.81 328.97 1088.86 323.317 1085.23C256.968 1043.53 254.691 992.443 272.28 938.988C275.185 930.163 289.632 922.902 298.74 914.984C308.398 921.641 317.507 928.751 327.95 934.853C349.071 947.158 373.412 957.546 391.629 971.364C403.092 979.987 406.469 993.249 412.201 1004.7C413.771 1007.97 408.824 1012.51 410.159 1015.89C415.969 1030.62 423.036 1045.44 428.611 1057.85ZM386.447 1038.28L376.553 1020.63C359.802 1007.18 343.13 993.737 326.536 980.289C318.685 986.291 301.646 995.115 303.766 997.839C316.256 1013.93 331.789 1028.97 350.014 1042.62C354.175 1045.75 373.884 1039.95 386.447 1038.28Z" fill="#050203"/>
<path d="M996.853 568.288C968.351 544.132 940.005 522.65 917.627 498.847C913.858 494.763 934.587 480.441 945.58 471.616C952.097 466.573 964.739 463.648 969.136 458C990.807 431.676 1046.01 414.732 1078.04 431.475C1097.83 441.813 1108.74 465.161 1109.45 482.811C1109.84 496.175 1087.39 509.841 1080 518.111L996.853 568.288ZM973.297 507.773L981.699 515.791C1000.15 512.715 1020.41 511.555 1036.66 505.705C1044.51 502.831 1044.51 491.132 1048.13 483.467C1034.07 483.063 1016.72 479.231 1006.75 483.063C992.927 488.156 984.525 499.2 973.533 507.723L973.297 507.773Z" fill="#050203"/>
<path d="M1608.99 255.125L1659.71 283.063C1678.32 269.598 1629.79 236.971 1694.18 242.72C1698.5 243.123 1702.03 247.157 1697.08 244.182C1688.68 257.949 1676.75 267.984 1679.97 275.297C1682.24 280.692 1704.39 282.508 1717.74 285.937C1722.98 277.698 1727.51 269.281 1731.32 260.723C1732.11 255.674 1731.77 250.579 1730.3 245.594C1738.15 247.409 1745.45 249.578 1753.3 250.94C1766.18 253.058 1779.37 254.217 1792.09 256.638C1799.94 258.1 1811.41 260.42 1812.66 263.748C1820.52 283.617 1826.56 303.839 1831.35 324.263C1832.37 328.751 1826.8 337.526 1822.56 338.03C1818.23 338.236 1813.88 337.838 1809.82 336.863C1805.75 335.888 1802.06 334.359 1799 332.382C1790.53 325.433 1783.09 317.987 1776.78 310.143C1756.29 318.161 1737.13 331.02 1715.85 332.684C1687.3 334.665 1658.44 331.614 1632.38 323.859C1609.17 316.08 1590.47 303.702 1579.07 288.559C1573.97 281.651 1593.2 266.925 1602.63 256.285C1604.82 254.016 1613.46 254.47 1608.99 255.125Z" fill="#050203"/>
<path d="M1051.03 362.74L1042.16 364.051C1036.82 351.696 1025.91 338.836 1027.48 326.986C1029.12 314.076 1042.47 301.771 1051.03 289.215C1059.2 291.733 1067.07 294.632 1074.59 297.888C1090.84 305.755 1105.99 314.227 1137.01 330.163C1140.7 293.652 1141.88 270.304 1146.04 247.157C1147.61 238.13 1156.01 229.608 1161.74 220.884C1171.01 225.322 1182.55 228.65 1189.15 234.399C1236.81 276.204 1216.79 335.811 1147.3 363.496C1133.71 368.892 1122.33 376.557 1109.37 382.659C1107.41 383.567 1102.46 381.802 1105.52 382.255L1074.67 360.672" fill="#050203"/>
<path d="M1716.32 854.925L1738.07 838.586L1718.52 836.367C1737.84 829.509 1748.83 823.155 1761.24 821.692C1814.86 815.54 1871.16 812.918 1884.27 857.799C1890.01 877.618 1876.89 900.21 1867.47 920.583C1866.14 923.457 1836.85 920.986 1834.42 920.986C1824.84 904.446 1820.99 895.772 1814 887.855C1812.74 886.392 1795.78 887.855 1791.47 891.082C1783.84 897.99 1777.42 905.414 1772.31 913.22C1754.48 905.858 1733.75 900.21 1719.86 890.527C1711.45 884.627 1713.5 872.524 1710.04 860.27" fill="#050203"/>
<path d="M820.655 626.837C818.196 619.298 816.725 611.64 816.258 603.943C816.258 600.715 822.932 596.681 828.114 594.664C851.67 585.284 874.833 572.727 900.823 568.643C922.573 565.214 947.934 571.971 972.118 574.19C969.762 579.233 967.407 584.275 962.617 594.714L972.746 615.793L945.264 608.481L952.567 626.989L917.861 614.583L913.464 639.243L871.221 625.022L890.458 656.338L883.784 657.195L887.475 679.636L869.808 682.057C872.32 692.647 876.953 701.371 875.618 709.742C874.44 716.953 866.431 723.711 861.485 730.67C848.686 723.358 825.994 716.6 824.973 708.683C822.853 691.487 834.867 673.786 835.024 656.237C835.024 646.504 822.696 636.772 815.944 627.039L820.655 626.837Z" fill="#050203"/>
<path d="M301.801 494.764L340.276 457.194C359.199 473.937 410.943 452.151 417.538 484.375C418.48 488.914 427.039 492.747 431.672 497.083C443.607 508.228 466.142 519.978 464.885 530.568C461.745 557.699 452.322 587.804 394.218 586.796C383.697 586.796 368.935 572.625 365.088 563.498C361.24 554.37 369.092 542.671 369.877 532.081C370.976 516.498 365.009 507.774 336.193 517.255C332.816 518.465 317.112 504.799 301.801 494.764Z" fill="#050203"/>
<path d="M1634.74 1123.86L1613.78 1150.13C1574.52 1118.01 1550.26 1119.52 1534.32 1154.22C1532.67 1157.8 1523.01 1159.82 1517.12 1162.59C1509.27 1154.67 1497.49 1147.46 1494.35 1138.74C1486.68 1117.13 1481.09 1095.23 1477.63 1073.18C1477.38 1069.6 1478.24 1066.02 1480.15 1062.66C1482.06 1059.29 1484.99 1056.2 1488.77 1053.56C1492.07 1051.39 1506.52 1056.74 1516.18 1058.1C1539.64 1060.55 1562.89 1063.78 1585.82 1067.78C1606.4 1072.22 1630.27 1077.16 1643.22 1087.05C1652.17 1093.86 1644.95 1109.44 1644.95 1121.09L1634.74 1123.86Z" fill="#050203"/>
<path d="M283.036 644.94C304.629 643.78 324.573 639.09 330.776 643.125C342.397 650.588 347.658 662.893 352.447 673.735C357.548 683.289 359.265 693.454 357.473 703.488C354.253 714.633 348.286 729.106 335.644 734.602C315.779 743.226 281.309 754.169 267.176 748.773C236.161 736.922 212.684 716.145 188.657 697.487C182.689 692.797 183.789 676.912 188.657 675.551C207.089 670.352 226.82 667.312 246.918 666.574C252.65 666.574 258.774 676.105 265.841 680.593C273.851 686.184 283.113 690.976 293.322 694.814C298.583 696.579 307.456 693.907 314.758 693.201C314.182 686.211 312.338 679.289 309.262 672.575C301.561 662.972 292.797 653.737 283.036 644.94Z" fill="#050203"/>
<path d="M1230.76 422.397C1226.13 399.049 1222.12 379.13 1218.2 359.261L1245.99 353.966C1253.85 365.06 1261.7 376.457 1270.81 387.198C1281.41 399.503 1294.36 410.849 1304.8 423.255C1308.97 428.298 1312.66 437.173 1308.57 440.955C1291.4 457.683 1271.84 473.35 1250.16 487.753C1246.7 489.972 1224.17 482.71 1213.57 477.264C1176.5 458.151 1147.45 435.862 1169.12 402.629C1173.05 396.628 1187.26 393.451 1196.76 388.963C1202.49 395.469 1207.83 402.125 1214.12 408.378C1218.9 413.169 1224.79 417.455 1230.76 422.397Z" fill="#050203"/>
<path d="M1062.1 849.073C1074.04 836.819 1081.18 821.691 1096.57 816.295C1107.56 812.412 1129.94 821.338 1146.67 825.372C1155.54 827.54 1163.08 834.348 1171.48 834.55C1216.23 835.558 1234.29 848.367 1226.44 877.515C1221.26 897.687 1223.93 918.614 1218.59 938.786C1212.94 961.227 1187.18 966.219 1164.8 951.191C1127.59 925.977 1096.41 897.031 1063.44 869.295C1060.3 866.673 1062.26 861.479 1061.71 855.78L1062.1 849.073ZM1208.85 904.192C1195.98 887.752 1188.44 873.229 1174.23 862.286C1168.1 857.596 1143.76 856.688 1135.6 860.722C1127.43 864.757 1126.49 877.313 1128.45 885.584C1131.97 894.25 1138.11 902.389 1146.51 909.537C1153.53 915.939 1161.16 922.052 1169.36 927.843L1208.85 904.192Z" fill="#050203"/>
<path d="M1319.72 822.752C1315.8 817.709 1307.94 809.842 1310.14 808.329C1318.32 802.846 1328.58 798.816 1339.9 796.63C1343.77 796.458 1347.65 796.929 1351.16 797.998C1354.66 799.066 1357.68 800.697 1359.92 802.732C1371.63 825.409 1380.89 848.577 1387.64 872.071C1393.69 897.285 1393.69 922.5 1396.28 948.118L1379.47 953.564C1346.03 926.332 1309.59 900.362 1280.86 871.214C1270.65 861.128 1279.21 842.974 1279.21 828.551L1293.65 826.433" fill="#050203"/>
<path d="M1200.77 791.384C1139.91 806.513 1136.22 769.498 1109.92 752.05C1065.79 722.751 1115.1 709.488 1136.22 695.822C1143.21 691.283 1183.89 702.075 1201.32 711.707C1223.28 724.196 1240.57 739.711 1251.88 757.093C1259.74 769.599 1254.4 785.736 1254.87 800.26L1210.9 792.998C1207.36 792.695 1203.83 791.939 1200.77 791.384ZM1181.37 763.346L1191.35 757.849C1183.49 745.191 1176.11 732.635 1167.08 720.128C1167.08 719.675 1146.98 722.297 1144.55 725.827C1140.62 731.374 1139.68 740.955 1144.55 745.242C1154.13 752.756 1168.89 757.446 1181.37 763.346Z" fill="#050203"/>
<path d="M554.713 500.411L601.274 581.097L563.742 564.355L548.981 581.198C536.81 569.801 526.053 560.724 516.945 550.941C505.952 539.241 498.336 526.029 485.537 515.187C460.961 494.259 461.982 475.197 488.6 455.732C497.08 449.529 502.968 436.972 511.449 436.418C548.981 433.896 586.199 471.163 570.966 494.36C569.239 497.587 560.523 498.545 554.713 500.411Z" fill="#050203"/>
<path d="M498.179 613.27L506.03 612.665C508.857 623.658 511.762 634.652 515.138 647.965L487.893 641.107C491.112 655.882 499.278 672.372 497.001 688.308C493.389 713.926 462.531 722.448 428.375 716.397C416.283 714.279 408.824 697.788 402.464 687.047C394.85 673.764 388.941 660.103 384.797 646.2C379.065 627.895 384.797 613.875 420.602 613.27C442.116 612.917 463.473 610.698 486.401 609.236" fill="#050203"/>
<path d="M105.114 1090.07C103.7 1084.58 98.518 1077.87 101.737 1074.09C107.426 1068.67 115.689 1064.59 125.293 1062.44C128.669 1061.53 135.815 1067.18 141.468 1069.55C148.378 1072.42 158.428 1078.32 161.961 1077.06C169.813 1074.09 175.231 1067.73 181.12 1062.49C188.03 1056.34 194.311 1049.93 200.907 1043.63L226.347 1057.35C257.283 1073.99 243.464 1092.29 230.194 1110.04C227.603 1113.52 218.495 1115.09 218.809 1115.09L175.545 1095.97L165.887 1102.38C180.256 1115.94 196.824 1128.8 208.209 1143.33C213.862 1150.49 210.093 1160.67 210.565 1169.5C199.565 1167.95 188.711 1165.99 178.058 1163.65C158.192 1158.61 138.798 1152.45 118.854 1146.65L122.388 1140.91L113.908 1135.86L120.896 1132.64L122.231 1133.95L118.147 1135.46L124.665 1143.02L118.383 1146C111.317 1140.3 101.109 1135.21 97.9685 1128.7C94.8278 1122.2 99.5387 1115.24 101.188 1106.51L126.157 1116.6L121.288 1087.85L105.114 1090.07Z" fill="#050203"/>
<path d="M1028.1 63.2967L1067.76 92.0915C1074.51 86.141 1080.95 79.9382 1088.17 74.1893C1096.02 67.5831 1105.44 61.4308 1114.08 55.0768C1119.66 65.1625 1128.69 75.2483 1129.79 85.687C1133.4 113.826 1120.21 137.074 1068.54 136.469C1052.84 136.469 1034.46 126.383 1022.69 117.911C1012.56 110.599 1008.08 99.2019 1004.63 89.1161C999.679 74.7944 988.922 57.1445 997.324 46.3528C1006.43 34.7542 1033.91 27.3412 1055.74 22.9035C1061.4 21.7436 1075.84 38.3346 1086.29 46.8066C1081.73 49.6531 1076.64 52.126 1071.13 54.1691C1061.4 56.9427 1050.64 58.6573 1028.1 63.2967Z" fill="#050203"/>
<path d="M518.828 726.029C517.964 719.418 517.964 712.771 518.828 706.16C521.31 701.414 524.77 696.903 529.114 692.746C535.5 694.684 541.666 696.909 547.566 699.403C581.486 715.809 615.224 732.349 648.777 749.024C652.154 750.688 657.493 753.462 656.629 755.076C651.133 772.171 653.174 796.175 636.45 804.496C607.241 819.12 575.912 814.582 559.658 785.837C548.509 766.17 524.482 749.478 506.187 731.475L518.828 726.029Z" fill="#050203"/>
<path d="M474.151 195.268C470.068 196.025 467.477 196.529 473.523 195.268L439.838 230.568L426.569 222.399L386.288 230.165C374.667 215.036 354.881 195.823 345.223 174.693C337.371 157.9 340.669 138.738 341.218 120.634C341.218 114.986 348.049 105.001 352.839 104.698C365.513 104.076 378.196 105.828 389.351 109.741C406.925 116.53 423.742 124.096 439.681 132.384C446.879 135.137 452.749 139.117 456.642 143.881C463.394 157.8 467.791 172.172 472.895 186.443C473.647 189.361 474.066 192.311 474.151 195.268ZM381.499 143.932L369.328 150.488C378.986 165.616 387.937 180.745 399.244 195.318C400.579 196.983 414.555 194.663 422.8 194.159C419.188 181.905 418.403 168.944 411.022 157.648C406.782 151.547 391.628 148.42 381.42 143.932H381.499Z" fill="#050203"/>
<path d="M1138.89 234.802L1130.41 221.691C1095 222.195 1071.84 230.415 1064.38 255.024C1061.24 265.11 1047.34 273.834 1038.39 283.214C1025.36 272.372 1004.16 262.437 1001.09 250.536C994.027 223.153 996.147 195.619 1051.42 185.836C1070.43 182.457 1099.56 167.43 1103.4 170.102C1122.88 183.516 1136.3 200.713 1149.65 217.304C1152.09 220.279 1144.16 226.734 1138.89 234.802Z" fill="#050203"/>
<path d="M669.429 317.961C665.267 313.876 666.288 315.137 667.623 316.145L704.684 344.083L626.636 380.089C621.094 373.702 616.062 367.138 611.56 360.422C603.159 346.1 600.96 329.005 586.984 317.759C564.135 299.454 556.205 266.725 582.351 257.245C591.852 253.816 612.189 256.892 622.475 261.582C640.246 270.045 655.827 280.256 668.644 291.839C673.669 296.327 669.429 305.152 669.429 317.961Z" fill="#050203"/>
<path d="M1467.5 292.745C1442.37 315.135 1425.25 330.214 1408.45 345.393C1401.93 351.293 1395.89 357.344 1389.6 363.295L1370.52 381.046C1361.97 375.7 1345.71 370.052 1346.26 365.06C1349.4 332.735 1355.45 300.461 1362.91 268.439C1363.61 265.564 1383.72 260.925 1390.47 262.992C1413.32 270.002 1434.28 279.583 1467.5 292.745Z" fill="#050203"/>
<path d="M730.91 580.794C738.369 579.534 735.072 580.088 729.968 580.794V613.069C704.214 597.94 677.91 587.552 664.247 572.726C648.544 555.782 644.618 534.602 635.274 514.632L778.885 456.488L794.589 469.801L693.221 527.088C717.562 534.551 768.678 541.46 730.91 580.794Z" fill="#050203"/>
<path d="M686.939 966.774C692.514 953.511 693.299 943.627 700.523 936.517C708.912 927.31 721.045 919.744 735.621 914.631C744.022 912.16 758.706 918.312 770.562 920.581C765.349 930.096 759.104 939.363 751.874 948.317C738.919 961.983 721.488 973.985 709.788 988.004C685.526 1017.1 661.342 1022.04 634.959 993.955C618.706 976.608 629.542 948.569 630.013 925.372C630.013 924.263 648.073 921.993 656.945 923.002C660.007 923.304 659.771 932.281 662.912 936.719C668.801 945.342 676.025 953.36 686.939 966.774Z" fill="#050203"/>
<path d="M576.619 984.223C566.333 997.184 559.031 1022.65 540.186 1026.84C495.43 1036.92 441.174 1006.01 439.447 973.079C438.74 958.455 448.869 943.326 456.564 928.954C459.015 926.964 462.228 925.416 465.888 924.461C469.549 923.507 473.532 923.178 477.45 923.507C484.673 925.878 487.971 932.938 494.096 937.274C505.13 945.25 516.82 952.842 529.115 960.018C541.6 967.33 555.419 973.583 576.619 984.223Z" fill="#050203"/>
<path d="M164.866 811.556C102.6 811.103 47.0874 785.081 60.3571 761.43C71.0357 742.066 105.741 728.198 129.847 711.859C141.939 721.945 157.25 730.669 164.473 742.116C167.065 746.201 150.968 755.681 142.41 762.288C137.109 765.596 131.324 768.568 125.135 771.163C132.987 775.752 140.211 782.056 149.555 784.224C156.072 785.737 166.515 782.308 173.974 779.685C182.281 776.271 190.157 772.444 197.53 768.238C204.518 774.138 215.197 779.635 217.081 786.14C218.181 790.276 207.424 797.235 199.572 800.563C188.446 804.778 176.845 808.453 164.866 811.556Z" fill="#050203"/>
<path d="M1354.66 1131.93L1401.15 1146.15L1372.17 1141.11L1390.94 1135.51C1390.94 1135.51 1389.84 1133.94 1390.94 1135.51C1402.17 1123.46 1419.05 1113.52 1419.68 1103.13C1421.01 1081.95 1413.95 1060.52 1409.71 1039.24C1407.82 1029.51 1403.66 1019.93 1402.8 1010.24C1402.8 1008.93 1418.97 1004.44 1422.5 1006.11C1435.07 1011.81 1453.21 1018.77 1455.17 1026.68C1463.02 1060.02 1477.47 1095.47 1466.79 1126.94C1461.14 1143.43 1408.61 1153.36 1377.28 1166.22L1354.66 1131.93Z" fill="#050203"/>
<path d="M300.782 624.063C280.838 616.398 267.019 613.271 257.911 607.22C232.942 590.427 229.565 538.687 252.179 520.886C255.367 519.012 259.243 517.686 263.444 517.034C267.646 516.381 272.036 516.423 276.206 517.154C286.335 521.138 292.302 529.207 301.568 534.451C312.19 540.099 323.537 545.16 335.488 549.58C340.042 551.395 348.13 550.437 351.192 552.656C354.254 554.875 351.191 559.262 349.935 562.742C346.044 574.81 340.446 586.626 333.211 598.042C326.144 607.371 312.953 614.633 300.782 624.063Z" fill="#050203"/>
<path d="M1627.2 1032.68C1626.26 1032.13 1619.35 1028.3 1612.83 1024.21C1597.13 1014.43 1581.43 1004.9 1566.51 994.51C1559.71 990.104 1555.38 984.376 1554.18 978.222C1554.18 973.179 1561.32 965.11 1567.06 964.455C1581.35 962.791 1596.58 964.808 1611.42 965.06C1633.33 965.463 1655.31 966.119 1677.3 965.665C1686.96 965.665 1702.42 959.664 1704.94 961.732C1713.89 968.893 1724.88 978.827 1723.47 986.946C1717.58 1018.87 1686.09 1034.1 1627.2 1032.68Z" fill="#050203"/>
<path d="M1530.31 824.516C1546.01 814.077 1559.13 805.353 1572.4 796.579C1572.68 796.542 1572.97 796.542 1573.26 796.579C1591.79 794.41 1591.4 750.487 1627.12 786.493C1641.02 800.462 1654.13 814.833 1667.48 829.105C1669.84 831.626 1671.72 834.148 1669.92 832.181L1628.85 857.395C1620.14 847.31 1609.06 818.061 1576.48 852.353C1573.5 855.53 1592.18 867.481 1601.13 875.045L1616.05 872.171C1612.49 883.313 1607.9 894.308 1602.31 905.101C1600.43 908.227 1584.33 911.505 1583.31 910.598C1568.31 897.89 1554.89 884.476 1538.71 869.044" fill="#050203"/>
<path d="M681.52 816.045C714.812 834.754 747.79 851.345 776.136 870.911C781.632 874.693 769.226 889.217 765.064 898.798C751.323 893.755 738.289 887.553 723.606 884.628C701.778 880.291 678.458 875.399 656.394 876.408C639.12 877.164 623.18 887.25 605.592 891.536C602.844 892.142 589.888 882.661 589.888 877.77C591.279 871.314 596.139 865.374 603.629 860.977C622.866 848.017 642.889 835.762 663.618 823.559C669.196 820.691 675.19 818.175 681.52 816.045Z" fill="#050203"/>
<path d="M1018.92 687.198C1016.64 693.299 1014.44 699.351 1011.06 707.873L1000.39 697.787C997.679 702.132 994.34 706.302 990.413 710.243C981.54 717.555 968.82 731.272 962.696 730.415C940.553 726.632 920.452 717.858 899.88 710.949C908.995 703.834 917.363 696.337 924.928 688.508C936.863 674.439 946.128 659.361 958.299 645.392C962.931 640.047 972.746 632.886 979.97 632.936C993.24 632.936 1010.59 635.659 1018.52 641.559C1029.35 650.616 1036.66 661.194 1039.88 672.422C1041.61 677.112 1032.03 683.466 1027.79 689.063L1018.92 687.198Z" fill="#050203"/>
<path d="M992.377 845.595C986.174 844.435 989.629 845.091 992.377 845.595C1000.23 873.18 965.759 920.684 934.43 918.213C914.801 916.7 894.543 898.999 882.137 885.636C874.285 877.365 880.645 863.699 880.645 847.108L914.329 871.969L910.246 842.57L927.049 839.292L912.916 834.753C910.089 819.624 905.849 802.277 904.436 784.879C904.043 780.694 913.466 772.423 917.47 772.625C926.107 773.129 939.22 776.861 941.026 781.198C949.899 798.797 955.395 817.103 949.82 833.694L992.377 845.595ZM913.858 883.568C914.486 888.107 914.958 891.385 913.858 883.568V883.568Z" fill="#050203"/>
<path d="M1198.8 103.185C1208.93 96.3774 1215.45 88.8132 1220.4 89.2166C1235.74 90.9304 1250.84 93.4433 1265.54 96.7305C1260.44 108.783 1250.94 118.667 1255.1 124.567C1259.26 130.467 1276.77 133.745 1297.97 132.737L1340.14 186.039L1314.46 187.552C1323.57 232.938 1271.9 206.917 1256.2 203.034C1230.68 196.781 1211.84 179.484 1184.12 163.246L1205.79 157.749L1191.66 154.723C1191.45 154.998 1191.19 155.252 1190.87 155.48L1164.41 136.72C1198.49 127.643 1198.49 127.643 1164.41 100.261L1197.86 101.673L1202.65 107.32L1214.98 108.783L1217.65 125.626C1215.14 138.536 1213.96 144.739 1212.78 150.84L1211.21 151.799L1212.47 157.396L1198.8 103.185ZM1227.23 101.925L1288.24 158.657H1287.53V148.117H1288.24L1227.23 101.925Z" fill="#050203"/>
<path d="M429.946 852.856L456.799 837.223L472.503 852.906L510.349 857.142C517.651 845.493 520.086 829.457 532.649 824.868C545.212 820.279 566.49 828.953 584.079 831.726L554.87 887.702C510.114 890.778 474.702 933.39 443.294 888.812L444.629 887.752L411.023 863.043L421.859 856.083" fill="#050203"/>
<path d="M1484.22 245.695C1461.29 230.063 1435.93 214.53 1414.73 196.931C1409.78 192.846 1418.97 181.802 1421.64 173.784C1432.55 176.961 1446.69 178.272 1453.75 183.567C1478.1 201.671 1498.75 216.396 1530.7 187.602C1537.54 181.449 1562.11 182.811 1578.84 182.155C1582.6 182.155 1591.32 189.114 1590.22 191.232C1585.35 200.461 1580.56 210.799 1570.43 217.455C1552.65 228.33 1533.33 238.122 1512.72 246.704C1508.56 248.57 1499.92 246.401 1484.22 245.695Z" fill="#050203"/>
<path d="M192.268 151.899C220.299 167.684 246.446 177.618 261.993 192.242C283.271 212.414 275.027 232.03 238.437 243.579C201.847 255.127 167.77 259.262 144.214 233.039C140.524 229.005 158.112 217.91 164.001 209.237C170.029 199.79 175.271 190.145 179.705 180.341C183.631 172.474 186.693 164.456 192.268 151.899Z" fill="#050203"/>
<path d="M1485.16 407.976L1515.79 429.156C1503.93 438.536 1489.95 448.218 1478.65 459.01C1463.88 473.079 1449.2 481.451 1424.47 467.23C1409.39 458.556 1386.86 452.555 1379.32 442.015C1375.51 435.846 1373.62 429.253 1373.79 422.616C1373.95 415.978 1376.15 409.427 1380.26 403.337C1384.58 397.689 1413.24 398.294 1430.75 398.697C1445.2 399 1459.41 403.337 1485.16 407.976Z" fill="#050203"/>
<path d="M1459.41 60.2705C1483.67 74.7435 1495.92 80.0891 1504.09 87.3508C1523.32 104.396 1541.38 122.046 1558.11 140.15C1564.08 146.655 1570.91 159.06 1566.51 161.935C1557.32 167.986 1541.23 170.76 1527.25 172.02C1523.87 172.323 1519.4 160.775 1513.19 155.732C1498.9 143.982 1483.44 132.888 1468.44 121.541C1463.16 123.925 1458.36 126.72 1454.15 129.862C1445.67 138.082 1438.44 146.806 1430.59 155.328C1426.12 146.856 1415.36 137.225 1418.42 130.114C1427.53 108.934 1442.13 88.7627 1459.41 60.2705Z" fill="#050203"/>
<path d="M400.03 403.435C351.348 398.039 329.363 384.726 343.104 366.37L394.455 380.692C443.215 391.534 473.445 383.566 490.719 353.309C495.273 345.19 515.139 340.702 527.937 334.55C531.622 341.064 534.1 347.835 535.318 354.721C535.318 386.542 522.912 416.244 468.263 422.699C448.084 425.019 422.957 410.344 400.03 403.435Z" fill="#050203"/>
<path d="M1537.54 370.909L1493.56 338.786L1519.16 336.164C1463.65 311.858 1468.75 294.712 1534.08 274.036C1570.59 283.718 1595.56 331.928 1579.39 354.722C1574.6 361.479 1583.55 372.271 1588.57 389.518C1587.63 390.224 1576.56 398.292 1561.48 409.185L1555.99 394.712L1554.02 395.619L1552.06 396.83L1529.29 379.432L1538.71 374.389" fill="#050203"/>
<path d="M1658.38 521.288C1597.76 501.116 1575.85 470.405 1581.27 432.533C1582.37 424.868 1604.2 418.464 1618.25 410.496L1675.34 443.023V489.215L1660.42 494.258L1658.38 521.288Z" fill="#050203"/>
<path d="M166.044 367.48L168.164 377.566H162.432C180.255 367.127 189.05 359.967 200.514 356.134C205.303 354.571 216.217 359.714 223.441 362.69C224.933 363.295 222.97 370.204 221.478 370.405C210.701 371.366 199.848 371.938 188.971 372.12C191.562 370.305 189.914 371.414 187.244 373.28L209.229 379.987L207.502 393.149L195.253 401.368C194.781 400.662 194.232 399.956 195.253 401.368L192.662 415.186L201.141 413.371C211.899 432.231 223.205 450.94 232.078 470.153C224.442 474.966 214.52 478.001 203.89 478.776C155.758 475.347 143.038 459.109 155.679 431.121C159.527 422.649 138.013 410.496 137.227 399.755C136.442 388.055 146.178 376.053 151.361 364.203L166.044 367.48Z" fill="#050203"/>
<path d="M710.966 641.057C751.089 661.228 770.327 667.027 778.336 676.659C782.34 681.702 763.967 692.897 758.942 701.874C749.912 718.162 745.122 735.459 735.386 751.445C729.811 760.371 717.405 767.582 708.139 775.55C702.094 766.926 691.415 758.404 690.944 749.63C689.635 724.801 690.684 699.944 694.085 675.197C695.341 664.556 704.213 654.118 710.966 641.057Z" fill="#050203"/>
<path d="M1801.12 1064.4L1768.38 1074.04L1777.88 1079.58L1790.29 1073.48V1101.22H1783.61L1781.73 1086.49H1775.45C1772.7 1099.91 1770.11 1112.71 1767.59 1125.52L1752.68 1123.91C1755.03 1115.49 1757.47 1107.02 1759.59 1098.7C1761.31 1091.99 1762.88 1085.23 1763.59 1078.52C1763.59 1078.02 1753.38 1075.95 1752.52 1076.76C1746.39 1082.31 1738.39 1088 1736.82 1094.31C1732.34 1111.2 1730.69 1128.4 1727.86 1145.44L1708.31 1148.52C1698.18 1129.66 1678.48 1110.34 1680.67 1092.09C1682.72 1074.99 1703.37 1055.33 1725.12 1044.48C1733.99 1039.79 1767.04 1054.92 1801.12 1064.4Z" fill="#050203"/>
<path d="M752.973 607.874L783.203 589.417L740.959 604.546V585.635C757.448 577.315 774.33 573.028 777.785 566.018C782.182 557.143 775.351 545.847 773.859 535.761C773.152 530.971 771.111 525.121 774.409 521.44C784.927 509.281 796.898 497.664 810.213 486.694C819.186 480.692 829.077 475.286 839.737 470.557C864.313 482.307 838.166 565.514 797.493 595.822C787.6 603.134 771.425 606.967 758.234 612.413L752.973 607.874Z" fill="#050203"/>
<path d="M409.294 864.707L361.005 856.639L389.036 839.745L355.194 838.737L375.452 803.437C340.747 786.089 364.46 771.515 389.821 759.211C419.737 744.687 474.465 775.146 461.588 800.764C457.426 809.135 433.164 813.321 420.287 821.893" fill="#050203"/>
<path d="M269.059 986.695L215.745 1003.29L133.535 1005.96C127.592 997.916 123.138 989.453 120.266 980.744C117.361 968.527 117.361 956.098 120.266 943.881C121.444 938.334 131.415 933.543 137.383 928.399C145.235 932.282 152.145 936.519 160.154 939.948C171.225 944.688 183.709 948.571 194.466 953.311C213.625 961.682 232.077 970.104 269.059 986.695Z" fill="#050203"/>
<path d="M401.209 324.617L344.439 330.719C360.143 305.253 366.111 283.417 385.505 269.398C397.126 261.027 430.103 264.91 453.502 263.347L450.597 330.921L401.444 328.904L401.209 324.617Z" fill="#050203"/>
<path d="M165.259 560.069C159.056 565.768 147.121 571.718 147.828 577.064C148.927 586.242 157.878 594.966 153.874 606.917L150.733 601.874H123.408L131.888 594.512L107.705 596.428L104.014 571.668L91.9222 572.021L88.7026 527.492L105.113 525.677L113.75 535.208C149.476 528.45 220.222 559.514 223.677 582.863C224.383 587.553 212.763 595.823 204.597 597.235C198.865 598.193 186.38 591.385 182.454 586.292C177.822 580.241 179.078 572.273 177.822 565.162L165.259 560.069Z" fill="#050203"/>
<path d="M60.1988 158.91V152.405L47.8713 150.438L46.3008 138.89C69.8565 137.982 94.5115 134.099 116.968 137.074C133.928 139.344 148.375 150.387 163.372 157.498C152.144 163.348 140.366 168.844 130.002 175.249C127.097 177.064 129.06 181.805 127.804 184.982C123.721 194.815 119.166 204.497 114.848 214.281C103.227 210.7 87.4445 209.238 80.9275 203.136C67.5792 191.033 59.2563 176.661 48.1852 162.339L60.1988 158.91Z" fill="#050203"/>
<path d="M1349.17 470.86L1396.83 520.028C1394.68 526.334 1391.77 532.523 1388.11 538.535C1352.15 534.349 1310.3 567.885 1279.76 532.383C1277.16 529.357 1273.24 524.012 1275.12 522.65C1299.23 504.95 1324.35 487.905 1349.17 470.86Z" fill="#050203"/>
<path d="M947.7 770.759C983.348 759.06 1003.61 748.369 1025.59 746.553C1042 745.242 1060.69 755.328 1078.12 760.774C1079.38 761.178 1079.06 765.111 1078.12 767.027C1068.15 784.425 1058.18 801.874 1047.26 819.019C1044.32 821.911 1040.23 824.244 1035.41 825.777C1009.49 810.094 984.525 794.057 947.7 770.759Z" fill="#050203"/>
<path d="M913.15 170.609L960.968 188.461C954.53 173.635 951.546 166.827 947.149 156.64C955.943 156.086 970.312 152.253 976.28 155.228C1014.6 174.341 996.616 198.395 978.321 216.751C971.176 223.862 935.528 223.609 915.506 220.18C874.676 213.12 889.673 192.293 898.389 175.803C900.352 171.315 915.741 169.802 913.15 170.609Z" fill="#050203"/>
<path d="M736.17 216.7L779.906 241.209C765.301 249.58 751.482 258.707 735.778 266.423C723.644 271.478 710.911 275.912 697.696 279.686C661.813 256.489 664.482 219.777 702.172 207.422C711.515 204.345 723.922 205.102 734.914 204.093C735.621 210.75 736.249 217.659 736.17 216.7Z" fill="#050203"/>
<path d="M887.398 784.223C878.839 788.661 866.355 794.309 855.048 801.167C850.368 803.762 846.562 806.943 843.862 810.515C841.162 814.088 839.625 817.976 839.344 821.943L831.493 846.099L822.149 847.359L817.595 838.232L796.002 842.367C790.788 822.674 787.327 802.807 785.637 782.861C785.637 778.424 805.974 774.641 814.689 769.044C820.264 765.514 821.442 758.958 824.975 754.268C827.331 751.091 829.922 745.998 833.377 745.645C836.34 745.567 839.293 745.921 842.013 746.681C844.733 747.441 847.149 748.586 849.081 750.032C861.016 759.714 871.616 770.002 887.398 784.223ZM824.583 827.49C819.244 825.019 816.731 823.003 814.297 823.003C811.863 823.003 809.35 825.02 805.659 826.734L815.789 832.584L824.583 827.49Z" fill="#050203"/>
<path d="M177.979 842.469H185.831C184.397 850.119 183.584 857.811 183.396 865.515C184.253 872.544 185.774 879.533 187.95 886.443L185.202 888.208L168.792 885.939L171.147 896.478L160.076 913.876L144.372 918.465L90.665 838.233L168.556 828.147" fill="#050203"/>
<path d="M1294.99 927.289C1315.88 945.342 1337.23 963.194 1356.39 981.953C1357.49 983.012 1337.08 997.082 1332.84 995.771C1301.68 987.912 1272.17 977.595 1244.97 965.06C1240.58 962.942 1258.24 942.215 1265.7 930.113L1294.99 927.289Z" fill="#050203"/>
<path d="M503.91 250.638C518.122 221.44 530.136 196.125 543.17 171.011C544.943 169.819 547.145 168.925 549.581 168.406C552.018 167.888 554.615 167.76 557.146 168.036C572.379 176.407 600.253 187.3 598.212 194.158C592.331 211.781 578.706 227.952 558.952 240.754C546.625 248.974 520.242 248.066 503.91 250.638Z" fill="#050203"/>
<path d="M1477.78 819.877V860.876C1478.57 860.321 1475.9 862.187 1477.78 860.876C1481.86 868.793 1487.12 874.441 1486.58 879.787C1486.58 883.014 1474.01 889.166 1471.89 888.41C1453.83 881.955 1432.63 876.408 1420.7 866.423C1406.56 854.522 1399.26 838.889 1392.12 824.214C1388.82 817.507 1392.82 809.086 1393.53 801.773C1414.44 802.861 1435.2 804.934 1455.64 807.976C1466 810.144 1474.01 817.759 1477.78 819.877Z" fill="#050203"/>
<path d="M1690.41 532.433C1704.86 546.654 1721.82 556.488 1724.41 567.733C1727.87 585.232 1721.11 603.537 1718.76 621.439C1700.31 613.774 1668.43 607.319 1666.31 598.091C1661.83 578.273 1671.96 556.891 1678.16 536.366C1679.03 533.391 1691.75 532.08 1690.41 532.433Z" fill="#050203"/>
<path d="M793.176 403.638C776.609 420.935 764.831 441.409 756.037 440.905C732.481 439.493 710.339 429.155 687.725 422.246C687.265 421.975 686.916 421.636 686.71 421.257C686.504 420.879 686.448 420.473 686.547 420.078C702.251 402.68 717.327 385.332 732.716 368.035L793.176 403.638Z" fill="#050203"/>
<path d="M275.262 324.92C250.215 313.523 232.862 309.489 231.763 304.093C230.35 297.336 242.913 289.671 248.566 282.106C257.439 270.205 265.29 257.951 274.241 246.05C278.324 240.604 282.8 232.333 289.317 231.325C298.661 229.862 318.605 232.938 319.233 235.611C322.217 247.512 324.572 260.825 318.448 271.869C309.261 288.914 292.536 304.446 275.262 324.92Z" fill="#050203"/>
<path d="M1360.24 1116.04L1323.96 1102.02L1354.9 1087.8L1312.34 1085.28C1330.64 1068.79 1344.69 1053.56 1363.22 1041.16C1367.46 1038.38 1395.57 1043.27 1398.4 1048.17C1404.92 1059.11 1402.56 1072.27 1403.82 1085.08L1383.48 1086.49L1381.52 1071.72H1378.53C1355.68 1091.89 1400.75 1132.84 1327.34 1131.12C1314.93 1130.82 1303.78 1109.29 1287.53 1093.1L1308.81 1091.74C1316.66 1101.12 1320.67 1110.24 1330.01 1115.24C1336.05 1118.67 1349.95 1116.04 1360.24 1116.04Z" fill="#050203"/>
<path d="M1707.29 124.566L1659.79 179.281C1643.46 167.884 1623.75 157.748 1612.21 144.636C1606.47 138.131 1614.48 125.978 1618.49 116.749C1622.11 111.36 1626.75 106.278 1632.31 101.621C1634.84 106.078 1638.41 110.261 1642.91 114.026C1646.52 116.245 1653.98 115.791 1659.63 116.699C1668.97 117.859 1678.4 119.724 1707.29 124.566Z" fill="#050203"/>
<path d="M241.263 122.902V134.651L224.931 131.071L206.401 155.428C192.346 141.812 179.076 132.433 173.737 121.49C172.245 118.363 193.837 110.597 218.885 109.538C218.885 98.1411 214.959 85.887 220.377 75.7005C223.596 69.4473 241.106 66.2702 252.256 61.6812C258.616 82.962 304.707 106.966 241.263 122.902Z" fill="#050203"/>
<path d="M235.768 837.528L291.516 766.171L313.816 827.542C302.195 843.478 294.657 853.866 287.041 864.204L298.191 867.532L294.5 874.138L300.154 875.5L289.946 893.251L283.193 891.839V885.182L277.854 889.418L272.75 885.939L269.452 901.067C250.451 878.022 238.045 862.439 225.561 847.714L236.16 836.821" fill="#050203"/>
<path d="M1514.37 961.884C1507.26 973.161 1498.56 983.997 1488.38 994.259C1484.61 997.739 1458.47 996.68 1457.84 995.117C1451.49 980.28 1447.44 965.078 1445.75 949.731C1445.12 943.276 1451.71 936.266 1456.66 930.013C1460.88 926.196 1465.81 922.725 1471.34 919.675C1485.01 927.895 1498.98 935.863 1511.86 944.537C1514.22 946.352 1512.72 950.739 1514.37 961.884Z" fill="#050203"/>
<path d="M1325.3 248.57L1308.26 261.329L1326.79 275.751L1291.14 324.062C1285.02 312.615 1284 310.547 1285.1 312.614C1272.3 309.135 1259.18 308.278 1256.51 304.395C1238.69 278.625 1243.01 255.681 1286.98 242.872C1295.3 240.401 1309.28 245.948 1325.3 248.57Z" fill="#050203"/>
<path d="M664.246 627.694L655.608 651.295L645.794 650.185C645.244 646.706 644.616 643.277 645.322 647.311C637.863 650.74 623.808 662.44 612.502 661.33C591.93 659.515 573.242 650.286 553.455 643.831C552.356 643.428 553.455 640.402 553.455 632.233L565.233 614.179L592.715 626.635L587.533 603.64L600.41 598.597L602.687 592.394H617.213" fill="#050203"/>
<path d="M191.483 62.69L154.344 98.7464C146.492 91.5351 129.768 83.6179 130.788 77.2639C134.086 62.1353 145.707 47.3092 153.873 32.3823C172.953 38.1816 193.132 42.7707 210.171 50.5871C214.097 52.4026 206.009 64.9592 201.848 77.4655L191.483 62.69Z" fill="#050203"/>
<path d="M458.448 1095.02C456.328 1085.99 447.848 1074.49 453.502 1068.54C463.238 1058.45 481.768 1051.65 496.687 1043.33L508.701 1051.19L501.869 1072.57L491.348 1070.41L483.496 1075.75L489.934 1079.68L501.791 1076.36L488.835 1085.08L544.819 1106.26L538.773 1110.9L533.041 1105L527.074 1111.45L513.254 1108.53L507.68 1111.56L528.566 1120.99L472.346 1134.1L460.647 1095.17L458.448 1095.02Z" fill="#050203"/>
<path d="M605.592 1094.11L599.86 1086.69L584.863 1085.18L582.429 1077.72L565.548 1073.78C576.854 1061.33 583.843 1047.11 598.918 1039.34C609.675 1033.79 631.268 1036.92 648.385 1036.16L652.546 1054.27L656.629 1053.61C658.671 1057.95 664.481 1064.96 662.126 1066.12C644.381 1076 625.143 1084.63 605.592 1094.11Z" fill="#050203"/>
<path d="M1771.6 115.69C1767.99 129.306 1768.22 138.786 1762.65 146.502C1754.27 156.153 1744.63 165.331 1733.83 173.935C1727 159.966 1715.85 146.149 1714.75 132.029C1713.81 120.38 1723.15 107.924 1731.16 96.7289C1734.07 92.6946 1746.16 91.3834 1754.01 88.8115C1760.61 98.9477 1767.2 109.084 1771.6 115.69Z" fill="#050203"/>
<path d="M856.068 150.234C871.248 132.887 886.35 115.522 901.373 98.1411L978.243 129.306C945.737 134.349 928.384 134.601 914.8 139.392C899.881 144.435 888.418 153.814 875.54 161.278L856.068 150.234Z" fill="#050203"/>
<path d="M1621.86 95.3187C1639.92 73.2814 1649.35 58.9597 1663.09 46.6551C1667.64 42.5704 1684.13 41.6123 1693.71 43.226C1699.05 44.0833 1700.15 53.3117 1705.17 58.0015C1713.03 65.2128 1722.45 71.6676 1737.13 82.9636L1621.86 95.3187Z" fill="#050203"/>
<path d="M1732.26 504.041C1717.26 461.883 1763.67 428.398 1823.03 433.744C1826.8 434.097 1833.16 437.072 1832.92 438.534C1832.69 442.141 1830.27 445.546 1826.17 448.015C1797.12 460.572 1754.64 464.908 1758.41 496.88C1758.64 498.746 1742.08 501.469 1732.26 504.041Z" fill="#050203"/>
<path d="M1731.16 352.656C1765.16 368.693 1792.17 384.83 1747.96 414.23L1701.4 395.823L1706.74 395.268L1712.32 394.915H1712.87H1706.9L1704.94 397.084L1701.64 395.42C1693.79 391.587 1680.67 388.259 1679.57 383.72C1678.68 378.83 1679.53 373.874 1682.06 369.226C1684.59 364.578 1688.74 360.36 1694.18 356.892" fill="#050203"/>
<path d="M641.554 496.075C621.375 483.317 595.699 469.751 597.662 467.885C611.01 454.824 630.09 444.184 647.364 432.585C656.63 443.175 671.941 453.513 673.119 464.456C673.904 472.727 656.551 481.804 641.554 496.075Z" fill="#050203"/>
<path d="M1602.55 737.073C1562.66 756.841 1528.74 773.684 1494.27 790.074C1493.33 790.527 1482.49 785.485 1482.81 783.367C1484.07 778.769 1487.21 774.469 1491.91 770.911C1505.38 758.76 1519.88 747.093 1535.34 735.964C1545.76 729.112 1558.19 723.661 1571.93 719.928C1575.38 718.919 1584.88 726.937 1602.55 737.073Z" fill="#050203"/>
<path d="M1582.6 672.071C1567.92 683.216 1553.79 699.706 1546.01 698.546C1528.66 696.025 1514.61 684.628 1498.9 676.862L1555.44 649.227L1582.6 672.071Z" fill="#050203"/>
<path d="M1197.47 1042.97C1231 1025.42 1246.46 1013.02 1253.06 1014.68C1271.83 1019.73 1286.98 1030.16 1303.47 1038.54C1288.79 1047.21 1275.28 1061.48 1259.03 1062.89C1242.77 1064.3 1224.64 1052.45 1197.47 1042.97Z" fill="#050203"/>
<path d="M1759.35 1002.33L1801.04 977.616C1813.14 986.189 1837.01 996.426 1834.73 1002.83C1830.73 1014.28 1811.17 1023.41 1797.43 1033.49L1759.35 1002.33Z" fill="#050203"/>
<path d="M331.01 413.876H309.26L310.438 425.626L237.573 430.064C236.866 423.104 231.762 411.758 236.002 409.892C251.365 403.108 269.072 398.832 287.589 397.436C298.896 397.134 310.909 405.908 331.01 413.876Z" fill="#050203"/>
<path d="M1216.39 18.1108C1229.82 29.306 1244.66 39.8456 1243.24 40.8037C1226.15 52.2058 1208.18 63.0451 1189.38 73.2798C1183.49 64.3539 1169.67 53.5117 1173.68 46.956C1179.33 37.1729 1197.47 30.1129 1216.39 18.1108Z" fill="#050203"/>
<path d="M105.112 1052.76C54.0744 1047.21 36.3293 1026.79 64.1251 1006.92C70.7992 1002.18 93.4125 999.101 96.7888 1001.87C104.641 1007.67 106.289 1017.41 107.389 1025.73C107.621 1034.76 106.86 1043.79 105.112 1052.76Z" fill="#050203"/>
<path d="M1795.86 227.088C1778.35 213.674 1759.43 202.782 1761.78 200.361C1776.42 186.314 1793.2 173.239 1811.88 161.329C1813.61 160.169 1829.39 165.263 1829.23 165.515C1820.04 183.72 1809.99 201.723 1795.86 227.088Z" fill="#050203"/>
<path d="M123.015 640.2L173.503 641.864C170.99 648.823 172.089 659.565 165.651 662.036C143.223 669.87 120.038 676.776 96.2397 682.711L124.664 645.949C126.391 653.311 125.449 649.58 123.015 640.2Z" fill="#050203"/>
<path d="M1196.53 670.609L1267.19 611.809C1267.19 631.577 1273.48 644.789 1265.86 651.799C1252.75 663.7 1231 671.97 1212.94 681.35L1196.53 670.609Z" fill="#050203"/>
<path d="M334.308 85.6856C315.934 80.0376 295.048 76.1042 280.129 67.9348C273.691 64.4552 275.183 51.0411 280.129 44.2333C283.113 40.1485 299.524 40.0477 311.066 37.9297L317.112 57.3447L323.001 55.2771L343.73 77.1632L334.308 85.6856Z" fill="#050203"/>
<path d="M353.39 890.629L359.121 892.949C359.121 894.058 359.121 892.545 359.75 891.033L375.846 885.183C387.938 898.496 400.58 911.708 410.944 925.526C404.723 930.453 396.228 933.984 386.682 935.611C381.656 935.611 375.297 926.736 370.271 921.491C361.87 912.818 354.018 903.892 345.93 895.067L353.39 890.629Z" fill="#050203"/>
<path d="M826.703 895.669C829.215 895.266 832.434 894.005 834.005 894.56C849.709 900.107 865.02 905.956 880.409 911.705L866.04 920.984L855.598 919.219L854.027 934.348L793.489 917.606C799.613 910.546 805.267 903.284 812.334 896.627C813.59 895.467 820.735 896.879 825.132 897.132L826.703 895.669Z" fill="#050203"/>
<path d="M855.282 453.563L883.628 431.677C893.835 440.401 907.576 448.419 912.523 458.253C914.329 461.833 895.327 469.75 885.826 475.701L855.282 453.563Z" fill="#050203"/>
<path d="M564.135 133.24L524.404 97.9395L551.415 91.5352L540.736 85.2316L576.227 79.0288L568.375 102.428L553.77 105.454L574.578 109.841C573.657 117.433 571.58 124.949 568.375 132.281C567.59 134.45 556.362 134.349 564.135 133.24Z" fill="#050203"/>
<path d="M257.518 351.143L286.256 352.606L299.683 383.972L240.95 380.745L223.912 349.832L232.549 348.319L246.447 351.849" fill="#050203"/>
<path d="M1317.92 591.888C1333.31 583.9 1349.52 576.588 1366.44 570.001C1369.98 568.791 1379.87 575.296 1386.86 578.221L1384.19 579.381L1374.22 580.793L1381.6 585.382L1347.52 608.277L1337.23 600.36" fill="#050203"/>
<path d="M1687.19 840.048L1674.79 863.598L1660.81 858.555L1650.37 864.96C1648.72 858.908 1644.79 851.899 1646.91 851.092C1659.88 846.759 1673.35 843.067 1687.19 840.048Z" fill="#050203"/>
<path d="M635.823 102.731C644.146 110.397 652.704 114.784 651.527 118.364C650.349 121.945 641.555 128.803 635.823 128.853C631.941 128.245 628.376 126.994 625.483 125.224C622.589 123.454 620.469 121.228 619.334 118.768C619.02 115.187 627.578 110.598 635.823 102.731Z" fill="#050203"/>
<path d="M392.885 374.238L360.849 365.514L371.056 352.907L399.716 366.422L392.885 374.238Z" fill="#050203"/>
<path d="M504.067 102.982C526.288 112.06 535.475 115.489 543.955 119.725C545.29 120.431 542.777 126.734 540.5 127.188C535.632 128.146 527.466 128.298 524.797 126.381C518.908 122.297 515.767 116.649 504.067 102.982Z" fill="#050203"/>
<path d="M2.17383 148.47V158.959H3.03742V148.117L2.17383 148.47Z" fill="#EB3F7F"/>
<path d="M914.407 392.191C915.585 400.058 915.114 396.729 914.407 392.191C913.857 396.729 913.857 400.259 914.407 392.191Z" fill="#EB3F7F"/>
</g>
</svg>
